CrimsonProS-W0.ufo
<glyph name="exclam" format="2">
  <advance width="252.0"/>
  <unicode hex="0021"/>
  <note>
    exclam
  </note>
  <outline>
    <contour>
      <point x="112.0" y="161.0" type="line"/>
      <point x="140.0" y="161.0" type="line"/>
      <point x="161.0" y="659.0" type="line" smooth="yes"/>
      <point x="159.0" y="690.0"/>
      <point x="140.0" y="698.0"/>
      <point x="126.0" y="698.0" type="curve" smooth="yes"/>
      <point x="112.0" y="698.0"/>
      <point x="93.0" y="690.0"/>
      <point x="91.0" y="659.0" type="curve" smooth="yes"/>
    </contour>
    <contour>
      <point x="126.0" y="-10.0" type="curve" smooth="yes"/>
      <point x="154.0" y="-10.0"/>
      <point x="174.0" y="10.0"/>
      <point x="174.0" y="37.0" type="curve" smooth="yes"/>
      <point x="174.0" y="63.0"/>
      <point x="154.0" y="82.0"/>
      <point x="126.0" y="82.0" type="curve" smooth="yes"/>
      <point x="97.0" y="82.0"/>
      <point x="78.0" y="63.0"/>
      <point x="78.0" y="37.0" type="curve" smooth="yes"/>
      <point x="78.0" y="9.0"/>
      <point x="98.0" y="-10.0"/>
    </contour>
  </outline>
</glyph>
<glyph name="percent" format="2">
  <advance width="738.0"/>
  <unicode hex="0025"/>
  <note>
    percent
  </note>
  <outline>
    <contour>
      <point x="146.0" y="-13.0" type="line"/>
      <point x="626.0" y="569.0" type="line"/>
      <point x="590.0" y="601.0" type="line"/>
      <point x="111.0" y="20.0" type="line"/>
    </contour>
    <contour>
      <point x="193.0" y="287.0" type="curve" smooth="yes"/>
      <point x="277.0" y="287.0"/>
      <point x="350.0" y="353.0"/>
      <point x="350.0" y="441.0" type="curve" smooth="yes"/>
      <point x="350.0" y="532.0"/>
      <point x="281.0" y="594.0"/>
      <point x="193.0" y="594.0" type="curve" smooth="yes"/>
      <point x="107.0" y="594.0"/>
      <point x="34.0" y="527.0"/>
      <point x="34.0" y="441.0" type="curve" smooth="yes"/>
      <point x="34.0" y="350.0"/>
      <point x="102.0" y="287.0"/>
    </contour>
    <contour>
      <point x="193.0" y="333.0" type="curve" smooth="yes"/>
      <point x="133.0" y="333.0"/>
      <point x="91.0" y="379.0"/>
      <point x="91.0" y="442.0" type="curve" smooth="yes"/>
      <point x="91.0" y="504.0"/>
      <point x="133.0" y="549.0"/>
      <point x="193.0" y="549.0" type="curve" smooth="yes"/>
      <point x="250.0" y="549.0"/>
      <point x="296.0" y="505.0"/>
      <point x="296.0" y="442.0" type="curve" smooth="yes"/>
      <point x="296.0" y="378.0"/>
      <point x="250.0" y="333.0"/>
    </contour>
    <contour>
      <point x="546.0" y="-6.0" type="curve" smooth="yes"/>
      <point x="631.0" y="-6.0"/>
      <point x="704.0" y="59.0"/>
      <point x="704.0" y="147.0" type="curve" smooth="yes"/>
      <point x="704.0" y="238.0"/>
      <point x="635.0" y="300.0"/>
      <point x="546.0" y="300.0" type="curve" smooth="yes"/>
      <point x="461.0" y="300.0"/>
      <point x="388.0" y="233.0"/>
      <point x="388.0" y="147.0" type="curve" smooth="yes"/>
      <point x="388.0" y="56.0"/>
      <point x="456.0" y="-6.0"/>
    </contour>
    <contour>
      <point x="546.0" y="40.0" type="curve" smooth="yes"/>
      <point x="487.0" y="40.0"/>
      <point x="445.0" y="85.0"/>
      <point x="445.0" y="148.0" type="curve" smooth="yes"/>
      <point x="445.0" y="210.0"/>
      <point x="487.0" y="256.0"/>
      <point x="546.0" y="256.0" type="curve" smooth="yes"/>
      <point x="604.0" y="256.0"/>
      <point x="650.0" y="211.0"/>
      <point x="650.0" y="148.0" type="curve" smooth="yes"/>
      <point x="650.0" y="84.0"/>
      <point x="604.0" y="40.0"/>
    </contour>
  </outline>
</glyph>
<glyph name="ampersand" format="2">
  <advance width="682.0"/>
  <unicode hex="0026"/>
  <note>
    ampersand
  </note>
  <outline>
    <contour>
      <point x="245.0" y="-7.0" type="curve" smooth="yes"/>
      <point x="383.0" y="-7.0"/>
      <point x="465.0" y="91.0"/>
      <point x="565.0" y="281.0" type="curve"/>
      <point x="635.0" y="293.0" type="line"/>
      <point x="634.0" y="325.0" type="line"/>
      <point x="436.0" y="324.0" type="line"/>
      <point x="434.0" y="292.0" type="line"/>
      <point x="504.0" y="281.0" type="line"/>
      <point x="434.0" y="93.0"/>
      <point x="361.0" y="38.0"/>
      <point x="261.0" y="38.0" type="curve" smooth="yes"/>
      <point x="174.0" y="38.0"/>
      <point x="107.0" y="86.0"/>
      <point x="107.0" y="163.0" type="curve" smooth="yes"/>
      <point x="107.0" y="223.0"/>
      <point x="133.0" y="267.0"/>
      <point x="224.0" y="319.0" type="curve"/>
      <point x="397.0" y="412.0"/>
      <point x="443.0" y="471.0"/>
      <point x="443.0" y="549.0" type="curve" smooth="yes"/>
      <point x="443.0" y="623.0"/>
      <point x="384.0" y="668.0"/>
      <point x="310.0" y="668.0" type="curve" smooth="yes"/>
      <point x="214.0" y="668.0"/>
      <point x="151.0" y="590.0"/>
      <point x="151.0" y="501.0" type="curve" smooth="yes"/>
      <point x="151.0" y="386.0"/>
      <point x="208.0" y="310.0"/>
      <point x="292.0" y="194.0" type="curve" smooth="yes"/>
      <point x="395.0" y="53.0"/>
      <point x="476.0" y="-7.0"/>
      <point x="567.0" y="-7.0" type="curve" smooth="yes"/>
      <point x="621.0" y="-7.0"/>
      <point x="662.0" y="11.0"/>
      <point x="692.0" y="46.0" type="curve"/>
      <point x="681.0" y="66.0" type="line"/>
      <point x="647.0" y="45.0"/>
      <point x="626.0" y="38.0"/>
      <point x="589.0" y="38.0" type="curve" smooth="yes"/>
      <point x="510.0" y="38.0"/>
      <point x="424.0" y="100.0"/>
      <point x="319.0" y="251.0" type="curve" smooth="yes"/>
      <point x="259.0" y="341.0"/>
      <point x="210.0" y="412.0"/>
      <point x="210.0" y="509.0" type="curve" smooth="yes"/>
      <point x="210.0" y="590.0"/>
      <point x="254.0" y="632.0"/>
      <point x="309.0" y="632.0" type="curve" smooth="yes"/>
      <point x="351.0" y="632.0"/>
      <point x="388.0" y="598.0"/>
      <point x="388.0" y="536.0" type="curve" smooth="yes"/>
      <point x="388.0" y="472.0"/>
      <point x="338.0" y="410.0"/>
      <point x="220.0" y="355.0" type="curve"/>
      <point x="61.0" y="275.0"/>
      <point x="41.0" y="197.0"/>
      <point x="41.0" y="143.0" type="curve" smooth="yes"/>
      <point x="41.0" y="66.0"/>
      <point x="101.0" y="-7.0"/>
    </contour>
  </outline>
</glyph>
<glyph name="quotesingle" format="2">
  <advance width="218.0"/>
  <unicode hex="0027"/>
  <note>
    quotesingle
  </note>
  <outline>
    <contour>
      <point x="110.0" y="698.0" type="curve" smooth="yes"/>
      <point x="85.0" y="698.0"/>
      <point x="65.0" y="682.0"/>
      <point x="65.0" y="636.0" type="curve" smooth="yes"/>
      <point x="65.0" y="602.0"/>
      <point x="87.0" y="522.0"/>
      <point x="96.0" y="476.0" type="curve"/>
      <point x="125.0" y="476.0" type="line"/>
      <point x="134.0" y="522.0"/>
      <point x="156.0" y="602.0"/>
      <point x="156.0" y="636.0" type="curve" smooth="yes"/>
      <point x="156.0" y="682.0"/>
      <point x="137.0" y="698.0"/>
    </contour>
  </outline>
</glyph>
<glyph name="asterisk" format="2">
  <advance width="410.0"/>
  <unicode hex="002A"/>
  <note>
    asterisk
  </note>
  <outline>
    <contour>
      <point x="364.0" y="579.0" type="curve" smooth="yes"/>
      <point x="361.0" y="593.0"/>
      <point x="342.0" y="599.0"/>
      <point x="321.0" y="592.0" type="curve" smooth="yes"/>
      <point x="287.0" y="581.0"/>
      <point x="247.0" y="555.0"/>
      <point x="215.0" y="540.0" type="curve"/>
      <point x="217.0" y="575.0"/>
      <point x="231.0" y="623.0"/>
      <point x="231.0" y="661.0" type="curve" smooth="yes"/>
      <point x="231.0" y="683.0"/>
      <point x="220.0" y="698.0"/>
      <point x="205.0" y="698.0" type="curve" smooth="yes"/>
      <point x="190.0" y="698.0"/>
      <point x="179.0" y="683.0"/>
      <point x="179.0" y="661.0" type="curve" smooth="yes"/>
      <point x="179.0" y="623.0"/>
      <point x="193.0" y="575.0"/>
      <point x="196.0" y="540.0" type="curve"/>
      <point x="163.0" y="554.0"/>
      <point x="124.0" y="580.0"/>
      <point x="89.0" y="592.0" type="curve" smooth="yes"/>
      <point x="68.0" y="600.0"/>
      <point x="52.0" y="593.0"/>
      <point x="46.0" y="579.0" type="curve" smooth="yes"/>
      <point x="40.0" y="565.0"/>
      <point x="52.0" y="550.0"/>
      <point x="74.0" y="543.0" type="curve" smooth="yes"/>
      <point x="106.0" y="532.0"/>
      <point x="153.0" y="529.0"/>
      <point x="187.0" y="523.0" type="curve"/>
      <point x="162.0" y="496.0"/>
      <point x="124.0" y="467.0"/>
      <point x="103.0" y="437.0" type="curve" smooth="yes"/>
      <point x="90.0" y="418.0"/>
      <point x="90.0" y="399.0"/>
      <point x="102.0" y="391.0" type="curve" smooth="yes"/>
      <point x="114.0" y="383.0"/>
      <point x="131.0" y="387.0"/>
      <point x="144.0" y="405.0" type="curve" smooth="yes"/>
      <point x="169.0" y="438.0"/>
      <point x="187.0" y="489.0"/>
      <point x="205.0" y="518.0" type="curve"/>
      <point x="224.0" y="489.0"/>
      <point x="241.0" y="438.0"/>
      <point x="266.0" y="405.0" type="curve" smooth="yes"/>
      <point x="279.0" y="387.0"/>
      <point x="297.0" y="381.0"/>
      <point x="308.0" y="391.0" type="curve" smooth="yes"/>
      <point x="321.0" y="401.0"/>
      <point x="321.0" y="418.0"/>
      <point x="307.0" y="437.0" type="curve" smooth="yes"/>
      <point x="287.0" y="467.0"/>
      <point x="248.0" y="496.0"/>
      <point x="223.0" y="523.0" type="curve"/>
      <point x="257.0" y="529.0"/>
      <point x="304.0" y="531.0"/>
      <point x="336.0" y="543.0" type="curve" smooth="yes"/>
      <point x="358.0" y="551.0"/>
      <point x="368.0" y="565.0"/>
    </contour>
  </outline>
</glyph>
<glyph name="hyphen" format="2">
  <advance width="363.0"/>
  <unicode hex="002D"/>
  <note>
    hyphen
  </note>
  <outline>
    <contour>
      <point x="82.0" y="180.0" type="line"/>
      <point x="281.0" y="207.0" type="line"/>
      <point x="281.0" y="260.0" type="line"/>
      <point x="82.0" y="234.0" type="line"/>
    </contour>
  </outline>
</glyph>
<glyph name="period" format="2">
  <advance width="209.0"/>
  <unicode hex="002E"/>
  <note>
    period
  </note>
  <outline>
    <contour>
      <point x="104.0" y="-10.0" type="curve" smooth="yes"/>
      <point x="133.0" y="-10.0"/>
      <point x="153.0" y="10.0"/>
      <point x="153.0" y="37.0" type="curve" smooth="yes"/>
      <point x="153.0" y="63.0"/>
      <point x="133.0" y="82.0"/>
      <point x="104.0" y="82.0" type="curve" smooth="yes"/>
      <point x="76.0" y="82.0"/>
      <point x="56.0" y="63.0"/>
      <point x="56.0" y="37.0" type="curve" smooth="yes"/>
      <point x="56.0" y="10.0"/>
      <point x="76.0" y="-10.0"/>
    </contour>
  </outline>
</glyph>
<glyph name="slash" format="2">
  <advance width="342.0"/>
  <unicode hex="002F"/>
  <note>
    slash
  </note>
  <outline>
    <contour>
      <point x="15.0" y="-180.0" type="line"/>
      <point x="66.0" y="-180.0" type="line"/>
      <point x="367.0" y="728.0" type="line"/>
      <point x="316.0" y="728.0" type="line"/>
    </contour>
  </outline>
</glyph>
<glyph name="four" format="2">
  <advance width="510.0"/>
  <unicode hex="0034"/>
  <note>
    four
  </note>
  <outline>
    <contour>
      <point x="365.0" y="173.0" type="curve"/>
      <point x="364.0" y="453.0" type="line"/>
      <point x="364.0" y="500.0"/>
      <point x="365.0" y="543.0"/>
      <point x="367.0" y="591.0" type="curve"/>
      <point x="348.0" y="591.0" type="line"/>
      <point x="45.0" y="201.0" type="line"/>
      <point x="51.0" y="173.0" type="line"/>
      <point x="456.0" y="173.0" type="line"/>
      <point x="456.0" y="226.0" type="line"/>
      <point x="99.0" y="226.0" type="line"/>
      <point x="97.0" y="205.0" type="line"/>
      <point x="338.0" y="520.0" type="line"/>
      <point x="313.0" y="520.0" type="line"/>
      <point x="313.0" y="173.0" type="line"/>
      <point x="313.0" y="81.0"/>
      <point x="313.0" y="56.0"/>
      <point x="312.0" y="43.0" type="curve"/>
      <point x="234.0" y="30.0" type="line"/>
      <point x="236.0" y="0.0" type="line"/>
      <point x="424.0" y="0.0" type="line"/>
      <point x="426.0" y="30.0" type="line"/>
      <point x="367.0" y="43.0" type="line"/>
      <point x="366.0" y="56.0"/>
      <point x="365.0" y="81.0"/>
    </contour>
  </outline>
</glyph>
<glyph name="seven" format="2">
  <advance width="461.0"/>
  <unicode hex="0037"/>
  <note>
    seven
  </note>
  <outline>
    <contour>
      <point x="213.0" y="0.0" type="line"/>
      <point x="444.0" y="561.0" type="line"/>
      <point x="440.0" y="588.0" type="line"/>
      <point x="415.0" y="588.0"/>
      <point x="388.0" y="587.0"/>
      <point x="364.0" y="587.0" type="curve" smooth="yes"/>
      <point x="136.0" y="587.0" type="line" smooth="yes"/>
      <point x="93.0" y="587.0"/>
      <point x="84.0" y="588.0"/>
      <point x="55.0" y="591.0" type="curve"/>
      <point x="28.0" y="437.0" type="line"/>
      <point x="57.0" y="432.0" type="line"/>
      <point x="95.0" y="520.0" type="line"/>
      <point x="99.0" y="522.0"/>
      <point x="110.0" y="523.0"/>
      <point x="124.0" y="523.0" type="curve" smooth="yes"/>
      <point x="397.0" y="523.0" type="line"/>
      <point x="397.0" y="555.0" type="line"/>
      <point x="150.0" y="25.0" type="line"/>
      <point x="150.0" y="0.0" type="line"/>
    </contour>
  </outline>
</glyph>
<glyph name="eight" format="2">
  <advance width="530.0"/>
  <unicode hex="0038"/>
  <note>
    eight
  </note>
  <outline>
    <contour>
      <point x="261.0" y="-9.0" type="curve" smooth="yes"/>
      <point x="376.0" y="-9.0"/>
      <point x="453.0" y="61.0"/>
      <point x="453.0" y="154.0" type="curve" smooth="yes"/>
      <point x="453.0" y="333.0"/>
      <point x="156.0" y="298.0"/>
      <point x="156.0" y="461.0" type="curve" smooth="yes"/>
      <point x="156.0" y="523.0"/>
      <point x="203.0" y="560.0"/>
      <point x="261.0" y="560.0" type="curve" smooth="yes"/>
      <point x="335.0" y="560.0"/>
      <point x="376.0" y="511.0"/>
      <point x="376.0" y="441.0" type="curve" smooth="yes"/>
      <point x="376.0" y="389.0"/>
      <point x="357.0" y="349.0"/>
      <point x="312.0" y="307.0" type="curve"/>
      <point x="338.0" y="294.0" type="line"/>
      <point x="394.0" y="329.0"/>
      <point x="434.0" y="382.0"/>
      <point x="434.0" y="452.0" type="curve" smooth="yes"/>
      <point x="434.0" y="533.0"/>
      <point x="360.0" y="596.0"/>
      <point x="269.0" y="596.0" type="curve" smooth="yes"/>
      <point x="175.0" y="596.0"/>
      <point x="99.0" y="531.0"/>
      <point x="99.0" y="446.0" type="curve" smooth="yes"/>
      <point x="99.0" y="255.0"/>
      <point x="393.0" y="297.0"/>
      <point x="393.0" y="133.0" type="curve" smooth="yes"/>
      <point x="393.0" y="69.0"/>
      <point x="348.0" y="31.0"/>
      <point x="272.0" y="31.0" type="curve" smooth="yes"/>
      <point x="180.0" y="31.0"/>
      <point x="134.0" y="88.0"/>
      <point x="134.0" y="151.0" type="curve" smooth="yes"/>
      <point x="134.0" y="204.0"/>
      <point x="167.0" y="254.0"/>
      <point x="254.0" y="289.0" type="curve"/>
      <point x="214.0" y="298.0" type="line"/>
      <point x="130.0" y="277.0"/>
      <point x="76.0" y="222.0"/>
      <point x="76.0" y="143.0" type="curve" smooth="yes"/>
      <point x="76.0" y="56.0"/>
      <point x="149.0" y="-9.0"/>
    </contour>
  </outline>
</glyph>
<glyph name="colon" format="2">
  <advance width="209.0"/>
  <unicode hex="003A"/>
  <note>
    colon
  </note>
  <outline>
    <contour>
      <point x="104.0" y="-10.0" type="curve" smooth="yes"/>
      <point x="133.0" y="-10.0"/>
      <point x="153.0" y="10.0"/>
      <point x="153.0" y="37.0" type="curve" smooth="yes"/>
      <point x="153.0" y="63.0"/>
      <point x="133.0" y="82.0"/>
      <point x="104.0" y="82.0" type="curve" smooth="yes"/>
      <point x="76.0" y="82.0"/>
      <point x="56.0" y="63.0"/>
      <point x="56.0" y="37.0" type="curve" smooth="yes"/>
      <point x="56.0" y="10.0"/>
      <point x="76.0" y="-10.0"/>
    </contour>
    <contour>
      <point x="104.0" y="344.0" type="curve" smooth="yes"/>
      <point x="133.0" y="344.0"/>
      <point x="153.0" y="363.0"/>
      <point x="153.0" y="390.0" type="curve" smooth="yes"/>
      <point x="153.0" y="417.0"/>
      <point x="133.0" y="435.0"/>
      <point x="104.0" y="435.0" type="curve" smooth="yes"/>
      <point x="76.0" y="435.0"/>
      <point x="56.0" y="417.0"/>
      <point x="56.0" y="390.0" type="curve" smooth="yes"/>
      <point x="56.0" y="363.0"/>
      <point x="76.0" y="344.0"/>
    </contour>
  </outline>
</glyph>
<glyph name="semicolon" format="2">
  <advance width="209.0"/>
  <unicode hex="003B"/>
  <note>
    semicolon
  </note>
  <outline>
    <contour>
      <point x="40.0" y="-159.0" type="line"/>
      <point x="99.0" y="-137.0"/>
      <point x="156.0" y="-57.0"/>
      <point x="156.0" y="10.0" type="curve" smooth="yes"/>
      <point x="156.0" y="56.0"/>
      <point x="132.0" y="82.0"/>
      <point x="104.0" y="82.0" type="curve" smooth="yes"/>
      <point x="78.0" y="82.0"/>
      <point x="61.0" y="62.0"/>
      <point x="61.0" y="42.0" type="curve" smooth="yes"/>
      <point x="61.0" y="0.0"/>
      <point x="99.0" y="1.0"/>
      <point x="99.0" y="-40.0" type="curve" smooth="yes"/>
      <point x="99.0" y="-85.0"/>
      <point x="68.0" y="-117.0"/>
      <point x="28.0" y="-136.0" type="curve"/>
    </contour>
    <contour>
      <point x="104.0" y="344.0" type="curve" smooth="yes"/>
      <point x="133.0" y="344.0"/>
      <point x="153.0" y="363.0"/>
      <point x="153.0" y="390.0" type="curve" smooth="yes"/>
      <point x="153.0" y="417.0"/>
      <point x="133.0" y="435.0"/>
      <point x="104.0" y="435.0" type="curve" smooth="yes"/>
      <point x="76.0" y="435.0"/>
      <point x="56.0" y="417.0"/>
      <point x="56.0" y="390.0" type="curve" smooth="yes"/>
      <point x="56.0" y="363.0"/>
      <point x="76.0" y="344.0"/>
    </contour>
  </outline>
</glyph>
<glyph name="question" format="2">
  <advance width="347.0"/>
  <unicode hex="003F"/>
  <note>
    question
  </note>
  <outline>
    <contour>
      <point x="110.0" y="161.0" type="curve"/>
      <point x="141.0" y="161.0" type="line"/>
      <point x="137.0" y="174.0"/>
      <point x="134.0" y="196.0"/>
      <point x="134.0" y="219.0" type="curve" smooth="yes"/>
      <point x="134.0" y="330.0"/>
      <point x="294.0" y="367.0"/>
      <point x="294.0" y="496.0" type="curve" smooth="yes"/>
      <point x="294.0" y="623.0"/>
      <point x="219.0" y="698.0"/>
      <point x="88.0" y="698.0" type="curve" smooth="yes"/>
      <point x="38.0" y="698.0"/>
      <point x="18.0" y="678.0"/>
      <point x="18.0" y="657.0" type="curve" smooth="yes"/>
      <point x="18.0" y="641.0"/>
      <point x="30.0" y="623.0"/>
      <point x="61.0" y="623.0" type="curve" smooth="yes"/>
      <point x="87.0" y="623.0"/>
      <point x="106.0" y="640.0"/>
      <point x="144.0" y="640.0" type="curve" smooth="yes"/>
      <point x="204.0" y="640.0"/>
      <point x="246.0" y="599.0"/>
      <point x="246.0" y="538.0" type="curve" smooth="yes"/>
      <point x="246.0" y="421.0"/>
      <point x="79.0" y="356.0"/>
      <point x="79.0" y="254.0" type="curve" smooth="yes"/>
      <point x="79.0" y="222.0"/>
      <point x="86.0" y="197.0"/>
    </contour>
    <contour>
      <point x="127.0" y="-10.0" type="curve" smooth="yes"/>
      <point x="155.0" y="-10.0"/>
      <point x="175.0" y="10.0"/>
      <point x="175.0" y="37.0" type="curve" smooth="yes"/>
      <point x="175.0" y="63.0"/>
      <point x="155.0" y="82.0"/>
      <point x="127.0" y="82.0" type="curve" smooth="yes"/>
      <point x="99.0" y="82.0"/>
      <point x="79.0" y="63.0"/>
      <point x="79.0" y="37.0" type="curve" smooth="yes"/>
      <point x="79.0" y="9.0"/>
      <point x="99.0" y="-10.0"/>
    </contour>
  </outline>
</glyph>
<glyph name="at" format="2">
  <advance width="875.0"/>
  <unicode hex="0040"/>
  <note>
    at
  </note>
  <outline>
    <contour>
      <point x="447.0" y="-227.0" type="curve" smooth="yes"/>
      <point x="501.0" y="-227.0"/>
      <point x="578.0" y="-211.0"/>
      <point x="617.0" y="-188.0" type="curve"/>
      <point x="605.0" y="-158.0" type="line"/>
      <point x="554.0" y="-181.0"/>
      <point x="500.0" y="-189.0"/>
      <point x="451.0" y="-189.0" type="curve" smooth="yes"/>
      <point x="244.0" y="-189.0"/>
      <point x="132.0" y="-45.0"/>
      <point x="132.0" y="176.0" type="curve" smooth="yes"/>
      <point x="132.0" y="393.0"/>
      <point x="269.0" y="552.0"/>
      <point x="488.0" y="552.0" type="curve" smooth="yes"/>
      <point x="652.0" y="552.0"/>
      <point x="764.0" y="452.0"/>
      <point x="764.0" y="290.0" type="curve" smooth="yes"/>
      <point x="764.0" y="142.0"/>
      <point x="698.0" y="30.0"/>
      <point x="613.0" y="30.0" type="curve"/>
      <point x="607.0" y="50.0"/>
      <point x="604.0" y="73.0"/>
      <point x="604.0" y="102.0" type="curve"/>
      <point x="606.0" y="297.0" type="line"/>
      <point x="605.0" y="378.0"/>
      <point x="544.0" y="433.0"/>
      <point x="456.0" y="433.0" type="curve"/>
      <point x="382.0" y="423.0"/>
      <point x="309.0" y="373.0"/>
      <point x="309.0" y="333.0" type="curve" smooth="yes"/>
      <point x="309.0" y="311.0"/>
      <point x="329.0" y="297.0"/>
      <point x="356.0" y="297.0" type="curve" smooth="yes"/>
      <point x="364.0" y="297.0"/>
      <point x="372.0" y="299.0"/>
      <point x="381.0" y="301.0" type="curve"/>
      <point x="382.0" y="333.0" type="line" smooth="yes"/>
      <point x="384.0" y="381.0"/>
      <point x="394.0" y="392.0"/>
      <point x="433.0" y="392.0" type="curve" smooth="yes"/>
      <point x="500.0" y="392.0"/>
      <point x="552.0" y="352.0"/>
      <point x="552.0" y="298.0" type="curve" smooth="yes"/>
      <point x="552.0" y="240.0" type="line"/>
      <point x="402.0" y="187.0" type="line" smooth="yes"/>
      <point x="333.0" y="163.0"/>
      <point x="307.0" y="138.0"/>
      <point x="307.0" y="95.0" type="curve" smooth="yes"/>
      <point x="307.0" y="39.0"/>
      <point x="367.0" y="-8.0"/>
      <point x="439.0" y="-8.0" type="curve" smooth="yes"/>
      <point x="481.0" y="-8.0"/>
      <point x="519.0" y="13.0"/>
      <point x="565.0" y="63.0" type="curve"/>
      <point x="553.0" y="60.0" type="line"/>
      <point x="560.0" y="24.0" type="line" smooth="yes"/>
      <point x="564.0" y="4.0"/>
      <point x="574.0" y="-8.0"/>
      <point x="596.0" y="-8.0" type="curve" smooth="yes"/>
      <point x="704.0" y="-8.0"/>
      <point x="820.0" y="137.0"/>
      <point x="820.0" y="289.0" type="curve" smooth="yes"/>
      <point x="820.0" y="478.0"/>
      <point x="678.0" y="591.0"/>
      <point x="488.0" y="591.0" type="curve" smooth="yes"/>
      <point x="233.0" y="591.0"/>
      <point x="65.0" y="407.0"/>
      <point x="65.0" y="164.0" type="curve" smooth="yes"/>
      <point x="65.0" y="-71.0"/>
      <point x="215.0" y="-227.0"/>
    </contour>
    <contour>
      <point x="454.0" y="36.0" type="curve" smooth="yes"/>
      <point x="412.0" y="36.0"/>
      <point x="373.0" y="69.0"/>
      <point x="373.0" y="104.0" type="curve" smooth="yes"/>
      <point x="373.0" y="132.0"/>
      <point x="386.0" y="150.0"/>
      <point x="418.0" y="159.0" type="curve" smooth="yes"/>
      <point x="552.0" y="198.0" type="line"/>
      <point x="552.0" y="89.0" type="line"/>
      <point x="522.0" y="53.0"/>
      <point x="491.0" y="36.0"/>
    </contour>
  </outline>
</glyph>
<glyph name="B" format="2">
  <advance width="542.0"/>
  <unicode hex="0042"/>
  <note>
    B
  </note>
  <anchor x="266.0" y="0.0" name="bottom"/>
  <anchor x="266.0" y="587.0" name="top"/>
  <outline>
    <contour>
      <point x="111.0" y="45.0" type="curve"/>
      <point x="51.0" y="32.0" type="line"/>
      <point x="53.0" y="0.0" type="line"/>
      <point x="250.0" y="0.0" type="line" smooth="yes"/>
      <point x="397.0" y="0.0"/>
      <point x="493.0" y="66.0"/>
      <point x="493.0" y="168.0" type="curve" smooth="yes"/>
      <point x="493.0" y="260.0"/>
      <point x="424.0" y="313.0"/>
      <point x="295.0" y="316.0" type="curve"/>
      <point x="315.0" y="309.0" type="line"/>
      <point x="402.0" y="317.0"/>
      <point x="463.0" y="373.0"/>
      <point x="463.0" y="446.0" type="curve" smooth="yes"/>
      <point x="463.0" y="536.0"/>
      <point x="393.0" y="587.0"/>
      <point x="269.0" y="587.0" type="curve" smooth="yes"/>
      <point x="53.0" y="587.0" type="line"/>
      <point x="51.0" y="553.0" type="line"/>
      <point x="111.0" y="546.0" type="line"/>
      <point x="114.0" y="538.0"/>
      <point x="117.0" y="486.0"/>
      <point x="117.0" y="397.0" type="curve" smooth="yes"/>
      <point x="117.0" y="189.0" type="line" smooth="yes"/>
      <point x="117.0" y="109.0"/>
      <point x="114.0" y="56.0"/>
    </contour>
    <contour>
      <point x="177.0" y="177.0" type="curve" smooth="yes"/>
      <point x="177.0" y="415.0" type="line" smooth="yes"/>
      <point x="177.0" y="478.0"/>
      <point x="178.0" y="540.0"/>
      <point x="179.0" y="549.0" type="curve"/>
      <point x="260.0" y="549.0" type="line" smooth="yes"/>
      <point x="347.0" y="549.0"/>
      <point x="398.0" y="511.0"/>
      <point x="398.0" y="438.0" type="curve" smooth="yes"/>
      <point x="398.0" y="364.0"/>
      <point x="342.0" y="322.0"/>
      <point x="246.0" y="322.0" type="curve" smooth="yes"/>
      <point x="215.0" y="322.0"/>
      <point x="191.0" y="323.0"/>
      <point x="162.0" y="325.0" type="curve"/>
      <point x="162.0" y="280.0" type="line"/>
      <point x="174.0" y="282.0"/>
      <point x="185.0" y="282.0"/>
      <point x="250.0" y="282.0" type="curve" smooth="yes"/>
      <point x="367.0" y="282.0"/>
      <point x="428.0" y="240.0"/>
      <point x="428.0" y="159.0" type="curve" smooth="yes"/>
      <point x="428.0" y="77.0"/>
      <point x="372.0" y="40.0"/>
      <point x="253.0" y="40.0" type="curve" smooth="yes"/>
      <point x="237.0" y="40.0"/>
      <point x="197.0" y="44.0"/>
      <point x="180.0" y="47.0" type="curve"/>
      <point x="178.0" y="57.0"/>
      <point x="177.0" y="115.0"/>
    </contour>
  </outline>
</glyph>
<glyph name="C" format="2">
  <advance width="596.0"/>
  <unicode hex="0043"/>
  <note>
    C
  </note>
  <anchor x="348.0" y="0.0" name="bottom"/>
  <anchor x="348.0" y="587.0" name="top"/>
  <outline>
    <contour>
      <point x="365.0" y="-9.0" type="curve" smooth="yes"/>
      <point x="431.0" y="-9.0"/>
      <point x="489.0" y="9.0"/>
      <point x="538.0" y="32.0" type="curve"/>
      <point x="565.0" y="154.0" type="line"/>
      <point x="530.0" y="158.0" type="line"/>
      <point x="481.0" y="62.0" type="line"/>
      <point x="445.0" y="44.0"/>
      <point x="416.0" y="36.0"/>
      <point x="369.0" y="36.0" type="curve" smooth="yes"/>
      <point x="239.0" y="36.0"/>
      <point x="134.0" y="128.0"/>
      <point x="134.0" y="306.0" type="curve" smooth="yes"/>
      <point x="134.0" y="432.0"/>
      <point x="199.0" y="552.0"/>
      <point x="366.0" y="552.0" type="curve" smooth="yes"/>
      <point x="406.0" y="552.0"/>
      <point x="460.0" y="543.0"/>
      <point x="486.0" y="523.0" type="curve"/>
      <point x="513.0" y="433.0" type="line"/>
      <point x="550.0" y="437.0" type="line"/>
      <point x="543.0" y="566.0" type="line"/>
      <point x="492.0" y="586.0"/>
      <point x="425.0" y="596.0"/>
      <point x="375.0" y="596.0" type="curve" smooth="yes"/>
      <point x="164.0" y="596.0"/>
      <point x="56.0" y="447.0"/>
      <point x="56.0" y="292.0" type="curve" smooth="yes"/>
      <point x="56.0" y="89.0"/>
      <point x="202.0" y="-9.0"/>
    </contour>
  </outline>
</glyph>
<glyph name="I" format="2">
  <advance width="295.0"/>
  <unicode hex="0049"/>
  <note>
    I
  </note>
  <anchor x="148.0" y="0.0" name="bottom"/>
  <anchor x="197.0" y="0.0" name="ogonek"/>
  <anchor x="148.0" y="587.0" name="top"/>
  <anchor x="25.0" y="587.0" name="topleft"/>
  <outline>
    <contour>
      <point x="56.0" y="0.0" type="line"/>
      <point x="241.0" y="0.0" type="line"/>
      <point x="243.0" y="32.0" type="line"/>
      <point x="183.0" y="45.0" type="line"/>
      <point x="180.0" y="52.0"/>
      <point x="178.0" y="84.0"/>
      <point x="178.0" y="189.0" type="curve" smooth="yes"/>
      <point x="178.0" y="397.0" type="line" smooth="yes"/>
      <point x="178.0" y="504.0"/>
      <point x="180.0" y="535.0"/>
      <point x="183.0" y="542.0" type="curve"/>
      <point x="243.0" y="555.0" type="line"/>
      <point x="241.0" y="587.0" type="line"/>
      <point x="56.0" y="587.0" type="line"/>
      <point x="54.0" y="555.0" type="line"/>
      <point x="114.0" y="542.0" type="line"/>
      <point x="116.0" y="533.0"/>
      <point x="117.0" y="490.0"/>
      <point x="117.0" y="397.0" type="curve" smooth="yes"/>
      <point x="117.0" y="189.0" type="line" smooth="yes"/>
      <point x="117.0" y="97.0"/>
      <point x="116.0" y="55.0"/>
      <point x="114.0" y="45.0" type="curve"/>
      <point x="54.0" y="32.0" type="line"/>
    </contour>
  </outline>
</glyph>
<glyph name="N" format="2">
  <advance width="665.0"/>
  <unicode hex="004E"/>
  <note>
    N
  </note>
  <anchor x="333.0" y="0.0" name="bottom"/>
  <anchor x="333.0" y="587.0" name="top"/>
  <outline>
    <contour>
      <point x="500.0" y="121.0" type="line"/>
      <point x="507.0" y="121.0" type="line"/>
      <point x="182.0" y="587.0" type="line"/>
      <point x="55.0" y="587.0" type="line"/>
      <point x="53.0" y="555.0" type="line"/>
      <point x="113.0" y="542.0" type="line"/>
      <point x="116.0" y="526.0"/>
      <point x="118.0" y="499.0"/>
      <point x="118.0" y="394.0" type="curve" smooth="yes"/>
      <point x="118.0" y="204.0" type="line" smooth="yes"/>
      <point x="118.0" y="76.0"/>
      <point x="114.0" y="50.0"/>
      <point x="113.0" y="45.0" type="curve"/>
      <point x="53.0" y="32.0" type="line"/>
      <point x="55.0" y="0.0" type="line"/>
      <point x="237.0" y="0.0" type="line"/>
      <point x="239.0" y="32.0" type="line"/>
      <point x="172.0" y="45.0" type="line"/>
      <point x="171.0" y="50.0"/>
      <point x="166.0" y="79.0"/>
      <point x="166.0" y="204.0" type="curve" smooth="yes"/>
      <point x="166.0" y="507.0" type="line"/>
      <point x="159.0" y="507.0" type="line"/>
      <point x="512.0" y="-4.0" type="line"/>
      <point x="548.0" y="-4.0" type="line"/>
      <point x="547.0" y="43.0"/>
      <point x="547.0" y="87.0"/>
      <point x="547.0" y="120.0" type="curve" smooth="yes"/>
      <point x="547.0" y="381.0" type="line" smooth="yes"/>
      <point x="547.0" y="507.0"/>
      <point x="551.0" y="537.0"/>
      <point x="552.0" y="542.0" type="curve"/>
      <point x="612.0" y="555.0" type="line"/>
      <point x="610.0" y="587.0" type="line"/>
      <point x="430.0" y="587.0" type="line"/>
      <point x="428.0" y="555.0" type="line"/>
      <point x="495.0" y="542.0" type="line"/>
      <point x="496.0" y="537.0"/>
      <point x="500.0" y="508.0"/>
      <point x="500.0" y="381.0" type="curve" smooth="yes"/>
    </contour>
  </outline>
</glyph>
<glyph name="P" format="2">
  <advance width="490.0"/>
  <unicode hex="0050"/>
  <note>
    P
  </note>
  <anchor x="149.0" y="0.0" name="bottom"/>
  <anchor x="239.0" y="587.0" name="top"/>
  <outline>
    <contour>
      <point x="59.0" y="0.0" type="line"/>
      <point x="263.0" y="0.0" type="line"/>
      <point x="265.0" y="34.0" type="line"/>
      <point x="181.0" y="47.0" type="line"/>
      <point x="180.0" y="56.0"/>
      <point x="178.0" y="70.0"/>
      <point x="178.0" y="184.0" type="curve"/>
      <point x="177.0" y="407.0" type="line"/>
      <point x="177.0" y="466.0"/>
      <point x="178.0" y="537.0"/>
      <point x="179.0" y="549.0" type="curve"/>
      <point x="244.0" y="549.0" type="line" smooth="yes"/>
      <point x="319.0" y="549.0"/>
      <point x="378.0" y="504.0"/>
      <point x="378.0" y="407.0" type="curve" smooth="yes"/>
      <point x="378.0" y="320.0"/>
      <point x="326.0" y="284.0"/>
      <point x="241.0" y="284.0" type="curve" smooth="yes"/>
      <point x="220.0" y="284.0"/>
      <point x="198.0" y="286.0"/>
      <point x="162.0" y="296.0" type="curve"/>
      <point x="162.0" y="250.0" type="line"/>
      <point x="185.0" y="246.0"/>
      <point x="211.0" y="242.0"/>
      <point x="245.0" y="242.0" type="curve" smooth="yes"/>
      <point x="345.0" y="242.0"/>
      <point x="442.0" y="307.0"/>
      <point x="442.0" y="419.0" type="curve" smooth="yes"/>
      <point x="442.0" y="527.0"/>
      <point x="366.0" y="587.0"/>
      <point x="249.0" y="587.0" type="curve" smooth="yes"/>
      <point x="56.0" y="587.0" type="line"/>
      <point x="54.0" y="555.0" type="line"/>
      <point x="114.0" y="539.0" type="line"/>
      <point x="115.0" y="534.0"/>
      <point x="118.0" y="517.0"/>
      <point x="118.0" y="407.0" type="curve"/>
      <point x="117.0" y="184.0" type="line"/>
      <point x="117.0" y="70.0"/>
      <point x="115.0" y="52.0"/>
      <point x="114.0" y="45.0" type="curve"/>
      <point x="57.0" y="32.0" type="line"/>
    </contour>
  </outline>
</glyph>
<glyph name="T" format="2">
  <advance width="532.0"/>
  <unicode hex="0054"/>
  <note>
    T
  </note>
  <anchor x="267.0" y="0.0" name="bottom"/>
  <anchor x="266.0" y="303.0" name="stroke"/>
  <anchor x="266.0" y="587.0" name="top"/>
  <outline>
    <contour>
      <point x="492.0" y="591.0" type="line"/>
      <point x="458.0" y="588.0"/>
      <point x="445.0" y="587.0"/>
      <point x="416.0" y="587.0" type="curve" smooth="yes"/>
      <point x="115.0" y="587.0" type="line" smooth="yes"/>
      <point x="86.0" y="587.0"/>
      <point x="72.0" y="588.0"/>
      <point x="39.0" y="591.0" type="curve"/>
      <point x="17.0" y="436.0" type="line"/>
      <point x="53.0" y="430.0" type="line"/>
      <point x="97.0" y="543.0" type="line"/>
      <point x="105.0" y="545.0"/>
      <point x="118.0" y="546.0"/>
      <point x="127.0" y="546.0" type="curve" smooth="yes"/>
      <point x="167.0" y="546.0" type="line" smooth="yes"/>
      <point x="182.0" y="546.0"/>
      <point x="212.0" y="546.0"/>
      <point x="234.0" y="545.0" type="curve"/>
      <point x="235.0" y="528.0"/>
      <point x="235.0" y="437.0"/>
      <point x="235.0" y="372.0" type="curve" smooth="yes"/>
      <point x="235.0" y="217.0" type="line" smooth="yes"/>
      <point x="235.0" y="127.0"/>
      <point x="233.0" y="59.0"/>
      <point x="233.0" y="45.0" type="curve"/>
      <point x="150.0" y="34.0" type="line"/>
      <point x="152.0" y="0.0" type="line"/>
      <point x="380.0" y="0.0" type="line"/>
      <point x="382.0" y="34.0" type="line"/>
      <point x="299.0" y="45.0" type="line"/>
      <point x="299.0" y="59.0"/>
      <point x="297.0" y="127.0"/>
      <point x="297.0" y="217.0" type="curve" smooth="yes"/>
      <point x="297.0" y="372.0" type="line" smooth="yes"/>
      <point x="297.0" y="437.0"/>
      <point x="297.0" y="528.0"/>
      <point x="298.0" y="545.0" type="curve"/>
      <point x="320.0" y="546.0"/>
      <point x="351.0" y="546.0"/>
      <point x="365.0" y="546.0" type="curve" smooth="yes"/>
      <point x="402.0" y="546.0" type="line" smooth="yes"/>
      <point x="411.0" y="546.0"/>
      <point x="427.0" y="545.0"/>
      <point x="435.0" y="543.0" type="curve"/>
      <point x="478.0" y="431.0" type="line"/>
      <point x="514.0" y="436.0" type="line"/>
    </contour>
  </outline>
</glyph>
<glyph name="W" format="2">
  <advance width="925.0"/>
  <unicode hex="0057"/>
  <note>
    W
  </note>
  <anchor x="462.0" y="0.0" name="bottom"/>
  <anchor x="462.0" y="587.0" name="top"/>
  <outline>
    <contour>
      <point x="484.0" y="462.0" type="line"/>
      <point x="462.0" y="539.0" type="line"/>
      <point x="293.0" y="83.0" type="line"/>
      <point x="299.0" y="83.0" type="line"/>
      <point x="133.0" y="543.0" type="line"/>
      <point x="183.0" y="555.0" type="line"/>
      <point x="181.0" y="587.0" type="line"/>
      <point x="14.0" y="587.0" type="line"/>
      <point x="12.0" y="555.0" type="line"/>
      <point x="62.0" y="542.0" type="line"/>
      <point x="263.0" y="-3.0" type="line"/>
      <point x="301.0" y="-3.0" type="line"/>
    </contour>
    <contour>
      <point x="619.0" y="-3.0" type="line"/>
      <point x="657.0" y="-3.0" type="line"/>
      <point x="867.0" y="542.0" type="line"/>
      <point x="917.0" y="555.0" type="line"/>
      <point x="915.0" y="587.0" type="line"/>
      <point x="740.0" y="587.0" type="line"/>
      <point x="738.0" y="555.0" type="line"/>
      <point x="809.0" y="542.0" type="line"/>
      <point x="646.0" y="83.0" type="line"/>
      <point x="655.0" y="83.0" type="line"/>
      <point x="493.0" y="543.0" type="line"/>
      <point x="552.0" y="555.0" type="line"/>
      <point x="550.0" y="587.0" type="line"/>
      <point x="375.0" y="587.0" type="line"/>
      <point x="373.0" y="555.0" type="line"/>
      <point x="423.0" y="542.0" type="line"/>
    </contour>
  </outline>
</glyph>
<glyph name="Y" format="2">
  <advance width="522.0"/>
  <unicode hex="0059"/>
  <note>
    Y
  </note>
  <anchor x="261.0" y="0.0" name="bottom"/>
  <anchor x="261.0" y="587.0" name="top"/>
  <anchor x="21.0" y="587.0" name="topleft"/>
  <outline>
    <contour>
      <point x="476.0" y="542.0" type="line"/>
      <point x="526.0" y="555.0" type="line"/>
      <point x="525.0" y="587.0" type="line"/>
      <point x="350.0" y="587.0" type="line"/>
      <point x="348.0" y="555.0" type="line"/>
      <point x="418.0" y="542.0" type="line"/>
      <point x="270.0" y="297.0" type="line"/>
      <point x="279.0" y="297.0" type="line"/>
      <point x="122.0" y="542.0" type="line"/>
      <point x="182.0" y="555.0" type="line"/>
      <point x="180.0" y="587.0" type="line"/>
      <point x="-1.0" y="587.0" type="line"/>
      <point x="-2.0" y="555.0" type="line"/>
      <point x="48.0" y="542.0" type="line"/>
      <point x="245.0" y="235.0" type="line"/>
      <point x="231.0" y="287.0" type="line"/>
      <point x="231.0" y="195.0" type="line" smooth="yes"/>
      <point x="231.0" y="70.0"/>
      <point x="228.0" y="52.0"/>
      <point x="227.0" y="45.0" type="curve"/>
      <point x="157.0" y="33.0" type="line"/>
      <point x="159.0" y="0.0" type="line"/>
      <point x="362.0" y="0.0" type="line"/>
      <point x="364.0" y="33.0" type="line"/>
      <point x="294.0" y="45.0" type="line"/>
      <point x="294.0" y="52.0"/>
      <point x="291.0" y="70.0"/>
      <point x="291.0" y="195.0" type="curve" smooth="yes"/>
      <point x="291.0" y="287.0" type="line"/>
      <point x="275.0" y="235.0" type="line"/>
    </contour>
  </outline>
</glyph>
<glyph name="backslash" format="2">
  <advance width="342.0"/>
  <unicode hex="005C"/>
  <note>
    backslash
  </note>
  <outline>
    <contour>
      <point x="327.0" y="-180.0" type="line"/>
      <point x="26.0" y="728.0" type="line"/>
      <point x="-25.0" y="728.0" type="line"/>
      <point x="276.0" y="-180.0" type="line"/>
    </contour>
  </outline>
</glyph>
<glyph name="bracketright" format="2">
  <advance width="314.0"/>
  <unicode hex="005D"/>
  <note>
    bracketright
  </note>
  <outline>
    <contour>
      <point x="52.0" y="-220.0" type="line"/>
      <point x="202.0" y="-220.0" type="line"/>
      <point x="202.0" y="722.0" type="line"/>
      <point x="52.0" y="722.0" type="line"/>
      <point x="52.0" y="681.0" type="line"/>
      <point x="145.0" y="681.0" type="line"/>
      <point x="145.0" y="-179.0" type="line"/>
      <point x="52.0" y="-179.0" type="line"/>
    </contour>
  </outline>
</glyph>
<glyph name="b" format="2">
  <advance width="512.0"/>
  <unicode hex="0062"/>
  <note>
    b
  </note>
  <anchor x="257.0" y="0.0" name="bottom"/>
  <anchor x="257.0" y="660.0" name="top"/>
  <outline>
    <contour>
      <point x="85.0" y="26.0" type="curve"/>
      <point x="120.0" y="7.0"/>
      <point x="179.0" y="-8.0"/>
      <point x="233.0" y="-8.0" type="curve" smooth="yes"/>
      <point x="353.0" y="-8.0"/>
      <point x="468.0" y="83.0"/>
      <point x="468.0" y="228.0" type="curve" smooth="yes"/>
      <point x="468.0" y="359.0"/>
      <point x="383.0" y="433.0"/>
      <point x="284.0" y="433.0" type="curve" smooth="yes"/>
      <point x="224.0" y="433.0"/>
      <point x="173.0" y="405.0"/>
      <point x="139.0" y="357.0" type="curve"/>
      <point x="136.0" y="358.0" type="line"/>
      <point x="138.0" y="522.0"/>
      <point x="138.0" y="596.0"/>
      <point x="140.0" y="680.0" type="curve"/>
      <point x="125.0" y="692.0" type="line"/>
      <point x="7.0" y="655.0" type="line"/>
      <point x="9.0" y="629.0" type="line"/>
      <point x="83.0" y="619.0" type="line"/>
      <point x="84.0" y="595.0"/>
      <point x="86.0" y="440.0"/>
      <point x="86.0" y="364.0" type="curve"/>
      <point x="86.0" y="167.0" type="line"/>
      <point x="86.0" y="118.0"/>
      <point x="86.0" y="96.0"/>
    </contour>
    <contour>
      <point x="254.0" y="32.0" type="curve" smooth="yes"/>
      <point x="202.0" y="32.0"/>
      <point x="167.0" y="45.0"/>
      <point x="137.0" y="65.0" type="curve"/>
      <point x="137.0" y="317.0" type="line"/>
      <point x="169.0" y="362.0"/>
      <point x="214.0" y="383.0"/>
      <point x="259.0" y="383.0" type="curve" smooth="yes"/>
      <point x="343.0" y="383.0"/>
      <point x="407.0" y="327.0"/>
      <point x="405.0" y="215.0" type="curve" smooth="yes"/>
      <point x="403.0" y="102.0"/>
      <point x="340.0" y="32.0"/>
    </contour>
  </outline>
</glyph>
<glyph name="c" format="2">
  <advance width="408.0"/>
  <unicode hex="0063"/>
  <note>
    c
  </note>
  <anchor x="241.0" y="0.0" name="bottom"/>
  <anchor x="241.0" y="425.0" name="top"/>
  <outline>
    <contour>
      <point x="259.0" y="433.0" type="curve" smooth="yes"/>
      <point x="139.0" y="433.0"/>
      <point x="44.0" y="338.0"/>
      <point x="44.0" y="206.0" type="curve" smooth="yes"/>
      <point x="44.0" y="67.0"/>
      <point x="135.0" y="-8.0"/>
      <point x="242.0" y="-8.0" type="curve" smooth="yes"/>
      <point x="314.0" y="-8.0"/>
      <point x="365.0" y="22.0"/>
      <point x="403.0" y="85.0" type="curve"/>
      <point x="379.0" y="105.0" type="line"/>
      <point x="346.0" y="63.0"/>
      <point x="313.0" y="45.0"/>
      <point x="256.0" y="45.0" type="curve" smooth="yes"/>
      <point x="172.0" y="45.0"/>
      <point x="108.0" y="106.0"/>
      <point x="108.0" y="216.0" type="curve" smooth="yes"/>
      <point x="108.0" y="356.0"/>
      <point x="186.48983647817613" y="397.555"/>
      <point x="275.955" y="397.555" type="curve" smooth="yes"/>
      <point x="290.49862296678515" y="397.555"/>
      <point x="298.628" y="391.7"/>
      <point x="301.086" y="382.276" type="curve" smooth="yes"/>
      <point x="304.575" y="368.903"/>
      <point x="304.543" y="349.069"/>
      <point x="304.963" y="334.016" type="curve"/>
      <point x="313.878" y="329.171"/>
      <point x="326.405" y="326.186"/>
      <point x="335.934" y="326.186" type="curve" smooth="yes"/>
      <point x="370.123" y="326.186"/>
      <point x="384.572" y="345.737"/>
      <point x="384.572" y="366.06" type="curve" smooth="yes"/>
      <point x="384.572" y="396.613"/>
      <point x="346.0" y="433.0"/>
    </contour>
  </outline>
</glyph>
<glyph name="k" format="2">
  <advance width="457.0"/>
  <unicode hex="006B"/>
  <note>
    k
  </note>
  <anchor x="250.0" y="0.0" name="bottom"/>
  <anchor x="127.0" y="660.0" name="top"/>
  <outline>
    <contour>
      <point x="43.0" y="0.0" type="line"/>
      <point x="216.0" y="0.0" type="line"/>
      <point x="218.0" y="31.0" type="line"/>
      <point x="156.0" y="45.0" type="line"/>
      <point x="155.0" y="54.0"/>
      <point x="152.0" y="84.0"/>
      <point x="152.0" y="137.0" type="curve"/>
      <point x="153.0" y="391.0" type="line"/>
      <point x="153.0" y="495.0"/>
      <point x="154.0" y="584.0"/>
      <point x="156.0" y="680.0" type="curve"/>
      <point x="141.0" y="692.0" type="line"/>
      <point x="22.0" y="655.0" type="line"/>
      <point x="24.0" y="629.0" type="line"/>
      <point x="98.0" y="619.0" type="line"/>
      <point x="99.0" y="606.0"/>
      <point x="102.0" y="466.0"/>
      <point x="102.0" y="364.0" type="curve" smooth="yes"/>
      <point x="102.0" y="211.0" type="line" smooth="yes"/>
      <point x="102.0" y="112.0"/>
      <point x="99.0" y="63.0"/>
      <point x="98.0" y="45.0" type="curve"/>
      <point x="41.0" y="31.0" type="line"/>
    </contour>
    <contour>
      <point x="459.0" y="0.0" type="line"/>
      <point x="461.0" y="32.0" type="line"/>
      <point x="402.0" y="42.0" type="line"/>
      <point x="383.0" y="59.0"/>
      <point x="356.0" y="87.0"/>
      <point x="344.0" y="100.0" type="curve" smooth="yes"/>
      <point x="208.0" y="241.0" type="line"/>
      <point x="190.0" y="209.0" type="line"/>
      <point x="375.0" y="381.0" type="line"/>
      <point x="441.0" y="393.0" type="line"/>
      <point x="439.0" y="425.0" type="line"/>
      <point x="248.0" y="425.0" type="line"/>
      <point x="246.0" y="393.0" type="line"/>
      <point x="312.0" y="381.0" type="line"/>
      <point x="179.0" y="243.0" type="line"/>
      <point x="136.0" y="231.0" type="line"/>
      <point x="135.0" y="213.0" type="line"/>
      <point x="165.0" y="213.0" type="line"/>
      <point x="314.0" y="55.0" type="line" smooth="yes"/>
      <point x="326.0" y="43.0"/>
      <point x="335.0" y="34.0"/>
      <point x="360.0" y="0.0" type="curve"/>
    </contour>
  </outline>
</glyph>
<glyph name="p" format="2">
  <advance width="524.0"/>
  <unicode hex="0070"/>
  <note>
    p
  </note>
  <anchor x="263.0" y="425.0" name="top"/>
  <outline>
    <contour>
      <point x="36.0" y="-220.0" type="line"/>
      <point x="236.0" y="-220.0" type="line"/>
      <point x="238.0" y="-186.0" type="line"/>
      <point x="156.0" y="-175.0" type="line"/>
      <point x="154.0" y="-154.0"/>
      <point x="152.0" y="-123.0"/>
      <point x="152.0" y="-68.0" type="curve" smooth="yes"/>
      <point x="152.0" y="13.0" type="line"/>
      <point x="182.0" y="1.0"/>
      <point x="224.0" y="-7.0"/>
      <point x="260.0" y="-7.0" type="curve" smooth="yes"/>
      <point x="380.0" y="-7.0"/>
      <point x="479.0" y="86.0"/>
      <point x="479.0" y="220.0" type="curve" smooth="yes"/>
      <point x="479.0" y="338.0"/>
      <point x="404.0" y="433.0"/>
      <point x="287.0" y="433.0" type="curve" smooth="yes"/>
      <point x="236.0" y="433.0"/>
      <point x="194.0" y="412.0"/>
      <point x="154.0" y="364.0" type="curve"/>
      <point x="151.0" y="364.0" type="line"/>
      <point x="155.0" y="417.0" type="line"/>
      <point x="143.0" y="431.0" type="line"/>
      <point x="30.0" y="399.0" type="line"/>
      <point x="30.0" y="371.0" type="line"/>
      <point x="94.0" y="357.0" type="line"/>
      <point x="96.0" y="338.0"/>
      <point x="101.0" y="283.0"/>
      <point x="101.0" y="242.0" type="curve" smooth="yes"/>
      <point x="99.0" y="-28.0" type="line" smooth="yes"/>
      <point x="98.0" y="-123.0"/>
      <point x="97.0" y="-162.0"/>
      <point x="96.0" y="-175.0" type="curve"/>
      <point x="34.0" y="-189.0" type="line"/>
    </contour>
    <contour>
      <point x="265.0" y="31.0" type="curve" smooth="yes"/>
      <point x="223.0" y="31.0"/>
      <point x="181.0" y="44.0"/>
      <point x="152.0" y="67.0" type="curve"/>
      <point x="152.0" y="316.0" type="line"/>
      <point x="186.0" y="360.0"/>
      <point x="225.0" y="383.0"/>
      <point x="275.0" y="383.0" type="curve" smooth="yes"/>
      <point x="361.0" y="383.0"/>
      <point x="417.0" y="299.0"/>
      <point x="416.0" y="207.0" type="curve" smooth="yes"/>
      <point x="414.0" y="98.0"/>
      <point x="353.0" y="31.0"/>
    </contour>
  </outline>
</glyph>
<glyph name="q" format="2">
  <advance width="514.0"/>
  <unicode hex="0071"/>
  <note>
    q
  </note>
  <anchor x="268.0" y="425.0" name="top"/>
  <outline>
    <contour>
      <point x="305.0" y="-220.0" type="line"/>
      <point x="495.0" y="-220.0" type="line"/>
      <point x="497.0" y="-189.0" type="line"/>
      <point x="435.0" y="-175.0" type="line"/>
      <point x="434.0" y="-157.0"/>
      <point x="432.0" y="-116.0"/>
      <point x="431.0" y="-28.0" type="curve" smooth="yes"/>
      <point x="428.0" y="191.0" type="line" smooth="yes"/>
      <point x="427.0" y="298.0"/>
      <point x="427.0" y="355.0"/>
      <point x="431.0" y="430.0" type="curve"/>
      <point x="403.0" y="430.0" type="line"/>
      <point x="379.0" y="405.0" type="line"/>
      <point x="345.0" y="423.0"/>
      <point x="303.0" y="434.0"/>
      <point x="262.0" y="434.0" type="curve" smooth="yes"/>
      <point x="160.0" y="434.0"/>
      <point x="45.0" y="353.0"/>
      <point x="45.0" y="198.0" type="curve" smooth="yes"/>
      <point x="45.0" y="79.0"/>
      <point x="118.0" y="-7.0"/>
      <point x="241.0" y="-7.0" type="curve" smooth="yes"/>
      <point x="290.0" y="-7.0"/>
      <point x="335.0" y="17.0"/>
      <point x="373.0" y="66.0" type="curve"/>
      <point x="376.0" y="65.0" type="line"/>
      <point x="377.0" y="-59.0" type="line" smooth="yes"/>
      <point x="377.0" y="-132.0"/>
      <point x="376.0" y="-146.0"/>
      <point x="375.0" y="-175.0" type="curve"/>
      <point x="303.0" y="-189.0" type="line"/>
    </contour>
    <contour>
      <point x="255.0" y="46.0" type="curve" smooth="yes"/>
      <point x="166.0" y="46.0"/>
      <point x="108.0" y="110.0"/>
      <point x="108.0" y="219.0" type="curve" smooth="yes"/>
      <point x="108.0" y="340.0"/>
      <point x="181.0" y="397.0"/>
      <point x="256.0" y="397.0" type="curve" smooth="yes"/>
      <point x="298.0" y="397.0"/>
      <point x="348.0" y="379.0"/>
      <point x="376.0" y="336.0" type="curve"/>
      <point x="375.0" y="110.0" type="line"/>
      <point x="332.0" y="60.0"/>
      <point x="304.0" y="46.0"/>
    </contour>
  </outline>
</glyph>
<glyph name="w" format="2">
  <advance width="724.0"/>
  <unicode hex="0077"/>
  <note>
    w
  </note>
  <anchor x="361.0" y="0.0" name="bottom"/>
  <anchor x="370.0" y="425.0" name="top"/>
  <outline>
    <contour>
      <point x="488.0" y="-4.0" type="line"/>
      <point x="511.0" y="-4.0" type="line"/>
      <point x="674.0" y="380.0" type="line"/>
      <point x="721.0" y="394.0" type="line"/>
      <point x="719.0" y="425.0" type="line"/>
      <point x="571.0" y="425.0" type="line"/>
      <point x="569.0" y="394.0" type="line"/>
      <point x="621.0" y="380.0" type="line"/>
      <point x="497.0" y="46.0" type="line"/>
      <point x="521.0" y="47.0" type="line"/>
      <point x="398.0" y="380.0" type="line"/>
      <point x="450.0" y="394.0" type="line"/>
      <point x="448.0" y="425.0" type="line"/>
      <point x="293.0" y="425.0" type="line"/>
      <point x="291.0" y="394.0" type="line"/>
      <point x="343.0" y="380.0" type="line"/>
    </contour>
    <contour>
      <point x="209.0" y="-4.0" type="line"/>
      <point x="233.0" y="-4.0" type="line"/>
      <point x="379.0" y="334.0" type="line"/>
      <point x="357.0" y="393.0" type="line"/>
      <point x="219.0" y="46.0" type="line"/>
      <point x="247.0" y="47.0" type="line"/>
      <point x="116.0" y="380.0" type="line"/>
      <point x="168.0" y="394.0" type="line"/>
      <point x="166.0" y="425.0" type="line"/>
      <point x="9.0" y="425.0" type="line"/>
      <point x="7.0" y="394.0" type="line"/>
      <point x="54.0" y="380.0" type="line"/>
    </contour>
  </outline>
</glyph>
<glyph name="x" format="2">
  <advance width="466.0"/>
  <unicode hex="0078"/>
  <note>
    x
  </note>
  <anchor x="231.0" y="0.0" name="bottom"/>
  <anchor x="231.0" y="425.0" name="top"/>
  <outline>
    <contour>
      <point x="441.0" y="0.0" type="line"/>
      <point x="443.0" y="31.0" type="line"/>
      <point x="396.0" y="45.0" type="line"/>
      <point x="262.0" y="226.0" type="line"/>
      <point x="240.0" y="252.0" type="line"/>
      <point x="147.0" y="380.0" type="line"/>
      <point x="189.0" y="394.0" type="line"/>
      <point x="187.0" y="425.0" type="line"/>
      <point x="36.0" y="425.0" type="line"/>
      <point x="34.0" y="394.0" type="line"/>
      <point x="81.0" y="380.0" type="line"/>
      <point x="205.0" y="215.0" type="line"/>
      <point x="228.0" y="189.0" type="line"/>
      <point x="333.0" y="45.0" type="line"/>
      <point x="286.0" y="31.0" type="line"/>
      <point x="288.0" y="0.0" type="line"/>
    </contour>
    <contour>
      <point x="332.0" y="380.0" type="line"/>
      <point x="240.0" y="252.0" type="line"/>
      <point x="205.0" y="215.0" type="line"/>
      <point x="77.0" y="45.0" type="line"/>
      <point x="30.0" y="31.0" type="line"/>
      <point x="32.0" y="0.0" type="line"/>
      <point x="169.0" y="0.0" type="line"/>
      <point x="171.0" y="31.0" type="line"/>
      <point x="124.0" y="45.0" type="line"/>
      <point x="228.0" y="189.0" type="line"/>
      <point x="262.0" y="226.0" type="line"/>
      <point x="380.0" y="380.0" type="line"/>
      <point x="426.0" y="394.0" type="line"/>
      <point x="424.0" y="425.0" type="line"/>
      <point x="292.0" y="425.0" type="line"/>
      <point x="290.0" y="394.0" type="line"/>
    </contour>
  </outline>
</glyph>
<glyph name="braceright" format="2">
  <advance width="363.0"/>
  <unicode hex="007D"/>
  <note>
    braceright
  </note>
  <outline>
    <contour>
      <point x="175.0" y="-84.0" type="curve" smooth="yes"/>
      <point x="175.0" y="-140.0"/>
      <point x="146.0" y="-175.0"/>
      <point x="64.0" y="-194.0" type="curve"/>
      <point x="70.0" y="-228.0" type="line"/>
      <point x="180.0" y="-210.0"/>
      <point x="225.0" y="-155.0"/>
      <point x="225.0" y="-75.0" type="curve" smooth="yes"/>
      <point x="225.0" y="-1.0"/>
      <point x="178.0" y="86.0"/>
      <point x="178.0" y="150.0" type="curve" smooth="yes"/>
      <point x="178.0" y="204.0"/>
      <point x="219.0" y="231.0"/>
      <point x="284.0" y="234.0" type="curve"/>
      <point x="284.0" y="268.0" type="line"/>
      <point x="219.0" y="271.0"/>
      <point x="178.0" y="298.0"/>
      <point x="178.0" y="352.0" type="curve" smooth="yes"/>
      <point x="178.0" y="416.0"/>
      <point x="225.0" y="503.0"/>
      <point x="225.0" y="577.0" type="curve" smooth="yes"/>
      <point x="225.0" y="657.0"/>
      <point x="180.0" y="712.0"/>
      <point x="70.0" y="730.0" type="curve"/>
      <point x="64.0" y="696.0" type="line"/>
      <point x="146.0" y="677.0"/>
      <point x="175.0" y="642.0"/>
      <point x="175.0" y="586.0" type="curve" smooth="yes"/>
      <point x="175.0" y="511.0"/>
      <point x="131.0" y="446.0"/>
      <point x="131.0" y="366.0" type="curve" smooth="yes"/>
      <point x="131.0" y="306.0"/>
      <point x="162.0" y="257.0"/>
      <point x="244.0" y="245.0" type="curve"/>
      <point x="244.0" y="259.0" type="line"/>
      <point x="165.0" y="247.0"/>
      <point x="131.0" y="199.0"/>
      <point x="131.0" y="136.0" type="curve" smooth="yes"/>
      <point x="131.0" y="56.0"/>
      <point x="175.0" y="-9.0"/>
    </contour>
  </outline>
</glyph>
<glyph name="asciitilde" format="2">
  <advance width="540.0"/>
  <unicode hex="007E"/>
  <outline>
    <contour>
      <point x="463.0" y="294.0" type="line"/>
      <point x="444.0" y="261.0"/>
      <point x="420.0" y="242.0"/>
      <point x="386.0" y="242.0" type="curve" smooth="yes"/>
      <point x="331.0" y="242.0"/>
      <point x="246.0" y="316.0"/>
      <point x="167.0" y="316.0" type="curve" smooth="yes"/>
      <point x="116.0" y="316.0"/>
      <point x="76.0" y="284.0"/>
      <point x="53.0" y="228.0" type="curve"/>
      <point x="77.0" y="212.0" type="line"/>
      <point x="94.0" y="246.0"/>
      <point x="121.0" y="265.0"/>
      <point x="154.0" y="265.0" type="curve" smooth="yes"/>
      <point x="209.0" y="265.0"/>
      <point x="294.0" y="190.0"/>
      <point x="373.0" y="190.0" type="curve" smooth="yes"/>
      <point x="424.0" y="190.0"/>
      <point x="464.0" y="222.0"/>
      <point x="487.0" y="278.0" type="curve"/>
    </contour>
  </outline>
</glyph>
<glyph name="sterling" format="2">
  <advance width="460.0"/>
  <unicode hex="00A3"/>
  <note>
    sterling
  </note>
  <outline>
    <contour>
      <point x="28.0" y="281.0" type="line"/>
      <point x="345.0" y="281.0" type="line"/>
      <point x="345.0" y="319.0" type="line"/>
      <point x="28.0" y="319.0" type="line"/>
    </contour>
    <contour>
      <point x="58" y="-7" type="line"/>
      <point x="76" y="0"/>
      <point x="113" y="10"/>
      <point x="168" y="10" type="curve" smooth="yes"/>
      <point x="232" y="10"/>
      <point x="301" y="-6"/>
      <point x="329" y="-6" type="curve" smooth="yes"/>
      <point x="386" y="-6"/>
      <point x="424" y="8"/>
      <point x="460" y="96" type="curve"/>
      <point x="430" y="111" type="line"/>
      <point x="412" y="67"/>
      <point x="375" y="51"/>
      <point x="349" y="51" type="curve" smooth="yes"/>
      <point x="325" y="51"/>
      <point x="278" y="64"/>
      <point x="252" y="64" type="curve" smooth="yes"/>
      <point x="201" y="64"/>
      <point x="180" y="60"/>
      <point x="117" y="39" type="curve"/>
      <point x="106" y="30" type="line"/>
      <point x="176" y="52"/>
      <point x="205" y="116"/>
      <point x="205" y="180" type="curve" smooth="yes"/>
      <point x="205" y="279"/>
      <point x="155" y="369"/>
      <point x="155" y="462" type="curve" smooth="yes"/>
      <point x="155" y="547"/>
      <point x="231" y="559"/>
      <point x="263" y="559" type="curve" smooth="yes"/>
      <point x="287" y="559"/>
      <point x="298" y="554"/>
      <point x="308" y="546" type="curve" smooth="yes"/>
      <point x="320.093" y="536.325"/>
      <point x="333" y="513"/>
      <point x="341" y="491" type="curve"/>
      <point x="344" y="490"/>
      <point x="350" y="489"/>
      <point x="358" y="489" type="curve" smooth="yes"/>
      <point x="380" y="489"/>
      <point x="403" y="504"/>
      <point x="403" y="528" type="curve" smooth="yes"/>
      <point x="403" y="561"/>
      <point x="348" y="596"/>
      <point x="272" y="596" type="curve" smooth="yes"/>
      <point x="162" y="596"/>
      <point x="83" y="531"/>
      <point x="83" y="440" type="curve" smooth="yes"/>
      <point x="83" y="331"/>
      <point x="151" y="251"/>
      <point x="151" y="147" type="curve" smooth="yes"/>
      <point x="151" y="80"/>
      <point x="122" y="49"/>
      <point x="45" y="30" type="curve"/>
    </contour>
  </outline>
</glyph>
<glyph name="section" format="2">
  <advance width="469.0"/>
  <unicode hex="00A7"/>
  <note>
    section
  </note>
  <outline>
    <contour>
      <point x="253.0" y="216.0" type="line"/>
      <point x="338.0" y="222.0"/>
      <point x="403.0" y="283.0"/>
      <point x="403.0" y="357.0" type="curve" smooth="yes"/>
      <point x="403.0" y="487.0"/>
      <point x="161.0" y="495.0"/>
      <point x="161.0" y="597.0" type="curve" smooth="yes"/>
      <point x="161.0" y="634.0"/>
      <point x="194.0" y="661.0"/>
      <point x="257.0" y="661.0" type="curve" smooth="yes"/>
      <point x="271.0" y="661.0"/>
      <point x="287.0" y="659.0"/>
      <point x="298.0" y="654.0" type="curve"/>
      <point x="323.0" y="589.0" type="line"/>
      <point x="361.0" y="589.0" type="line"/>
      <point x="351.0" y="683.0" type="line"/>
      <point x="325.0" y="691.0"/>
      <point x="287.0" y="695.0"/>
      <point x="262.0" y="695.0" type="curve" smooth="yes"/>
      <point x="161.0" y="695.0"/>
      <point x="100.0" y="646.0"/>
      <point x="100.0" y="578.0" type="curve" smooth="yes"/>
      <point x="100.0" y="436.0"/>
      <point x="341.0" y="462.0"/>
      <point x="341.0" y="332.0" type="curve" smooth="yes"/>
      <point x="341.0" y="282.0"/>
      <point x="292.0" y="245.0"/>
      <point x="242.0" y="235.0" type="curve"/>
    </contour>
    <contour>
      <point x="207.0" y="-8.0" type="curve" smooth="yes"/>
      <point x="311.0" y="-8.0"/>
      <point x="372.0" y="40.0"/>
      <point x="372.0" y="108.0" type="curve" smooth="yes"/>
      <point x="372.0" y="247.0"/>
      <point x="128.0" y="227.0"/>
      <point x="128.0" y="357.0" type="curve" smooth="yes"/>
      <point x="128.0" y="406.0"/>
      <point x="177.0" y="443.0"/>
      <point x="225.0" y="452.0" type="curve"/>
      <point x="213.0" y="471.0" type="line"/>
      <point x="130.0" y="465.0"/>
      <point x="66.0" y="405.0"/>
      <point x="66.0" y="333.0" type="curve" smooth="yes"/>
      <point x="66.0" y="199.0"/>
      <point x="312.0" y="193.0"/>
      <point x="312.0" y="89.0" type="curve" smooth="yes"/>
      <point x="312.0" y="51.0"/>
      <point x="278.0" y="27.0"/>
      <point x="226.0" y="27.0" type="curve" smooth="yes"/>
      <point x="199.0" y="27.0"/>
      <point x="179.0" y="31.0"/>
      <point x="165.0" y="39.0" type="curve"/>
      <point x="139.0" y="102.0" type="line"/>
      <point x="101.0" y="102.0" type="line"/>
      <point x="113.0" y="6.0" type="line"/>
      <point x="140.0" y="-4.0"/>
      <point x="178.0" y="-8.0"/>
    </contour>
  </outline>
</glyph>
<glyph name="ordfeminine" format="2">
  <advance width="385.0"/>
  <unicode hex="00AA"/>
  <note>
    ordfeminine
  </note>
  <outline>
    <contour>
      <point x="165.0" y="238.0" type="curve" smooth="yes"/>
      <point x="193.0" y="238.0"/>
      <point x="226.0" y="251.0"/>
      <point x="265.0" y="297.0" type="curve"/>
      <point x="255.0" y="298.0" type="line"/>
      <point x="262.0" y="266.0" type="line" smooth="yes"/>
      <point x="265.0" y="249.0"/>
      <point x="274.0" y="238.0"/>
      <point x="289.0" y="238.0" type="curve" smooth="yes"/>
      <point x="297.0" y="238.0"/>
      <point x="306.0" y="241.0"/>
      <point x="317.0" y="245.0" type="curve" smooth="yes"/>
      <point x="362.0" y="262.0" type="line"/>
      <point x="362.0" y="286.0" type="line"/>
      <point x="312.0" y="297.0" type="line"/>
      <point x="311.0" y="302.0"/>
      <point x="306.0" y="320.0"/>
      <point x="306.0" y="346.0" type="curve"/>
      <point x="306.0" y="481.0" type="line"/>
      <point x="309.0" y="552.0"/>
      <point x="254.0" y="595.0"/>
      <point x="183.0" y="595.0" type="curve"/>
      <point x="122.0" y="587.0"/>
      <point x="58.0" y="543.0"/>
      <point x="58.0" y="508.0" type="curve" smooth="yes"/>
      <point x="58.0" y="471.0"/>
      <point x="90.0" y="460.0"/>
      <point x="122.0" y="471.0" type="curve"/>
      <point x="124.0" y="511.0" type="line" smooth="yes"/>
      <point x="127.0" y="546.0"/>
      <point x="132.0" y="554.0"/>
      <point x="163.0" y="554.0" type="curve" smooth="yes"/>
      <point x="210.0" y="554.0"/>
      <point x="254.0" y="519.0"/>
      <point x="254.0" y="483.0" type="curve" smooth="yes"/>
      <point x="254.0" y="444.0" type="line"/>
      <point x="133.0" y="404.0" type="line" smooth="yes"/>
      <point x="76.0" y="384.0"/>
      <point x="56.0" y="363.0"/>
      <point x="56.0" y="328.0" type="curve" smooth="yes"/>
      <point x="56.0" y="286.0"/>
      <point x="99.0" y="238.0"/>
    </contour>
    <contour>
      <point x="182.0" y="290.0" type="curve" smooth="yes"/>
      <point x="157.0" y="290.0"/>
      <point x="122.0" y="315.0"/>
      <point x="122.0" y="346.0" type="curve" smooth="yes"/>
      <point x="122.0" y="367.0"/>
      <point x="131.0" y="380.0"/>
      <point x="161.0" y="386.0" type="curve" smooth="yes"/>
      <point x="254.0" y="405.0" type="line"/>
      <point x="254.0" y="323.0" type="line"/>
      <point x="232.0" y="298.0"/>
      <point x="209.0" y="290.0"/>
    </contour>
  </outline>
</glyph>
<glyph name="registered" format="2">
  <advance width="810.0"/>
  <unicode hex="00AE"/>
  <outline>
    <contour>
      <point x="242.0" y="187.0" type="line"/>
      <point x="244.0" y="159.0" type="line"/>
      <point x="398.0" y="159.0" type="line"/>
      <point x="400.0" y="187.0" type="line"/>
      <point x="350.0" y="197.0" type="line"/>
      <point x="348.0" y="203.0"/>
      <point x="346.0" y="229.0"/>
      <point x="346.0" y="297.0" type="curve" smooth="yes"/>
      <point x="346.0" y="519.0" type="line"/>
      <point x="389.0" y="519.0" type="line" smooth="yes"/>
      <point x="440.0" y="519.0"/>
      <point x="470.0" y="498.0"/>
      <point x="470.0" y="450.0" type="curve" smooth="yes"/>
      <point x="470.0" y="399.0"/>
      <point x="435.0" y="375.0"/>
      <point x="378.0" y="375.0" type="curve" smooth="yes"/>
      <point x="365.0" y="375.0"/>
      <point x="352.0" y="374.0"/>
      <point x="338.0" y="376.0" type="curve"/>
      <point x="338.0" y="342.0" type="line"/>
      <point x="382.0" y="342.0" type="line" smooth="yes"/>
      <point x="468.0" y="342.0"/>
      <point x="530.0" y="389.0"/>
      <point x="530.0" y="454.0" type="curve" smooth="yes"/>
      <point x="530.0" y="519.0"/>
      <point x="484.0" y="552.0"/>
      <point x="396.0" y="552.0" type="curve"/>
      <point x="241.0" y="552.0" type="line"/>
      <point x="240.0" y="522.0" type="line"/>
      <point x="285.0" y="514.0" type="line"/>
      <point x="287.0" y="511.0"/>
      <point x="289.0" y="482.0"/>
      <point x="289.0" y="415.0" type="curve" smooth="yes"/>
      <point x="289.0" y="297.0" type="line" smooth="yes"/>
      <point x="289.0" y="229.0"/>
      <point x="287.0" y="202.0"/>
      <point x="287.0" y="197.0" type="curve"/>
    </contour>
    <contour>
      <point x="553.0" y="154.0" type="curve" smooth="yes"/>
      <point x="562.0" y="154.0"/>
      <point x="574.0" y="157.0"/>
      <point x="584.0" y="158.0" type="curve"/>
      <point x="587.0" y="183.0" type="line"/>
      <point x="551.0" y="189.0"/>
      <point x="531.0" y="205.0"/>
      <point x="488.0" y="258.0" type="curve" smooth="yes"/>
      <point x="417.0" y="365.0" type="line"/>
      <point x="366.0" y="352.0" type="line"/>
      <point x="405.0" y="271.0" type="line" smooth="yes"/>
      <point x="443.0" y="189.0"/>
      <point x="488.0" y="154.0"/>
    </contour>
    <contour>
      <point x="406.0" y="-3.0" type="curve" smooth="yes"/>
      <point x="603.0" y="-3.0"/>
      <point x="755.0" y="150.0"/>
      <point x="755.0" y="349.0" type="curve" smooth="yes"/>
      <point x="755.0" y="549.0"/>
      <point x="603.0" y="701.0"/>
      <point x="406.0" y="701.0" type="curve" smooth="yes"/>
      <point x="207.0" y="701.0"/>
      <point x="55.0" y="549.0"/>
      <point x="55.0" y="349.0" type="curve" smooth="yes"/>
      <point x="55.0" y="150.0"/>
      <point x="208.0" y="-3.0"/>
    </contour>
    <contour>
      <point x="406.0" y="25.0" type="curve" smooth="yes"/>
      <point x="223.0" y="25.0"/>
      <point x="84.0" y="166.0"/>
      <point x="84.0" y="350.0" type="curve" smooth="yes"/>
      <point x="84.0" y="533.0"/>
      <point x="223.0" y="673.0"/>
      <point x="406.0" y="673.0" type="curve" smooth="yes"/>
      <point x="587.0" y="673.0"/>
      <point x="726.0" y="533.0"/>
      <point x="726.0" y="350.0" type="curve" smooth="yes"/>
      <point x="726.0" y="166.0"/>
      <point x="587.0" y="25.0"/>
    </contour>
  </outline>
</glyph>
<glyph name="twosuperior" format="2">
  <advance width="400.0"/>
  <unicode hex="00B2"/>
  <note>
    uni2082
  </note>
  <outline>
    <contour>
      <point x="59.0" y="224.0" type="curve"/>
      <point x="63.0" y="197.0" type="line"/>
      <point x="79.0" y="198.0"/>
      <point x="97.0" y="199.0"/>
      <point x="114.0" y="199.0" type="curve" smooth="yes"/>
      <point x="266.0" y="199.0" type="line" smooth="yes"/>
      <point x="295.0" y="199.0"/>
      <point x="317.0" y="198.0"/>
      <point x="338.0" y="196.0" type="curve"/>
      <point x="356.0" y="308.0" type="line"/>
      <point x="326.0" y="310.0" type="line"/>
      <point x="303.0" y="258.0" type="line"/>
      <point x="297.0" y="256.0"/>
      <point x="287.0" y="255.0"/>
      <point x="278.0" y="255.0" type="curve" smooth="yes"/>
      <point x="120.0" y="255.0" type="line"/>
      <point x="118.0" y="245.0" type="line"/>
      <point x="252.0" y="324.0"/>
      <point x="316.0" y="404.0"/>
      <point x="316.0" y="476.0" type="curve" smooth="yes"/>
      <point x="316.0" y="546.0"/>
      <point x="260.0" y="593.0"/>
      <point x="181.0" y="593.0" type="curve" smooth="yes"/>
      <point x="119.0" y="593.0"/>
      <point x="72.0" y="557.0"/>
      <point x="45.0" y="505.0" type="curve"/>
      <point x="65.0" y="488.0" type="line"/>
      <point x="90.0" y="522.0"/>
      <point x="125.0" y="540.0"/>
      <point x="165.0" y="540.0" type="curve" smooth="yes"/>
      <point x="223.0" y="540.0"/>
      <point x="252.0" y="514.0"/>
      <point x="252.0" y="465.0" type="curve" smooth="yes"/>
      <point x="252.0" y="394.0"/>
      <point x="201.0" y="329.0"/>
    </contour>
  </outline>
</glyph>
<glyph name="threesuperior" format="2">
  <advance width="400.0"/>
  <unicode hex="00B3"/>
  <outline>
    <contour>
      <point x="211" y="414" type="curve"/>
      <point x="203" y="404" type="line"/>
      <point x="276" y="424"/>
      <point x="314" y="462"/>
      <point x="314" y="507" type="curve" smooth="yes"/>
      <point x="314" y="559"/>
      <point x="272" y="593"/>
      <point x="204" y="593" type="curve" smooth="yes"/>
      <point x="141" y="593"/>
      <point x="91" y="560"/>
      <point x="68" y="517" type="curve"/>
      <point x="88" y="500" type="line"/>
      <point x="110" y="522"/>
      <point x="139" y="540"/>
      <point x="183" y="540" type="curve" smooth="yes"/>
      <point x="223" y="540"/>
      <point x="253" y="521"/>
      <point x="253" y="486" type="curve" smooth="yes"/>
      <point x="253" y="443"/>
      <point x="217" y="416"/>
      <point x="134" y="411" type="curve"/>
      <point x="139" y="377" type="line"/>
      <point x="157" y="380"/>
      <point x="171" y="381"/>
      <point x="183" y="381" type="curve" smooth="yes"/>
      <point x="244" y="381"/>
      <point x="282" y="352"/>
      <point x="282" y="306" type="curve" smooth="yes"/>
      <point x="282" y="255"/>
      <point x="227.739" y="226"/>
      <point x="176" y="226" type="curve" smooth="yes"/>
      <point x="169" y="226"/>
      <point x="161" y="227"/>
      <point x="155" y="230" type="curve"/>
      <point x="142" y="243"/>
      <point x="128" y="261"/>
      <point x="117" y="277" type="curve"/>
      <point x="112" y="280"/>
      <point x="106" y="280"/>
      <point x="102" y="280" type="curve" smooth="yes"/>
      <point x="86" y="280"/>
      <point x="67" y="269"/>
      <point x="67" y="249" type="curve" smooth="yes"/>
      <point x="67" y="217"/>
      <point x="112" y="193"/>
      <point x="171" y="193" type="curve" smooth="yes"/>
      <point x="263" y="193"/>
      <point x="340" y="249"/>
      <point x="340" y="316" type="curve" smooth="yes"/>
      <point x="340" y="373"/>
      <point x="291" y="411"/>
    </contour>
  </outline>
</glyph>
<glyph name="micro" format="2">
  <advance width="530.0"/>
  <unicode hex="00B5"/>
  <outline>
    <contour>
      <point x="432.0" y="60.0" type="line"/>
      <point x="430.0" y="78.0"/>
      <point x="425.0" y="120.0"/>
      <point x="425.0" y="214.0" type="curve" smooth="yes"/>
      <point x="425.0" y="281.0" type="line" smooth="yes"/>
      <point x="425.0" y="358.0"/>
      <point x="427.0" y="387.0"/>
      <point x="427.0" y="419.0" type="curve"/>
      <point x="417.0" y="431.0" type="line"/>
      <point x="302.0" y="399.0" type="line"/>
      <point x="302.0" y="371.0" type="line"/>
      <point x="370.0" y="357.0" type="line"/>
      <point x="373.0" y="330.0"/>
      <point x="375.0" y="277.0"/>
      <point x="375.0" y="234.0" type="curve" smooth="yes"/>
      <point x="375.0" y="111.0" type="line"/>
      <point x="343.0" y="60.0"/>
      <point x="297.0" y="42.0"/>
      <point x="260.0" y="42.0" type="curve" smooth="yes"/>
      <point x="197.0" y="42.0"/>
      <point x="150.0" y="74.0"/>
      <point x="150.0" y="165.0" type="curve" smooth="yes"/>
      <point x="150.0" y="286.0" type="line" smooth="yes"/>
      <point x="150.0" y="334.0"/>
      <point x="151.0" y="374.0"/>
      <point x="153.0" y="417.0" type="curve"/>
      <point x="141.0" y="431.0" type="line"/>
      <point x="27.0" y="399.0" type="line"/>
      <point x="27.0" y="371.0" type="line"/>
      <point x="95.0" y="357.0" type="line"/>
      <point x="97.0" y="321.0"/>
      <point x="99.0" y="282.0"/>
      <point x="99.0" y="210.0" type="curve" smooth="yes"/>
      <point x="99.0" y="106.0"/>
      <point x="87.0" y="-44.0"/>
      <point x="87.0" y="-163.0" type="curve" smooth="yes"/>
      <point x="87.0" y="-204.0"/>
      <point x="98.0" y="-227.0"/>
      <point x="122.0" y="-227.0" type="curve" smooth="yes"/>
      <point x="146.0" y="-227.0"/>
      <point x="165.45849577647823" y="-209.75475146198823"/>
      <point x="165.45849577647823" y="-180.75475146198823" type="curve"/>
      <point x="134.57653102664062" y="-151.21548083170887"/>
      <point x="133.23383690708238" y="-63.94036306042881"/>
      <point x="136.0" y="95.0" type="curve"/>
      <point x="116.0" y="93.0" type="line"/>
      <point x="144.0" y="2.0"/>
      <point x="211.0" y="-7.0"/>
      <point x="252.0" y="-7.0" type="curve" smooth="yes"/>
      <point x="297.0" y="-7.0"/>
      <point x="333.0" y="11.0"/>
      <point x="373.0" y="63.0" type="curve"/>
      <point x="376.0" y="62.0" type="line"/>
      <point x="375.0" y="2.0" type="line"/>
      <point x="384.0" y="-10.0" type="line"/>
      <point x="495.0" y="15.0" type="line"/>
      <point x="495.0" y="43.0" type="line"/>
    </contour>
  </outline>
</glyph>
<glyph name="questiondown" format="2">
  <advance width="347.0"/>
  <unicode hex="00BF"/>
  <note>
    questiondown
  </note>
  <outline>
    <contour>
      <point x="237.0" y="262.0" type="curve"/>
      <point x="206.0" y="262.0" type="line"/>
      <point x="211.0" y="249.0"/>
      <point x="214.0" y="227.0"/>
      <point x="214.0" y="204.0" type="curve" smooth="yes"/>
      <point x="214.0" y="126.0"/>
      <point x="53.0" y="72.0"/>
      <point x="53.0" y="-54.0" type="curve" smooth="yes"/>
      <point x="53.0" y="-158.0"/>
      <point x="131.0" y="-227.0"/>
      <point x="260.0" y="-227.0" type="curve" smooth="yes"/>
      <point x="310.0" y="-227.0"/>
      <point x="330.0" y="-207.0"/>
      <point x="330.0" y="-186.0" type="curve" smooth="yes"/>
      <point x="330.0" y="-170.0"/>
      <point x="318.0" y="-152.0"/>
      <point x="286.0" y="-152.0" type="curve" smooth="yes"/>
      <point x="260.0" y="-152.0"/>
      <point x="233.0" y="-169.0"/>
      <point x="204.0" y="-169.0" type="curve" smooth="yes"/>
      <point x="144.0" y="-169.0"/>
      <point x="101.0" y="-132.0"/>
      <point x="101.0" y="-86.0" type="curve" smooth="yes"/>
      <point x="101.0" y="15.0"/>
      <point x="269.0" y="107.0"/>
      <point x="269.0" y="170.0" type="curve" smooth="yes"/>
      <point x="269.0" y="201.0"/>
      <point x="262.0" y="227.0"/>
    </contour>
    <contour>
      <point x="220.0" y="433.0" type="curve" smooth="yes"/>
      <point x="192.0" y="433.0"/>
      <point x="172.0" y="414.0"/>
      <point x="172.0" y="387.0" type="curve" smooth="yes"/>
      <point x="172.0" y="360.0"/>
      <point x="192.0" y="342.0"/>
      <point x="220.0" y="342.0" type="curve" smooth="yes"/>
      <point x="249.0" y="342.0"/>
      <point x="268.0" y="360.0"/>
      <point x="268.0" y="387.0" type="curve" smooth="yes"/>
      <point x="268.0" y="414.0"/>
      <point x="248.0" y="433.0"/>
    </contour>
  </outline>
</glyph>
<glyph name="multiply" format="2">
  <advance width="540.0"/>
  <unicode hex="00D7"/>
  <outline>
    <contour>
      <point x="443.0" y="462.0" type="line"/>
      <point x="62.0" y="83.0" type="line"/>
      <point x="99.0" y="46.0" type="line"/>
      <point x="478.0" y="423.0" type="line"/>
    </contour>
    <contour>
      <point x="99.0" y="462.0" type="line"/>
      <point x="62.0" y="423.0" type="line"/>
      <point x="443.0" y="46.0" type="line"/>
      <point x="478.0" y="83.0" type="line"/>
    </contour>
  </outline>
</glyph>
<glyph name="Thorn" format="2">
  <advance width="489.0"/>
  <unicode hex="00DE"/>
  <note>
    Thorn
  </note>
  <outline>
    <contour>
      <point x="61.0" y="0.0" type="line"/>
      <point x="261.0" y="0.0" type="line"/>
      <point x="263.0" y="34.0" type="line"/>
      <point x="180.0" y="45.0" type="line"/>
      <point x="179.0" y="56.0"/>
      <point x="177.0" y="84.0"/>
      <point x="177.0" y="111.0" type="curve" smooth="yes"/>
      <point x="177.0" y="438.0" type="line"/>
      <point x="243.0" y="438.0" type="line" smooth="yes"/>
      <point x="315.0" y="438.0"/>
      <point x="377.0" y="394.0"/>
      <point x="377.0" y="297.0" type="curve" smooth="yes"/>
      <point x="377.0" y="211.0"/>
      <point x="325.0" y="170.0"/>
      <point x="240.0" y="170.0" type="curve" smooth="yes"/>
      <point x="219.0" y="170.0"/>
      <point x="195.0" y="173.0"/>
      <point x="161.0" y="183.0" type="curve"/>
      <point x="161.0" y="140.0" type="line"/>
      <point x="184.0" y="136.0"/>
      <point x="210.0" y="131.0"/>
      <point x="243.0" y="131.0" type="curve" smooth="yes"/>
      <point x="344.0" y="131.0"/>
      <point x="441.0" y="197.0"/>
      <point x="441.0" y="309.0" type="curve" smooth="yes"/>
      <point x="441.0" y="417.0"/>
      <point x="365.0" y="477.0"/>
      <point x="248.0" y="477.0" type="curve" smooth="yes"/>
      <point x="170.0" y="477.0" type="line"/>
      <point x="177.0" y="450.0" type="line"/>
      <point x="177.0" y="496.0" type="line" smooth="yes"/>
      <point x="177.0" y="520.0"/>
      <point x="178.0" y="533.0"/>
      <point x="178.0" y="540.0" type="curve"/>
      <point x="238.0" y="555.0" type="line"/>
      <point x="236.0" y="587.0" type="line"/>
      <point x="55.0" y="587.0" type="line"/>
      <point x="53.0" y="555.0" type="line"/>
      <point x="113.0" y="540.0" type="line"/>
      <point x="116.0" y="532.0"/>
      <point x="117.0" y="488.0"/>
      <point x="117.0" y="397.0" type="curve" smooth="yes"/>
      <point x="117.0" y="189.0" type="line" smooth="yes"/>
      <point x="117.0" y="99.0"/>
      <point x="116.0" y="55.0"/>
      <point x="115.0" y="45.0" type="curve"/>
      <point x="59.0" y="32.0" type="line"/>
    </contour>
  </outline>
</glyph>
<glyph name="ae" format="2">
  <advance width="688.0"/>
  <unicode hex="00E6"/>
  <note>
    ae
  </note>
  <anchor x="343.0" y="0.0" name="bottom"/>
  <anchor x="343.0" y="425.0" name="top"/>
  <outline>
    <contour>
      <point x="202.0" y="-8.0" type="curve" smooth="yes"/>
      <point x="268.0" y="-8.0"/>
      <point x="295.0" y="12.0"/>
      <point x="363.0" y="88.0" type="curve"/>
      <point x="336.0" y="110.0" type="line"/>
      <point x="293.0" y="57.0"/>
      <point x="260.0" y="36.0"/>
      <point x="223.0" y="36.0" type="curve" smooth="yes"/>
      <point x="176.0" y="36.0"/>
      <point x="137.0" y="67.0"/>
      <point x="137.0" y="107.0" type="curve" smooth="yes"/>
      <point x="137.0" y="139.0"/>
      <point x="157.0" y="154.0"/>
      <point x="185.0" y="160.0" type="curve" smooth="yes"/>
      <point x="647.0" y="257.0" type="line"/>
      <point x="647.0" y="365.0"/>
      <point x="586.0" y="433.0"/>
      <point x="497.0" y="433.0" type="curve" smooth="yes"/>
      <point x="432.0" y="433.0"/>
      <point x="381.0" y="398.0"/>
      <point x="353.0" y="344.0" type="curve"/>
      <point x="359.0" y="344.0" type="line"/>
      <point x="344.0" y="404.0"/>
      <point x="282.0" y="433.0"/>
      <point x="222.0" y="433.0" type="curve"/>
      <point x="141.0" y="422.0"/>
      <point x="75.0" y="370.0"/>
      <point x="75.0" y="333.0" type="curve" smooth="yes"/>
      <point x="75.0" y="301.0"/>
      <point x="113.0" y="292.0"/>
      <point x="146.0" y="301.0" type="curve"/>
      <point x="147.0" y="333.0" type="line" smooth="yes"/>
      <point x="149.0" y="376.0"/>
      <point x="155.0" y="392.0"/>
      <point x="198.0" y="392.0" type="curve" smooth="yes"/>
      <point x="256.0" y="392.0"/>
      <point x="316.0" y="358.0"/>
      <point x="316.0" y="291.0" type="curve" smooth="yes"/>
      <point x="316.0" y="207.0" type="line" smooth="yes"/>
      <point x="316.0" y="70.0"/>
      <point x="389.0" y="-8.0"/>
      <point x="495.0" y="-8.0" type="curve" smooth="yes"/>
      <point x="557.0" y="-8.0"/>
      <point x="608.0" y="22.0"/>
      <point x="646.0" y="86.0" type="curve"/>
      <point x="624.0" y="107.0" type="line"/>
      <point x="586.0" y="59.0"/>
      <point x="553.0" y="45.0"/>
      <point x="511.0" y="45.0" type="curve" smooth="yes"/>
      <point x="428.0" y="45.0"/>
      <point x="371.0" y="103.0"/>
      <point x="371.0" y="218.0" type="curve" smooth="yes"/>
      <point x="371.0" y="257.0" type="line" smooth="yes"/>
      <point x="371.0" y="334.0"/>
      <point x="420.0" y="399.0"/>
      <point x="490.0" y="399.0" type="curve" smooth="yes"/>
      <point x="549.0" y="399.0"/>
      <point x="586.0" y="349.0"/>
      <point x="586.0" y="274.0" type="curve" smooth="yes"/>
      <point x="586.0" y="255.0" type="line"/>
      <point x="595.0" y="280.0" type="line"/>
      <point x="188.0" y="195.0" type="line" smooth="yes"/>
      <point x="109.0" y="178.0"/>
      <point x="71.0" y="146.0"/>
      <point x="71.0" y="95.0" type="curve" smooth="yes"/>
      <point x="71.0" y="31.0"/>
      <point x="142.0" y="-8.0"/>
    </contour>
  </outline>
</glyph>
<glyph name="eth" format="2">
  <advance width="489.0"/>
  <unicode hex="00F0"/>
  <note>
    eth
  </note>
  <outline>
    <contour>
      <point x="377.0" y="367.0" type="curve"/>
      <point x="379.0" y="412.0" type="line"/>
      <point x="337.0" y="430.0"/>
      <point x="297.0" y="434.0"/>
      <point x="265.0" y="434.0" type="curve" smooth="yes"/>
      <point x="147.0" y="434.0"/>
      <point x="44.0" y="351.0"/>
      <point x="44.0" y="205.0" type="curve" smooth="yes"/>
      <point x="44.0" y="60.0"/>
      <point x="138.0" y="-8.0"/>
      <point x="242.0" y="-8.0" type="curve" smooth="yes"/>
      <point x="363.0" y="-8.0"/>
      <point x="443.0" y="90.0"/>
      <point x="443.0" y="270.0" type="curve" smooth="yes"/>
      <point x="443.0" y="451.0"/>
      <point x="323.0" y="626.0"/>
      <point x="149.0" y="688.0" type="curve"/>
      <point x="71.0" y="688.0" type="line"/>
      <point x="69.0" y="662.0" type="line"/>
      <point x="268.0" y="594.0"/>
      <point x="380.0" y="436.0"/>
      <point x="380.0" y="240.0" type="curve" smooth="yes"/>
      <point x="380.0" y="89.0"/>
      <point x="337.0" y="32.0"/>
      <point x="253.0" y="32.0" type="curve" smooth="yes"/>
      <point x="164.0" y="32.0"/>
      <point x="110.0" y="111.0"/>
      <point x="110.0" y="214.0" type="curve" smooth="yes"/>
      <point x="110.0" y="335.0"/>
      <point x="166.0" y="395.0"/>
      <point x="264.0" y="395.0" type="curve" smooth="yes"/>
      <point x="297.0" y="395.0"/>
      <point x="338.0" y="391.0"/>
    </contour>
    <contour>
      <point x="94.0" y="516.0" type="line"/>
      <point x="388.0" y="665.0" type="line"/>
      <point x="371.0" y="698.0" type="line"/>
      <point x="77.0" y="549.0" type="line"/>
    </contour>
  </outline>
</glyph>
<glyph name="aogonek" format="2">
  <advance width="465.0"/>
  <unicode hex="0105"/>
  <note>
    aogonek
  </note>
  <anchor x="226.0" y="425.0" name="top"/>
  <outline>
    <contour>
      <point x="364.0" y="-223.0" type="curve" smooth="yes"/>
      <point x="406.0" y="-223.0"/>
      <point x="440.0" y="-202.0"/>
      <point x="465.0" y="-173.0" type="curve"/>
      <point x="446.0" y="-152.0" type="line"/>
      <point x="426.0" y="-172.0"/>
      <point x="404.0" y="-187.0"/>
      <point x="376.0" y="-187.0" type="curve" smooth="yes"/>
      <point x="339.0" y="-187.0"/>
      <point x="315.0" y="-163.0"/>
      <point x="315.0" y="-126.0" type="curve" smooth="yes"/>
      <point x="315.0" y="-81.0"/>
      <point x="348.0" y="-37.0"/>
      <point x="436.0" y="16.0" type="curve"/>
      <point x="436.0" y="39.0" type="line"/>
      <point x="373.0" y="51.0" type="line"/>
      <point x="372.0" y="54.0"/>
      <point x="367.0" y="81.0"/>
      <point x="367.0" y="115.0" type="curve" smooth="yes"/>
      <point x="369.0" y="297.0" type="line"/>
      <point x="368.0" y="378.0"/>
      <point x="307.0" y="433.0"/>
      <point x="219.0" y="433.0" type="curve"/>
      <point x="138.0" y="422.0"/>
      <point x="72.0" y="370.0"/>
      <point x="72.0" y="333.0" type="curve" smooth="yes"/>
      <point x="72.0" y="302.0"/>
      <point x="105.0" y="290.0"/>
      <point x="144.0" y="301.0" type="curve"/>
      <point x="145.0" y="333.0" type="line" smooth="yes"/>
      <point x="147.0" y="381.0"/>
      <point x="157.0" y="392.0"/>
      <point x="196.0" y="392.0" type="curve" smooth="yes"/>
      <point x="263.0" y="392.0"/>
      <point x="315.0" y="355.0"/>
      <point x="315.0" y="301.0" type="curve" smooth="yes"/>
      <point x="315.0" y="240.0" type="line"/>
      <point x="165.0" y="187.0" type="line" smooth="yes"/>
      <point x="93.0" y="162.0"/>
      <point x="70.0" y="135.0"/>
      <point x="70.0" y="95.0" type="curve" smooth="yes"/>
      <point x="70.0" y="39.0"/>
      <point x="130.0" y="-8.0"/>
      <point x="202.0" y="-8.0" type="curve" smooth="yes"/>
      <point x="244.0" y="-8.0"/>
      <point x="282.0" y="13.0"/>
      <point x="328.0" y="63.0" type="curve"/>
      <point x="316.0" y="60.0" type="line"/>
      <point x="323.0" y="24.0" type="line" smooth="yes"/>
      <point x="328.0" y="3.0"/>
      <point x="349.0" y="-17.0"/>
      <point x="400.0" y="6.0" type="curve"/>
      <point x="426.0" y="23.0" type="line"/>
      <point x="327.0" y="-13.0"/>
      <point x="258.0" y="-71.0"/>
      <point x="258.0" y="-137.0" type="curve" smooth="yes"/>
      <point x="258.0" y="-184.0"/>
      <point x="295.0" y="-223.0"/>
    </contour>
    <contour>
      <point x="217.0" y="36.0" type="curve" smooth="yes"/>
      <point x="178.0" y="36.0"/>
      <point x="136.0" y="66.0"/>
      <point x="136.0" y="104.0" type="curve" smooth="yes"/>
      <point x="136.0" y="132.0"/>
      <point x="149.0" y="149.0"/>
      <point x="181.0" y="159.0" type="curve" smooth="yes"/>
      <point x="315.0" y="198.0" type="line"/>
      <point x="315.0" y="89.0" type="line"/>
      <point x="281.0" y="49.0"/>
      <point x="250.0" y="36.0"/>
    </contour>
  </outline>
</glyph>
<glyph name="kgreenlandic" format="2">
  <advance width="458.0"/>
  <unicode hex="0138"/>
  <note>
    kgreenlandic
  </note>
  <outline>
    <contour>
      <point x="38.0" y="0.0" type="line"/>
      <point x="217.0" y="0.0" type="line"/>
      <point x="219.0" y="31.0" type="line"/>
      <point x="157.0" y="45.0" type="line"/>
      <point x="155.0" y="62.0"/>
      <point x="153.0" y="97.0"/>
      <point x="153.0" y="165.0" type="curve" smooth="yes"/>
      <point x="153.0" y="291.0" type="line" smooth="yes"/>
      <point x="153.0" y="344.0"/>
      <point x="155.0" y="379.0"/>
      <point x="158.0" y="420.0" type="curve"/>
      <point x="149.0" y="431.0" type="line"/>
      <point x="31.0" y="399.0" type="line"/>
      <point x="31.0" y="371.0" type="line"/>
      <point x="95.0" y="357.0" type="line"/>
      <point x="98.0" y="338.0"/>
      <point x="102.0" y="279.0"/>
      <point x="102.0" y="215.0" type="curve"/>
      <point x="101.0" y="155.0" type="line"/>
      <point x="100.0" y="64.0"/>
      <point x="99.0" y="52.0"/>
      <point x="98.0" y="45.0" type="curve"/>
      <point x="36.0" y="31.0" type="line"/>
    </contour>
    <contour>
      <point x="457.0" y="0.0" type="line"/>
      <point x="459.0" y="32.0" type="line"/>
      <point x="400.0" y="42.0" type="line"/>
      <point x="381.0" y="59.0"/>
      <point x="354.0" y="87.0"/>
      <point x="342.0" y="100.0" type="curve" smooth="yes"/>
      <point x="209.0" y="241.0" type="line"/>
      <point x="191.0" y="209.0" type="line"/>
      <point x="376.0" y="381.0" type="line"/>
      <point x="442.0" y="393.0" type="line"/>
      <point x="440.0" y="425.0" type="line"/>
      <point x="249.0" y="425.0" type="line"/>
      <point x="247.0" y="393.0" type="line"/>
      <point x="313.0" y="381.0" type="line"/>
      <point x="180.0" y="243.0" type="line"/>
      <point x="137.0" y="231.0" type="line"/>
      <point x="136.0" y="213.0" type="line"/>
      <point x="166.0" y="213.0" type="line"/>
      <point x="312.0" y="55.0" type="line" smooth="yes"/>
      <point x="324.0" y="43.0"/>
      <point x="333.0" y="34.0"/>
      <point x="358.0" y="0.0" type="curve"/>
    </contour>
  </outline>
</glyph>
<glyph name="Uogonek" format="2">
  <advance width="649.0"/>
  <unicode hex="0172"/>
  <note>
    Uogonek
  </note>
  <anchor x="333.0" y="587.0" name="top"/>
  <anchor x="596.0" y="587.0" name="topright"/>
  <outline>
    <contour>
      <point x="596.0" y="587.0" type="line"/>
      <point x="414.0" y="587.0" type="line"/>
      <point x="412.0" y="555.0" type="line"/>
      <point x="482.0" y="541.0" type="line"/>
      <point x="485.0" y="523.0"/>
      <point x="487.0" y="460.0"/>
      <point x="487.0" y="379.0" type="curve" smooth="yes"/>
      <point x="487.0" y="228.0" type="line" smooth="yes"/>
      <point x="487.0" y="107.0"/>
      <point x="436.0" y="44.0"/>
      <point x="338.0" y="44.0" type="curve" smooth="yes"/>
      <point x="234.0" y="44.0"/>
      <point x="179.0" y="103.0"/>
      <point x="177.0" y="219.0" type="curve"/>
      <point x="177.0" y="397.0" type="line"/>
      <point x="176.0" y="520.0"/>
      <point x="179.0" y="538.0"/>
      <point x="180.0" y="541.0" type="curve"/>
      <point x="240.0" y="555.0" type="line"/>
      <point x="238.0" y="587.0" type="line"/>
      <point x="52.0" y="587.0" type="line"/>
      <point x="50.0" y="555.0" type="line"/>
      <point x="110.0" y="541.0" type="line"/>
      <point x="111.0" y="535.0"/>
      <point x="114.0" y="518.0"/>
      <point x="114.0" y="397.0" type="curve" smooth="yes"/>
      <point x="114.0" y="209.0" type="line" smooth="yes"/>
      <point x="114.0" y="73.0"/>
      <point x="196.0" y="-9.0"/>
      <point x="332.0" y="-9.0" type="curve" smooth="yes"/>
      <point x="361.0" y="-9.0" type="line"/>
      <point x="390.0" y="15.0" type="line"/>
      <point x="299.0" y="-24.0"/>
      <point x="253.0" y="-76.0"/>
      <point x="253.0" y="-137.0" type="curve" smooth="yes"/>
      <point x="253.0" y="-188.0"/>
      <point x="296.0" y="-223.0"/>
      <point x="359.0" y="-223.0" type="curve" smooth="yes"/>
      <point x="396.0" y="-223.0"/>
      <point x="433.0" y="-205.0"/>
      <point x="460.0" y="-173.0" type="curve"/>
      <point x="440.0" y="-152.0" type="line"/>
      <point x="416.0" y="-176.0"/>
      <point x="394.0" y="-187.0"/>
      <point x="371.0" y="-187.0" type="curve" smooth="yes"/>
      <point x="334.0" y="-187.0"/>
      <point x="310.0" y="-164.0"/>
      <point x="310.0" y="-126.0" type="curve" smooth="yes"/>
      <point x="310.0" y="-74.0"/>
      <point x="356.0" y="-18.0"/>
      <point x="422.0" y="9.0" type="curve" smooth="yes"/>
      <point x="495.0" y="39.0"/>
      <point x="536.0" y="118.0"/>
      <point x="536.0" y="229.0" type="curve" smooth="yes"/>
      <point x="536.0" y="379.0" type="line" smooth="yes"/>
      <point x="536.0" y="471.0"/>
      <point x="538.0" y="535.0"/>
      <point x="538.0" y="541.0" type="curve"/>
      <point x="599.0" y="555.0" type="line"/>
    </contour>
  </outline>
</glyph>
<glyph name="uogonek" format="2">
  <advance width="525.0"/>
  <unicode hex="0173"/>
  <note>
    uogonek
  </note>
  <anchor x="262.0" y="425.0" name="top"/>
  <anchor x="410.0" y="425.0" name="topright"/>
  <outline>
    <contour>
      <point x="425.0" y="-223.0" type="curve" smooth="yes"/>
      <point x="466.0" y="-223.0"/>
      <point x="501.0" y="-202.0"/>
      <point x="526.0" y="-173.0" type="curve"/>
      <point x="506.0" y="-152.0" type="line"/>
      <point x="487.0" y="-172.0"/>
      <point x="465.0" y="-187.0"/>
      <point x="437.0" y="-187.0" type="curve" smooth="yes"/>
      <point x="400.0" y="-187.0"/>
      <point x="376.0" y="-163.0"/>
      <point x="376.0" y="-125.0" type="curve" smooth="yes"/>
      <point x="376.0" y="-82.0"/>
      <point x="402.0" y="-40.0"/>
      <point x="494.0" y="15.0" type="curve"/>
      <point x="494.0" y="43.0" type="line"/>
      <point x="431.0" y="60.0" type="line"/>
      <point x="429.0" y="78.0"/>
      <point x="424.0" y="120.0"/>
      <point x="424.0" y="214.0" type="curve" smooth="yes"/>
      <point x="424.0" y="281.0" type="line" smooth="yes"/>
      <point x="424.0" y="330.0"/>
      <point x="424.0" y="355.0"/>
      <point x="426.0" y="419.0" type="curve"/>
      <point x="416.0" y="431.0" type="line"/>
      <point x="296.0" y="399.0" type="line"/>
      <point x="296.0" y="371.0" type="line"/>
      <point x="369.0" y="357.0" type="line"/>
      <point x="372.0" y="330.0"/>
      <point x="374.0" y="277.0"/>
      <point x="374.0" y="234.0" type="curve" smooth="yes"/>
      <point x="374.0" y="111.0" type="line"/>
      <point x="342.0" y="60.0"/>
      <point x="297.0" y="42.0"/>
      <point x="257.0" y="42.0" type="curve" smooth="yes"/>
      <point x="192.0" y="42.0"/>
      <point x="145.0" y="74.0"/>
      <point x="145.0" y="165.0" type="curve" smooth="yes"/>
      <point x="145.0" y="286.0" type="line" smooth="yes"/>
      <point x="145.0" y="334.0"/>
      <point x="146.0" y="374.0"/>
      <point x="148.0" y="417.0" type="curve"/>
      <point x="136.0" y="431.0" type="line"/>
      <point x="22.0" y="399.0" type="line"/>
      <point x="22.0" y="371.0" type="line"/>
      <point x="90.0" y="357.0" type="line"/>
      <point x="92.0" y="321.0"/>
      <point x="94.0" y="282.0"/>
      <point x="94.0" y="239.0" type="curve" smooth="yes"/>
      <point x="94.0" y="151.0" type="line" smooth="yes"/>
      <point x="94.0" y="45.0"/>
      <point x="163.0" y="-7.0"/>
      <point x="249.0" y="-7.0" type="curve" smooth="yes"/>
      <point x="296.0" y="-7.0"/>
      <point x="332.0" y="11.0"/>
      <point x="372.0" y="63.0" type="curve"/>
      <point x="375.0" y="62.0" type="line"/>
      <point x="374.0" y="2.0" type="line"/>
      <point x="383.0" y="-10.0" type="line"/>
      <point x="449.0" y="5.0" type="line"/>
      <point x="470.0" y="21.0" type="line"/>
      <point x="378.0" y="-15.0"/>
      <point x="319.0" y="-71.0"/>
      <point x="319.0" y="-137.0" type="curve" smooth="yes"/>
      <point x="319.0" y="-184.0"/>
      <point x="356.0" y="-223.0"/>
    </contour>
  </outline>
</glyph>
<glyph name="florin" format="2">
  <advance width="362.0"/>
  <unicode hex="0192"/>
  <outline>
    <contour>
      <point x="73.0" y="-226.26920431931228" type="curve" smooth="yes"/>
      <point x="144.0" y="-226.26920431931228"/>
      <point x="194.99999999999994" y="-159.2692043193123"/>
      <point x="195.0" y="-28.26920431931228" type="curve" smooth="yes"/>
      <point x="195" y="380" type="line"/>
      <point x="193" y="423" type="line"/>
      <point x="193" y="515" type="line" smooth="yes"/>
      <point x="193" y="626"/>
      <point x="232" y="668"/>
      <point x="267" y="668" type="curve" smooth="yes"/>
      <point x="299" y="668"/>
      <point x="318" y="623"/>
      <point x="322" y="598" type="curve"/>
      <point x="326" y="597"/>
      <point x="329" y="597"/>
      <point x="333" y="597" type="curve" smooth="yes"/>
      <point x="356" y="597"/>
      <point x="374.7031855453167" y="610.9656176111764"/>
      <point x="374.7031855453167" y="634.9656176111764" type="curve" smooth="yes"/>
      <point x="374.7031855453167" y="663.9656176111764"/>
      <point x="348" y="698"/>
      <point x="282" y="698" type="curve" smooth="yes"/>
      <point x="199" y="698"/>
      <point x="144.263" y="624.997"/>
      <point x="144" y="494" type="curve" smooth="yes"/>
      <point x="143.0" y="-51.26920431931228" type="line" smooth="yes"/>
      <point x="142.79643076401146" y="-162.26923965068576"/>
      <point x="115.0" y="-196.26920431931228"/>
      <point x="80.0" y="-196.26920431931228" type="curve" smooth="yes"/>
      <point x="67.0" y="-196.26920431931228"/>
      <point x="51.0" y="-155.26920431931228"/>
      <point x="47.0" y="-136.26920431931228" type="curve"/>
      <point x="44.0" y="-135.26920431931228"/>
      <point x="38.0" y="-133.26920431931228"/>
      <point x="32.0" y="-133.26920431931228" type="curve" smooth="yes"/>
      <point x="17.0" y="-133.26920431931228"/>
      <point x="-3.0" y="-143.26920431931228"/>
      <point x="-3.0" y="-167.26920431931228" type="curve" smooth="yes"/>
      <point x="-3.0" y="-197.26920431931228"/>
      <point x="28.0" y="-226.26920431931228"/>
    </contour>
    <contour>
      <point x="73" y="380" type="line"/>
      <point x="309" y="380" type="line"/>
      <point x="309" y="423" type="line"/>
      <point x="226" y="423" type="line"/>
      <point x="144" y="423" type="line"/>
      <point x="119" y="416"/>
      <point x="98" y="410"/>
      <point x="73" y="406" type="curve"/>
    </contour>
  </outline>
</glyph>
<glyph name="ohorn" format="2">
  <advance width="496.0"/>
  <unicode hex="01A1"/>
  <note>
    ohorn
  </note>
  <anchor x="248.0" y="0.0" name="bottom"/>
  <anchor x="248.0" y="213.0" name="center"/>
  <anchor x="248.0" y="425.0" name="top"/>
  <outline>
    <contour>
      <point x="472.0" y="478.0" type="curve" smooth="yes"/>
      <point x="472.0" y="512.0"/>
      <point x="433.0" y="522.0"/>
      <point x="400.0" y="512.0" type="curve"/>
      <point x="400.0" y="479.0" type="line" smooth="yes"/>
      <point x="398.0" y="436.0"/>
      <point x="386.0" y="417.0"/>
      <point x="363.0" y="417.0" type="curve" smooth="yes"/>
      <point x="329.0" y="417.0"/>
      <point x="307.0" y="433.0"/>
      <point x="247.0" y="433.0" type="curve" smooth="yes"/>
      <point x="137.0" y="433.0"/>
      <point x="44.0" y="343.0"/>
      <point x="44.0" y="214.0" type="curve" smooth="yes"/>
      <point x="44.0" y="83.0"/>
      <point x="125.0" y="-8.0"/>
      <point x="252.0" y="-8.0" type="curve" smooth="yes"/>
      <point x="364.0" y="-8.0"/>
      <point x="452.0" y="91.0"/>
      <point x="452.0" y="215.0" type="curve" smooth="yes"/>
      <point x="452.0" y="300.0"/>
      <point x="419.0" y="363.0"/>
      <point x="365.0" y="400.0" type="curve"/>
      <point x="351.0" y="383.0" type="line"/>
      <point x="437.0" y="380.0"/>
      <point x="472.0" y="431.0"/>
    </contour>
    <contour>
      <point x="261.0" y="31.0" type="curve" smooth="yes"/>
      <point x="172.0" y="31.0"/>
      <point x="109.0" y="106.0"/>
      <point x="109.0" y="222.0" type="curve" smooth="yes"/>
      <point x="109.0" y="327.0"/>
      <point x="164.0" y="396.0"/>
      <point x="246.0" y="396.0" type="curve" smooth="yes"/>
      <point x="331.0" y="396.0"/>
      <point x="389.0" y="319.0"/>
      <point x="389.0" y="203.0" type="curve" smooth="yes"/>
      <point x="389.0" y="104.0"/>
      <point x="336.0" y="31.0"/>
    </contour>
  </outline>
</glyph>
<glyph name="Uhorn" format="2">
  <advance width="649.0"/>
  <unicode hex="01AF"/>
  <note>
    Uhorn
  </note>
  <anchor x="332.0" y="0.0" name="bottom"/>
  <anchor x="333.0" y="587.0" name="top"/>
  <outline>
    <contour>
      <point x="332.0" y="-9.0" type="curve" smooth="yes"/>
      <point x="463.0" y="-9.0"/>
      <point x="536.0" y="77.0"/>
      <point x="536.0" y="229.0" type="curve" smooth="yes"/>
      <point x="536.0" y="379.0" type="line" smooth="yes"/>
      <point x="536.0" y="456.0"/>
      <point x="536.0" y="505.0"/>
      <point x="542.0" y="560.0" type="curve"/>
      <point x="534.0" y="542.0" type="line"/>
      <point x="620.0" y="545.0"/>
      <point x="682.0" y="591.0"/>
      <point x="682.0" y="652.0" type="curve" smooth="yes"/>
      <point x="682.0" y="696.0"/>
      <point x="650.0" y="718.0"/>
      <point x="604.0" y="708.0" type="curve"/>
      <point x="602.0" y="661.0" type="line" smooth="yes"/>
      <point x="600.0" y="596.0"/>
      <point x="587.0" y="587.0"/>
      <point x="510.0" y="587.0" type="curve" smooth="yes"/>
      <point x="414.0" y="587.0" type="line"/>
      <point x="412.0" y="555.0" type="line"/>
      <point x="482.0" y="541.0" type="line"/>
      <point x="485.0" y="523.0"/>
      <point x="487.0" y="468.0"/>
      <point x="487.0" y="379.0" type="curve" smooth="yes"/>
      <point x="487.0" y="228.0" type="line" smooth="yes"/>
      <point x="487.0" y="107.0"/>
      <point x="436.0" y="44.0"/>
      <point x="338.0" y="44.0" type="curve" smooth="yes"/>
      <point x="234.0" y="44.0"/>
      <point x="179.0" y="103.0"/>
      <point x="177.0" y="219.0" type="curve"/>
      <point x="177.0" y="397.0" type="line"/>
      <point x="176.0" y="520.0"/>
      <point x="179.0" y="538.0"/>
      <point x="180.0" y="541.0" type="curve"/>
      <point x="240.0" y="555.0" type="line"/>
      <point x="238.0" y="587.0" type="line"/>
      <point x="52.0" y="587.0" type="line"/>
      <point x="50.0" y="555.0" type="line"/>
      <point x="110.0" y="541.0" type="line"/>
      <point x="111.0" y="535.0"/>
      <point x="114.0" y="518.0"/>
      <point x="114.0" y="397.0" type="curve" smooth="yes"/>
      <point x="114.0" y="209.0" type="line" smooth="yes"/>
      <point x="114.0" y="73.0"/>
      <point x="196.0" y="-9.0"/>
    </contour>
  </outline>
</glyph>
<glyph name="Oogonek" format="2">
  <advance width="678.0"/>
  <unicode hex="01EA"/>
  <anchor x="338.0" y="294.0" name="center"/>
  <anchor x="338.0" y="587.0" name="top"/>
  <anchor x="19.0" y="587.0" name="topleft"/>
  <anchor x="659.0" y="587.0" name="topright"/>
  <outline>
    <contour>
      <point x="372.0" y="-223.0" type="curve" smooth="yes"/>
      <point x="414.0" y="-223.0"/>
      <point x="448.0" y="-201.0"/>
      <point x="473.0" y="-173.0" type="curve"/>
      <point x="453.0" y="-152.0" type="line"/>
      <point x="434.0" y="-172.0"/>
      <point x="412.0" y="-187.0"/>
      <point x="384.0" y="-187.0" type="curve" smooth="yes"/>
      <point x="347.0" y="-187.0"/>
      <point x="323.0" y="-163.0"/>
      <point x="323.0" y="-126.0" type="curve" smooth="yes"/>
      <point x="323.0" y="-75.0"/>
      <point x="366.0" y="-20.0"/>
      <point x="443.0" y="10.0" type="curve" smooth="yes"/>
      <point x="548.0" y="51.0"/>
      <point x="623.0" y="163.0"/>
      <point x="623.0" y="296.0" type="curve" smooth="yes"/>
      <point x="623.0" y="474.0"/>
      <point x="510.0" y="596.0"/>
      <point x="348.0" y="596.0" type="curve" smooth="yes"/>
      <point x="180.0" y="596.0"/>
      <point x="55.0" y="466.0"/>
      <point x="55.0" y="293.0" type="curve" smooth="yes"/>
      <point x="55.0" y="114.0"/>
      <point x="174.0" y="-9.0"/>
      <point x="344.0" y="-9.0" type="curve" smooth="yes"/>
      <point x="376.0" y="-9.0" type="line"/>
      <point x="411.0" y="17.0" type="line"/>
      <point x="321.0" y="-19.0"/>
      <point x="266.0" y="-74.0"/>
      <point x="266.0" y="-137.0" type="curve" smooth="yes"/>
      <point x="266.0" y="-184.0"/>
      <point x="303.0" y="-223.0"/>
    </contour>
    <contour>
      <point x="355.0" y="35.0" type="curve" smooth="yes"/>
      <point x="226.0" y="35.0"/>
      <point x="133.0" y="149.0"/>
      <point x="133.0" y="307.0" type="curve" smooth="yes"/>
      <point x="133.0" y="459.0"/>
      <point x="210.0" y="554.0"/>
      <point x="336.0" y="554.0" type="curve" smooth="yes"/>
      <point x="462.0" y="554.0"/>
      <point x="549.0" y="438.0"/>
      <point x="549.0" y="273.0" type="curve" smooth="yes"/>
      <point x="549.0" y="131.0"/>
      <point x="470.0" y="35.0"/>
    </contour>
  </outline>
</glyph>
<glyph name="apostrophemod" format="2">
  <advance width="600.0"/>
  <unicode hex="02BC"/>
  <note>
    uni02BB
  </note>
  <anchor x="300.0" y="425.0" name="_top"/>
  <anchor x="300.0" y="671.0" name="top"/>
  <outline>
    <contour>
      <point x="268.0" y="534.0" type="line"/>
      <point x="326.0" y="556.0"/>
      <point x="371.0" y="599.0"/>
      <point x="371.0" y="655.0" type="curve" smooth="yes"/>
      <point x="371.0" y="687.0"/>
      <point x="355.0" y="713.0"/>
      <point x="321.0" y="713.0" type="curve" smooth="yes"/>
      <point x="302.0" y="713.0"/>
      <point x="286.0" y="699.0"/>
      <point x="286.0" y="680.0" type="curve" smooth="yes"/>
      <point x="286.0" y="645.0"/>
      <point x="321.0" y="647.0"/>
      <point x="321.0" y="616.0" type="curve" smooth="yes"/>
      <point x="321.0" y="592.0"/>
      <point x="293.0" y="569.0"/>
      <point x="258.0" y="556.0" type="curve"/>
    </contour>
  </outline>
</glyph>
<glyph name="firsttonechinese" format="2">
  <advance width="600.0"/>
  <unicode hex="02C9"/>
  <note>
    uni0304
  </note>
  <anchor x="300.0" y="425.0" name="_top"/>
  <anchor x="300.0" y="687.0" name="top"/>
  <outline>
    <contour>
      <point x="162.0" y="602.0" type="line"/>
      <point x="162.0" y="555.0" type="line"/>
      <point x="438.0" y="555.0" type="line"/>
      <point x="438.0" y="602.0" type="line"/>
    </contour>
  </outline>
</glyph>
<glyph name="gravecomb" format="2">
  <unicode hex="0300"/>
  <note>
    gravecomb
  </note>
  <anchor x="300.0" y="425.0" name="_top"/>
  <anchor x="300.0" y="687.0" name="top"/>
  <outline>
    <contour>
      <point x="284.0" y="482.0" type="line"/>
      <point x="316.0" y="492.0" type="line"/>
      <point x="217.0" y="677.0" type="line"/>
      <point x="153.0" y="654.0" type="line"/>
    </contour>
  </outline>
</glyph>
<glyph name="acutecomb" format="2">
  <unicode hex="0301"/>
  <note>
    acutecomb
  </note>
  <anchor x="300.0" y="425.0" name="_top"/>
  <anchor x="300.0" y="687.0" name="top"/>
  <outline>
    <contour>
      <point x="315.0" y="482.0" type="line"/>
      <point x="446.0" y="654.0" type="line"/>
      <point x="384.0" y="677.0" type="line"/>
      <point x="285.0" y="492.0" type="line"/>
    </contour>
  </outline>
</glyph>
<glyph name="circumflexcomb" format="2">
  <unicode hex="0302"/>
  <note>
    uni0302
  </note>
  <anchor x="300.0" y="425.0" name="_top"/>
  <anchor x="300.0" y="687.0" name="top"/>
  <outline>
    <contour>
      <point x="430.0" y="492.0" type="line"/>
      <point x="329.0" y="662.0" type="line"/>
      <point x="271.0" y="662.0" type="line"/>
      <point x="170.0" y="492.0" type="line"/>
      <point x="201.0" y="482.0" type="line"/>
      <point x="329.0" y="639.0" type="line"/>
      <point x="271.0" y="639.0" type="line"/>
      <point x="399.0" y="482.0" type="line"/>
    </contour>
  </outline>
</glyph>
<glyph name="tildecomb" format="2">
  <unicode hex="0303"/>
  <note>
    tildecomb
  </note>
  <anchor x="300.0" y="425.0" name="_top"/>
  <anchor x="300.0" y="687.0" name="top"/>
  <outline>
    <contour>
      <point x="436.0" y="626.0" type="line"/>
      <point x="419.0" y="597.0"/>
      <point x="404.0" y="576.0"/>
      <point x="376.0" y="576.0" type="curve" smooth="yes"/>
      <point x="331.0" y="576.0"/>
      <point x="282.0" y="634.0"/>
      <point x="231.0" y="634.0" type="curve" smooth="yes"/>
      <point x="191.0" y="634.0"/>
      <point x="156.0" y="598.0"/>
      <point x="137.0" y="546.0" type="curve"/>
      <point x="164.0" y="531.0" type="line"/>
      <point x="181.0" y="561.0"/>
      <point x="194.0" y="581.0"/>
      <point x="225.0" y="581.0" type="curve" smooth="yes"/>
      <point x="269.0" y="581.0"/>
      <point x="318.0" y="523.0"/>
      <point x="369.0" y="523.0" type="curve" smooth="yes"/>
      <point x="409.0" y="523.0"/>
      <point x="444.0" y="559.0"/>
      <point x="463.0" y="611.0" type="curve"/>
    </contour>
  </outline>
</glyph>
<glyph name="brevecomb" format="2">
  <unicode hex="0306"/>
  <note>
    uni0306
  </note>
  <anchor x="300.0" y="425.0" name="_top"/>
  <anchor x="300.0" y="687.0" name="top"/>
  <outline>
    <contour>
      <point x="397.0" y="677.0" type="line"/>
      <point x="389.0" y="595.0"/>
      <point x="355.0" y="551.0"/>
      <point x="302.0" y="551.0" type="curve" smooth="yes"/>
      <point x="250.0" y="551.0"/>
      <point x="216.0" y="595.0"/>
      <point x="207.0" y="677.0" type="curve"/>
      <point x="174.0" y="666.0" type="line"/>
      <point x="176.0" y="556.0"/>
      <point x="225.0" y="495.0"/>
      <point x="301.0" y="495.0" type="curve" smooth="yes"/>
      <point x="377.0" y="495.0"/>
      <point x="424.0" y="556.0"/>
      <point x="426.0" y="666.0" type="curve"/>
    </contour>
  </outline>
</glyph>
<glyph name="dotaccentcomb" format="2">
  <unicode hex="0307"/>
  <note>
    uni0307
  </note>
  <anchor x="300.0" y="425.0" name="_top"/>
  <anchor x="300.0" y="671.0" name="top"/>
  <outline>
    <contour>
      <point x="301.0" y="536.0" type="curve" smooth="yes"/>
      <point x="322.0" y="536.0"/>
      <point x="343.0" y="552.0"/>
      <point x="343.0" y="578.0" type="curve" smooth="yes"/>
      <point x="343.0" y="602.0"/>
      <point x="322.0" y="620.0"/>
      <point x="301.0" y="620.0" type="curve" smooth="yes"/>
      <point x="279.0" y="620.0"/>
      <point x="257.0" y="602.0"/>
      <point x="257.0" y="578.0" type="curve" smooth="yes"/>
      <point x="257.0" y="552.0"/>
      <point x="279.0" y="536.0"/>
    </contour>
  </outline>
</glyph>
<glyph name="hookabovecomb" format="2">
  <unicode hex="0309"/>
  <note>
    hookabovecomb
  </note>
  <anchor x="300.0" y="425.0" name="_top"/>
  <anchor x="300.0" y="687.0" name="top"/>
  <outline>
    <contour>
      <point x="304.0" y="667.0" type="curve" smooth="yes"/>
      <point x="252.0" y="667.0"/>
      <point x="217.0" y="643.0"/>
      <point x="217.0" y="619.0" type="curve" smooth="yes"/>
      <point x="217.0" y="605.0"/>
      <point x="226.0" y="596.0"/>
      <point x="240.0" y="596.0" type="curve" smooth="yes"/>
      <point x="254.0" y="596.0"/>
      <point x="258.0" y="600.0"/>
      <point x="276.0" y="617.0" type="curve" smooth="yes"/>
      <point x="308.0" y="646.0" type="line"/>
      <point x="275.0" y="640.0" type="line"/>
      <point x="304.0" y="648.0"/>
      <point x="333.0" y="645.0"/>
      <point x="333.0" y="609.0" type="curve" smooth="yes"/>
      <point x="333.0" y="580.0"/>
      <point x="287.0" y="565.0"/>
      <point x="287.0" y="507.0" type="curve" smooth="yes"/>
      <point x="287.0" y="490.0" type="line"/>
      <point x="314.0" y="490.0" type="line"/>
      <point x="314.0" y="556.0"/>
      <point x="390.0" y="539.0"/>
      <point x="390.0" y="605.0" type="curve" smooth="yes"/>
      <point x="390.0" y="643.0"/>
      <point x="354.0" y="667.0"/>
    </contour>
  </outline>
</glyph>
<glyph name="hungarumlautcomb" format="2">
  <unicode hex="030B"/>
  <note>
    uni030B
  </note>
  <anchor x="300.0" y="425.0" name="_top"/>
  <anchor x="300.0" y="687.0" name="top"/>
  <outline>
    <contour>
      <point x="373.0" y="482.0" type="line"/>
      <point x="480.0" y="664.0" type="line"/>
      <point x="419.0" y="677.0" type="line"/>
      <point x="349.0" y="492.0" type="line"/>
    </contour>
    <contour>
      <point x="251.0" y="482.0" type="line"/>
      <point x="358.0" y="664.0" type="line"/>
      <point x="297.0" y="677.0" type="line"/>
      <point x="227.0" y="492.0" type="line"/>
    </contour>
  </outline>
</glyph>
<glyph name="dblgravecomb" format="2">
  <unicode hex="030F"/>
  <anchor x="300.0" y="425.0" name="_top"/>
  <anchor x="300.0" y="687.0" name="top"/>
  <outline>
    <contour>
      <point x="349.0" y="482.0" type="line"/>
      <point x="373.0" y="492.0" type="line"/>
      <point x="303.0" y="677.0" type="line"/>
      <point x="242.0" y="664.0" type="line"/>
    </contour>
    <contour>
      <point x="227.0" y="482.0" type="line"/>
      <point x="251.0" y="492.0" type="line"/>
      <point x="181.0" y="677.0" type="line"/>
      <point x="120.0" y="664.0" type="line"/>
    </contour>
  </outline>
</glyph>
<glyph name="dotbelowcomb" format="2">
  <unicode hex="0323"/>
  <note>
    uni0323
  </note>
  <anchor x="300.0" y="0.0" name="_bottom"/>
  <anchor x="300.0" y="-220.0" name="bottom"/>
  <outline>
    <contour>
      <point x="301.0" y="-194.0" type="curve" smooth="yes"/>
      <point x="322.0" y="-194.0"/>
      <point x="343.0" y="-178.0"/>
      <point x="343.0" y="-153.0" type="curve" smooth="yes"/>
      <point x="343.0" y="-128.0"/>
      <point x="322.0" y="-111.0"/>
      <point x="301.0" y="-111.0" type="curve" smooth="yes"/>
      <point x="279.0" y="-111.0"/>
      <point x="257.0" y="-128.0"/>
      <point x="257.0" y="-153.0" type="curve" smooth="yes"/>
      <point x="257.0" y="-178.0"/>
      <point x="279.0" y="-194.0"/>
    </contour>
  </outline>
</glyph>
<glyph name="macronbelowcomb" format="2">
  <unicode hex="0331"/>
  <anchor x="300.0" y="0.0" name="_bottom"/>
  <anchor x="300.0" y="-220.0" name="bottom"/>
  <outline>
    <contour>
      <point x="162.0" y="-130.0" type="line"/>
      <point x="162.0" y="-176.0" type="line"/>
      <point x="438.0" y="-176.0" type="line"/>
      <point x="438.0" y="-130.0" type="line"/>
    </contour>
  </outline>
</glyph>
<glyph name="strokeshortcomb" format="2">
  <unicode hex="0335"/>
  <anchor x="258.0" y="406.0" name="_stroke"/>
  <outline>
    <contour>
      <point x="100.0" y="389.0" type="line"/>
      <point x="416.0" y="389.0" type="line"/>
      <point x="416.0" y="423.0" type="line"/>
      <point x="100.0" y="423.0" type="line"/>
    </contour>
  </outline>
</glyph>
<glyph name="slashshortcomb" format="2">
  <unicode hex="0337"/>
  <anchor x="377.0" y="330.0" name="_center"/>
  <outline>
    <contour>
      <point x="289.0" y="249.0" type="line"/>
      <point x="484.0" y="384.0" type="line"/>
      <point x="465.0" y="411.0" type="line"/>
      <point x="269.0" y="276.0" type="line"/>
    </contour>
  </outline>
</glyph>
<glyph name="Germandbls" format="2">
  <advance width="672.0"/>
  <unicode hex="1E9E"/>
  <outline>
    <contour>
      <point x="42.0" y="0.0" type="line"/>
      <point x="229.0" y="0.0" type="line"/>
      <point x="231.0" y="32.0" type="line"/>
      <point x="171.0" y="45.0" type="line"/>
      <point x="167.0" y="53.0"/>
      <point x="166.0" y="92.0"/>
      <point x="166.0" y="189.0" type="curve"/>
      <point x="165.0" y="384.0" type="line"/>
      <point x="165.0" y="500.0"/>
      <point x="220.0" y="556.0"/>
      <point x="312.0" y="556.0" type="curve" smooth="yes"/>
      <point x="375.0" y="556.0"/>
      <point x="422.0" y="525.0"/>
      <point x="439.0" y="469.0" type="curve"/>
      <point x="489.0" y="469.0" type="line"/>
      <point x="460.0" y="554.0"/>
      <point x="398.0" y="597.0"/>
      <point x="312.0" y="597.0" type="curve" smooth="yes"/>
      <point x="184.0" y="597.0"/>
      <point x="104.0" y="510.0"/>
      <point x="104.0" y="358.0" type="curve"/>
      <point x="105.0" y="189.0" type="line"/>
      <point x="105.0" y="112.0"/>
      <point x="102.0" y="57.0"/>
      <point x="100.0" y="45.0" type="curve"/>
      <point x="40.0" y="32.0" type="line"/>
    </contour>
    <contour>
      <point x="452.0" y="-9.0" type="curve" smooth="yes"/>
      <point x="558.0" y="-9.0"/>
      <point x="625.0" y="43.0"/>
      <point x="625.0" y="129.0" type="curve" smooth="yes"/>
      <point x="625.0" y="282.0"/>
      <point x="368.0" y="252.0"/>
      <point x="368.0" y="375.0" type="curve" smooth="yes"/>
      <point x="368.0" y="416.0"/>
      <point x="404.0" y="451.0"/>
      <point x="477.0" y="451.0" type="curve" smooth="yes"/>
      <point x="504.0" y="451.0"/>
      <point x="525.0" y="449.0"/>
      <point x="545.0" y="440.0" type="curve"/>
      <point x="565.0" y="370.0" type="line"/>
      <point x="598.0" y="374.0" type="line"/>
      <point x="593.0" y="474.0" type="line"/>
      <point x="563.0" y="483.0"/>
      <point x="525.0" y="489.0"/>
      <point x="482.0" y="489.0" type="curve" smooth="yes"/>
      <point x="365.0" y="489.0"/>
      <point x="303.0" y="431.0"/>
      <point x="303.0" y="357.0" type="curve" smooth="yes"/>
      <point x="303.0" y="203.0"/>
      <point x="559.0" y="233.0"/>
      <point x="559.0" y="111.0" type="curve" smooth="yes"/>
      <point x="559.0" y="66.0"/>
      <point x="525.0" y="33.0"/>
      <point x="464.0" y="33.0" type="curve" smooth="yes"/>
      <point x="426.0" y="33.0"/>
      <point x="385.0" y="45.0"/>
      <point x="353.0" y="66.0" type="curve"/>
      <point x="335.0" y="153.0" type="line"/>
      <point x="299.0" y="149.0" type="line"/>
      <point x="300.0" y="27.0" type="line"/>
      <point x="336.0" y="7.0"/>
      <point x="392.0" y="-9.0"/>
    </contour>
  </outline>
</glyph>
<glyph name="quoteleft" format="2">
  <advance width="219.0"/>
  <unicode hex="2018"/>
  <note>
    quoteleft
  </note>
  <outline>
    <contour>
      <point x="174.0" y="698.0" type="line"/>
      <point x="115.0" y="676.0"/>
      <point x="58.0" y="595.0"/>
      <point x="58.0" y="529.0" type="curve" smooth="yes"/>
      <point x="58.0" y="483.0"/>
      <point x="82.0" y="457.0"/>
      <point x="110.0" y="457.0" type="curve" smooth="yes"/>
      <point x="136.0" y="457.0"/>
      <point x="153.0" y="476.0"/>
      <point x="153.0" y="497.0" type="curve" smooth="yes"/>
      <point x="153.0" y="539.0"/>
      <point x="115.0" y="537.0"/>
      <point x="115.0" y="579.0" type="curve" smooth="yes"/>
      <point x="115.0" y="624.0"/>
      <point x="145.0" y="655.0"/>
      <point x="186.0" y="675.0" type="curve"/>
    </contour>
  </outline>
</glyph>
<glyph name="quotesinglbase" format="2">
  <advance width="219.0"/>
  <unicode hex="201A"/>
  <note>
    quotesinglbase
  </note>
  <outline>
    <contour>
      <point x="45.0" y="-159.0" type="line"/>
      <point x="104.0" y="-137.0"/>
      <point x="161.0" y="-57.0"/>
      <point x="161.0" y="10.0" type="curve" smooth="yes"/>
      <point x="161.0" y="56.0"/>
      <point x="137.0" y="82.0"/>
      <point x="109.0" y="82.0" type="curve" smooth="yes"/>
      <point x="83.0" y="82.0"/>
      <point x="66.0" y="62.0"/>
      <point x="66.0" y="42.0" type="curve" smooth="yes"/>
      <point x="66.0" y="0.0"/>
      <point x="104.0" y="1.0"/>
      <point x="104.0" y="-40.0" type="curve" smooth="yes"/>
      <point x="104.0" y="-85.0"/>
      <point x="73.0" y="-117.0"/>
      <point x="33.0" y="-136.0" type="curve"/>
    </contour>
  </outline>
</glyph>
<glyph name="dagger" format="2">
  <advance width="440.0"/>
  <unicode hex="2020"/>
  <note>
    dagger
  </note>
  <outline>
    <contour>
      <point x="353.0" y="555.0" type="curve" smooth="yes"/>
      <point x="314.0" y="555.0"/>
      <point x="265.0" y="540.0"/>
      <point x="230.0" y="538.0" type="curve"/>
      <point x="231.0" y="573.0"/>
      <point x="246.0" y="622.0"/>
      <point x="246.0" y="661.0" type="curve" smooth="yes"/>
      <point x="246.0" y="683.0"/>
      <point x="235.0" y="698.0"/>
      <point x="220.0" y="698.0" type="curve" smooth="yes"/>
      <point x="205.0" y="698.0"/>
      <point x="193.0" y="683.0"/>
      <point x="193.0" y="661.0" type="curve" smooth="yes"/>
      <point x="193.0" y="622.0"/>
      <point x="208.0" y="573.0"/>
      <point x="210.0" y="538.0" type="curve"/>
      <point x="175.0" y="540.0"/>
      <point x="126.0" y="555.0"/>
      <point x="87.0" y="555.0" type="curve" smooth="yes"/>
      <point x="65.0" y="555.0"/>
      <point x="50.0" y="543.0"/>
      <point x="50.0" y="528.0" type="curve" smooth="yes"/>
      <point x="50.0" y="513.0"/>
      <point x="65.0" y="502.0"/>
      <point x="87.0" y="502.0" type="curve" smooth="yes"/>
      <point x="126.0" y="502.0"/>
      <point x="178.0" y="518.0"/>
      <point x="211.0" y="519.0" type="curve"/>
      <point x="203.0" y="472.0"/>
      <point x="196.0" y="432.0"/>
      <point x="186.0" y="391.0" type="curve"/>
      <point x="201.0" y="215.0"/>
      <point x="205.0" y="115.0"/>
      <point x="210.0" y="0.0" type="curve"/>
      <point x="232.0" y="0.0" type="line"/>
      <point x="236.0" y="115.0"/>
      <point x="239.0" y="215.0"/>
      <point x="253.0" y="391.0" type="curve"/>
      <point x="245.0" y="432.0"/>
      <point x="238.0" y="472.0"/>
      <point x="229.0" y="519.0" type="curve"/>
      <point x="261.0" y="518.0"/>
      <point x="313.0" y="502.0"/>
      <point x="353.0" y="502.0" type="curve" smooth="yes"/>
      <point x="375.0" y="502.0"/>
      <point x="390.0" y="513.0"/>
      <point x="390.0" y="528.0" type="curve" smooth="yes"/>
      <point x="390.0" y="543.0"/>
      <point x="375.0" y="555.0"/>
    </contour>
  </outline>
</glyph>
<glyph name="guilsinglleft" format="2">
  <advance width="356.0"/>
  <unicode hex="2039"/>
  <note>
    guilsinglleft
  </note>
  <outline>
    <contour>
      <point x="291.0" y="379.0" type="line"/>
      <point x="268.0" y="410.0" type="line"/>
      <point x="82.0" y="237.0" type="line"/>
      <point x="82.0" y="201.0" type="line"/>
      <point x="268.0" y="28.0" type="line"/>
      <point x="291.0" y="59.0" type="line"/>
      <point x="121.0" y="256.0" type="line"/>
      <point x="121.0" y="182.0" type="line"/>
    </contour>
  </outline>
</glyph>
<glyph name="guilsinglright" format="2">
  <advance width="356.0"/>
  <unicode hex="203A"/>
  <note>
    guilsinglright
  </note>
  <outline>
    <contour>
      <point x="65.0" y="379.0" type="line"/>
      <point x="235.0" y="182.0" type="line"/>
      <point x="235.0" y="256.0" type="line"/>
      <point x="65.0" y="59.0" type="line"/>
      <point x="87.0" y="28.0" type="line"/>
      <point x="274.0" y="201.0" type="line"/>
      <point x="274.0" y="237.0" type="line"/>
      <point x="87.0" y="410.0" type="line"/>
    </contour>
  </outline>
</glyph>
<glyph name="fraction" format="2">
  <advance width="86.0"/>
  <unicode hex="2044"/>
  <note>
    fraction
  </note>
  <outline>
    <contour>
      <point x="-107.0" y="-14.0" type="line"/>
      <point x="-74.0" y="-28.0" type="line"/>
      <point x="213.0" y="630.0" type="line"/>
      <point x="179.0" y="644.0" type="line"/>
    </contour>
  </outline>
</glyph>
<glyph name="commercialMinusSign" format="2">
  <advance width="540.0"/>
  <unicode hex="2052"/>
  <outline>
    <contour>
      <point x="149.0" y="0.0" type="line"/>
      <point x="198.0" y="0.0" type="line"/>
      <point x="392.0" y="587.0" type="line"/>
      <point x="344.0" y="587.0" type="line"/>
    </contour>
    <contour>
      <point x="318.0" y="-6.0" type="curve" smooth="yes"/>
      <point x="344.0" y="-6.0"/>
      <point x="363.0" y="15.0"/>
      <point x="363.0" y="44.0" type="curve" smooth="yes"/>
      <point x="363.0" y="72.0"/>
      <point x="344.0" y="94.0"/>
      <point x="318.0" y="94.0" type="curve" smooth="yes"/>
      <point x="290.0" y="94.0"/>
      <point x="272.0" y="72.0"/>
      <point x="272.0" y="44.0" type="curve" smooth="yes"/>
      <point x="272.0" y="15.0"/>
      <point x="290.0" y="-6.0"/>
    </contour>
    <contour>
      <point x="223.0" y="493.0" type="curve" smooth="yes"/>
      <point x="250.0" y="493.0"/>
      <point x="270.0" y="514.0"/>
      <point x="270.0" y="544.0" type="curve" smooth="yes"/>
      <point x="270.0" y="573.0"/>
      <point x="250.0" y="594.0"/>
      <point x="223.0" y="594.0" type="curve" smooth="yes"/>
      <point x="196.0" y="594.0"/>
      <point x="178.0" y="573.0"/>
      <point x="178.0" y="544.0" type="curve" smooth="yes"/>
      <point x="178.0" y="514.0"/>
      <point x="196.0" y="493.0"/>
    </contour>
  </outline>
</glyph>
<glyph name="fivesuperior" format="2">
  <advance width="400.0"/>
  <unicode hex="2075"/>
  <outline>
    <contour>
      <point x="171" y="193" type="curve" smooth="yes"/>
      <point x="263" y="193"/>
      <point x="340" y="249"/>
      <point x="340" y="316" type="curve" smooth="yes"/>
      <point x="340" y="388"/>
      <point x="279" y="428"/>
      <point x="125" y="444" type="curve"/>
      <point x="142" y="417" type="line"/>
      <point x="156" y="528" type="line"/>
      <point x="312" y="528" type="line"/>
      <point x="319" y="587" type="line"/>
      <point x="128" y="587" type="line"/>
      <point x="102" y="387" type="line"/>
      <point x="237" y="375"/>
      <point x="282" y="353"/>
      <point x="282" y="306" type="curve" smooth="yes"/>
      <point x="282" y="255"/>
      <point x="227.739" y="226"/>
      <point x="176" y="226" type="curve" smooth="yes"/>
      <point x="169" y="226"/>
      <point x="161" y="227"/>
      <point x="155" y="230" type="curve"/>
      <point x="142" y="243"/>
      <point x="128" y="261"/>
      <point x="117" y="277" type="curve"/>
      <point x="112" y="280"/>
      <point x="106" y="280"/>
      <point x="102" y="280" type="curve" smooth="yes"/>
      <point x="86" y="280"/>
      <point x="67" y="269"/>
      <point x="67" y="249" type="curve" smooth="yes"/>
      <point x="67" y="217"/>
      <point x="112" y="193"/>
    </contour>
  </outline>
</glyph>
<glyph name="ninesuperior" format="2">
  <advance width="400.0"/>
  <unicode hex="2079"/>
  <note>
    uni2089
  </note>
  <outline>
    <contour>
      <point x="285.0" y="421.0" type="curve"/>
      <point x="287.0" y="450.0" type="line"/>
      <point x="266.0" y="422.0"/>
      <point x="234.0" y="404.0"/>
      <point x="197.0" y="404.0" type="curve" smooth="yes"/>
      <point x="150.0" y="404.0"/>
      <point x="119.0" y="432.0"/>
      <point x="119.0" y="479.0" type="curve" smooth="yes"/>
      <point x="119.0" y="529.0"/>
      <point x="150.0" y="558.0"/>
      <point x="192.0" y="558.0" type="curve" smooth="yes"/>
      <point x="241.0" y="558.0"/>
      <point x="277.0" y="516.0"/>
      <point x="277.0" y="445.0" type="curve" smooth="yes"/>
      <point x="277.0" y="321.0"/>
      <point x="208.0" y="239.0"/>
      <point x="80.0" y="220.0" type="curve"/>
      <point x="94.0" y="187.0" type="line"/>
      <point x="241.0" y="201.0"/>
      <point x="343.0" y="309.0"/>
      <point x="343.0" y="434.0" type="curve" smooth="yes"/>
      <point x="343.0" y="532.0"/>
      <point x="280.0" y="593.0"/>
      <point x="197.0" y="593.0" type="curve" smooth="yes"/>
      <point x="116.0" y="593.0"/>
      <point x="57.0" y="535.0"/>
      <point x="57.0" y="465.0" type="curve" smooth="yes"/>
      <point x="57.0" y="406.0"/>
      <point x="103.0" y="354.0"/>
      <point x="178.0" y="354.0" type="curve" smooth="yes"/>
      <point x="218.0" y="354.0"/>
      <point x="256.0" y="380.0"/>
    </contour>
  </outline>
</glyph>
<glyph name="fourinferior" format="2">
  <advance width="400.0"/>
  <unicode hex="2084"/>
  <note>
    uni2084
  </note>
  <outline>
    <contour>
      <point x="288.0" y="40.0" type="line"/>
      <point x="288.0" y="290.0" type="line"/>
      <point x="288.0" y="324.0"/>
      <point x="289.0" y="359.0"/>
      <point x="290.0" y="391.0" type="curve"/>
      <point x="263.0" y="391.0" type="line"/>
      <point x="47.0" y="127.0" type="line"/>
      <point x="52.0" y="102.0" type="line"/>
      <point x="352.0" y="102.0" type="line"/>
      <point x="352.0" y="149.0" type="line"/>
      <point x="101.0" y="149.0" type="line"/>
      <point x="97.0" y="134.0" type="line"/>
      <point x="246.0" y="316.0" type="line"/>
      <point x="234.0" y="321.0" type="line"/>
      <point x="234.0" y="40.0" type="line"/>
      <point x="177.0" y="30.0" type="line"/>
      <point x="178.0" y="0.0" type="line"/>
      <point x="333.0" y="0.0" type="line"/>
      <point x="335.0" y="30.0" type="line"/>
    </contour>
  </outline>
</glyph>
<glyph name="sixinferior" format="2">
  <advance width="400.0"/>
  <unicode hex="2086"/>
  <note>
    uni2086
  </note>
  <outline>
    <contour>
      <point x="115.0" y="166.0" type="curve"/>
      <point x="113.0" y="137.0" type="line"/>
      <point x="135.0" y="165.0"/>
      <point x="166.0" y="183.0"/>
      <point x="203.0" y="183.0" type="curve" smooth="yes"/>
      <point x="251.0" y="183.0"/>
      <point x="281.0" y="155.0"/>
      <point x="281.0" y="108.0" type="curve" smooth="yes"/>
      <point x="281.0" y="58.0"/>
      <point x="250.0" y="29.0"/>
      <point x="208.0" y="29.0" type="curve" smooth="yes"/>
      <point x="159.0" y="29.0"/>
      <point x="123.0" y="72.0"/>
      <point x="123.0" y="142.0" type="curve" smooth="yes"/>
      <point x="123.0" y="266.0"/>
      <point x="192.0" y="348.0"/>
      <point x="321.0" y="367.0" type="curve"/>
      <point x="306.0" y="400.0" type="line"/>
      <point x="159.0" y="386.0"/>
      <point x="57.0" y="278.0"/>
      <point x="57.0" y="144.0" type="curve" smooth="yes"/>
      <point x="57.0" y="55.0"/>
      <point x="120.0" y="-6.0"/>
      <point x="203.0" y="-6.0" type="curve" smooth="yes"/>
      <point x="284.0" y="-6.0"/>
      <point x="343.0" y="52.0"/>
      <point x="343.0" y="122.0" type="curve" smooth="yes"/>
      <point x="343.0" y="181.0"/>
      <point x="297.0" y="233.0"/>
      <point x="222.0" y="233.0" type="curve" smooth="yes"/>
      <point x="182.0" y="233.0"/>
      <point x="144.0" y="207.0"/>
    </contour>
  </outline>
</glyph>
<glyph name="colonsign" format="2">
  <advance width="596.0"/>
  <unicode hex="20A1"/>
  <outline>
    <contour>
      <point x="170.0" y="-116.0" type="line"/>
      <point x="208.0" y="-116.0" type="line"/>
      <point x="386.0" y="703.0" type="line"/>
      <point x="348.0" y="703.0" type="line"/>
    </contour>
    <contour>
      <point x="273.0" y="-116.0" type="line"/>
      <point x="311.0" y="-116.0" type="line"/>
      <point x="489.0" y="703.0" type="line"/>
      <point x="451.0" y="703.0" type="line"/>
    </contour>
    <contour>
      <point x="366.0" y="-9.0" type="curve" smooth="yes"/>
      <point x="431.0" y="-9.0"/>
      <point x="489.0" y="9.0"/>
      <point x="538.0" y="32.0" type="curve"/>
      <point x="565.0" y="154.0" type="line"/>
      <point x="530.0" y="158.0" type="line"/>
      <point x="481.0" y="61.0" type="line"/>
      <point x="445.0" y="44.0"/>
      <point x="416.0" y="36.0"/>
      <point x="369.0" y="36.0" type="curve" smooth="yes"/>
      <point x="239.0" y="36.0"/>
      <point x="133.0" y="129.0"/>
      <point x="133.0" y="307.0" type="curve" smooth="yes"/>
      <point x="133.0" y="431.0"/>
      <point x="199.0" y="553.0"/>
      <point x="366.0" y="553.0" type="curve" smooth="yes"/>
      <point x="406.0" y="553.0"/>
      <point x="460.0" y="543.0"/>
      <point x="486.0" y="524.0" type="curve"/>
      <point x="513.0" y="433.0" type="line"/>
      <point x="550.0" y="437.0" type="line"/>
      <point x="543.0" y="566.0" type="line"/>
      <point x="492.0" y="586.0"/>
      <point x="425.0" y="596.0"/>
      <point x="375.0" y="596.0" type="curve" smooth="yes"/>
      <point x="164.0" y="596.0"/>
      <point x="56.0" y="446.0"/>
      <point x="56.0" y="292.0" type="curve" smooth="yes"/>
      <point x="56.0" y="89.0"/>
      <point x="202.0" y="-9.0"/>
    </contour>
  </outline>
</glyph>
<glyph name="franc" format="2">
  <advance width="492.0"/>
  <unicode hex="20A3"/>
  <outline>
    <contour>
      <point x="59.0" y="0.0" type="line"/>
      <point x="264.0" y="0.0" type="line"/>
      <point x="266.0" y="34.0" type="line"/>
      <point x="185.0" y="45.0" type="line"/>
      <point x="181.0" y="53.0"/>
      <point x="180.0" y="83.0"/>
      <point x="180.0" y="205.0" type="curve"/>
      <point x="179.0" y="406.0" type="line"/>
      <point x="179.0" y="449.0"/>
      <point x="180.0" y="532.0"/>
      <point x="181.0" y="542.0" type="curve"/>
      <point x="195.0" y="542.0"/>
      <point x="223.0" y="544.0"/>
      <point x="242.0" y="544.0" type="curve" smooth="yes"/>
      <point x="369.0" y="544.0" type="line" smooth="yes"/>
      <point x="383.0" y="544.0"/>
      <point x="397.0" y="543.0"/>
      <point x="402.0" y="542.0" type="curve"/>
      <point x="436.0" y="460.0" type="line"/>
      <point x="474.0" y="466.0" type="line"/>
      <point x="458.0" y="591.0" type="line"/>
      <point x="423.0" y="588.0"/>
      <point x="411.0" y="587.0"/>
      <point x="383.0" y="587.0" type="curve" smooth="yes"/>
      <point x="55.0" y="587.0" type="line"/>
      <point x="54.0" y="555.0" type="line"/>
      <point x="113.0" y="541.0" type="line"/>
      <point x="117.0" y="534.0"/>
      <point x="118.0" y="502.0"/>
      <point x="118.0" y="423.0" type="curve"/>
      <point x="117.0" y="181.0" type="line"/>
      <point x="117.0" y="85.0"/>
      <point x="116.0" y="53.0"/>
      <point x="112.0" y="45.0" type="curve"/>
      <point x="57.0" y="32.0" type="line"/>
    </contour>
    <contour>
      <point x="33.0" y="133.0" type="line"/>
      <point x="385.0" y="133.0" type="line"/>
      <point x="385.0" y="171.0" type="line"/>
      <point x="33.0" y="171.0" type="line"/>
    </contour>
    <contour>
      <point x="366.0" y="241.0" type="line"/>
      <point x="403.0" y="241.0" type="line"/>
      <point x="403.0" y="392.0" type="line"/>
      <point x="366.0" y="392.0" type="line"/>
      <point x="354.0" y="343.0" type="line"/>
      <point x="346.0" y="340.0"/>
      <point x="331.0" y="339.0"/>
      <point x="313.0" y="339.0" type="curve" smooth="yes"/>
      <point x="213.0" y="339.0" type="line" smooth="yes"/>
      <point x="198.0" y="339.0"/>
      <point x="181.0" y="340.0"/>
      <point x="164.0" y="341.0" type="curve"/>
      <point x="164.0" y="292.0" type="line"/>
      <point x="181.0" y="293.0"/>
      <point x="198.0" y="295.0"/>
      <point x="213.0" y="295.0" type="curve" smooth="yes"/>
      <point x="313.0" y="295.0" type="line" smooth="yes"/>
      <point x="331.0" y="295.0"/>
      <point x="346.0" y="293.0"/>
      <point x="354.0" y="290.0" type="curve"/>
    </contour>
  </outline>
</glyph>
<glyph name="naira" format="2">
  <advance width="665.0"/>
  <unicode hex="20A6"/>
  <outline>
    <contour>
      <point x="512.0" y="-4.0" type="line"/>
      <point x="548.0" y="-4.0" type="line"/>
      <point x="547.0" y="43.0"/>
      <point x="547.0" y="87.0"/>
      <point x="547.0" y="120.0" type="curve" smooth="yes"/>
      <point x="547.0" y="381.0" type="line" smooth="yes"/>
      <point x="547.0" y="507.0"/>
      <point x="551.0" y="537.0"/>
      <point x="552.0" y="542.0" type="curve"/>
      <point x="611.0" y="555.0" type="line"/>
      <point x="609.0" y="587.0" type="line"/>
      <point x="430.0" y="587.0" type="line"/>
      <point x="428.0" y="555.0" type="line"/>
      <point x="495.0" y="542.0" type="line"/>
      <point x="496.0" y="537.0"/>
      <point x="500.0" y="508.0"/>
      <point x="500.0" y="381.0" type="curve" smooth="yes"/>
      <point x="500.0" y="127.0" type="line"/>
      <point x="507.0" y="127.0" type="line"/>
      <point x="182.0" y="587.0" type="line"/>
      <point x="56.0" y="587.0" type="line"/>
      <point x="54.0" y="555.0" type="line"/>
      <point x="113.0" y="542.0" type="line"/>
      <point x="116.0" y="526.0"/>
      <point x="118.0" y="499.0"/>
      <point x="118.0" y="394.0" type="curve" smooth="yes"/>
      <point x="118.0" y="204.0" type="line" smooth="yes"/>
      <point x="118.0" y="76.0"/>
      <point x="114.0" y="50.0"/>
      <point x="113.0" y="45.0" type="curve"/>
      <point x="54.0" y="32.0" type="line"/>
      <point x="56.0" y="0.0" type="line"/>
      <point x="237.0" y="0.0" type="line"/>
      <point x="239.0" y="32.0" type="line"/>
      <point x="172.0" y="45.0" type="line"/>
      <point x="171.0" y="50.0"/>
      <point x="166.0" y="79.0"/>
      <point x="166.0" y="204.0" type="curve" smooth="yes"/>
      <point x="166.0" y="501.0" type="line"/>
      <point x="159.0" y="501.0" type="line"/>
    </contour>
    <contour>
      <point x="34.0" y="225.0" type="line"/>
      <point x="633.0" y="225.0" type="line"/>
      <point x="633.0" y="263.0" type="line"/>
      <point x="34.0" y="263.0" type="line"/>
    </contour>
    <contour>
      <point x="34.0" y="337.0" type="line"/>
      <point x="633.0" y="337.0" type="line"/>
      <point x="633.0" y="375.0" type="line"/>
      <point x="34.0" y="375.0" type="line"/>
    </contour>
  </outline>
</glyph>
<glyph name="won" format="2">
  <advance width="925.0"/>
  <unicode hex="20A9"/>
  <outline>
    <contour>
      <point x="64.0" y="317.0" type="line"/>
      <point x="865.0" y="317.0" type="line"/>
      <point x="865.0" y="355.0" type="line"/>
      <point x="64.0" y="355.0" type="line"/>
    </contour>
    <contour>
      <point x="484.0" y="462.0" type="line"/>
      <point x="462.0" y="539.0" type="line"/>
      <point x="293.0" y="83.0" type="line"/>
      <point x="299.0" y="83.0" type="line"/>
      <point x="133.0" y="543.0" type="line"/>
      <point x="184.0" y="555.0" type="line"/>
      <point x="182.0" y="587.0" type="line"/>
      <point x="14.0" y="587.0" type="line"/>
      <point x="12.0" y="555.0" type="line"/>
      <point x="62.0" y="542.0" type="line"/>
      <point x="263.0" y="-3.0" type="line"/>
      <point x="301.0" y="-3.0" type="line"/>
    </contour>
    <contour>
      <point x="619.0" y="-3.0" type="line"/>
      <point x="657.0" y="-3.0" type="line"/>
      <point x="867.0" y="542.0" type="line"/>
      <point x="917.0" y="555.0" type="line"/>
      <point x="915.0" y="587.0" type="line"/>
      <point x="740.0" y="587.0" type="line"/>
      <point x="738.0" y="555.0" type="line"/>
      <point x="809.0" y="542.0" type="line"/>
      <point x="646.0" y="83.0" type="line"/>
      <point x="655.0" y="83.0" type="line"/>
      <point x="493.0" y="543.0" type="line"/>
      <point x="552.0" y="555.0" type="line"/>
      <point x="550.0" y="587.0" type="line"/>
      <point x="376.0" y="587.0" type="line"/>
      <point x="374.0" y="555.0" type="line"/>
      <point x="423.0" y="542.0" type="line"/>
    </contour>
    <contour>
      <point x="64.0" y="195.0" type="line"/>
      <point x="865.0" y="195.0" type="line"/>
      <point x="865.0" y="233.0" type="line"/>
      <point x="64.0" y="233.0" type="line"/>
    </contour>
  </outline>
</glyph>
<glyph name="kip" format="2">
  <advance width="559.0"/>
  <unicode hex="20AD"/>
  <outline>
    <contour>
      <point x="369" y="0" type="line"/>
      <point x="572" y="0" type="line"/>
      <point x="572" y="33" type="line"/>
      <point x="514" y="47" type="line"/>
      <point x="496" y="62"/>
      <point x="472" y="90"/>
      <point x="446" y="119" type="curve" smooth="yes"/>
      <point x="282" y="300" type="line"/>
      <point x="255" y="300" type="line"/>
      <point x="502" y="543" type="line"/>
      <point x="555" y="553" type="line"/>
      <point x="553" y="587" type="line"/>
      <point x="378" y="587" type="line"/>
      <point x="376" y="555" type="line"/>
      <point x="435" y="541" type="line"/>
      <point x="204" y="295" type="line"/>
      <point x="381" y="93" type="line" smooth="yes"/>
      <point x="396" y="75"/>
      <point x="412" y="56"/>
      <point x="423" y="42" type="curve"/>
      <point x="367" y="32" type="line"/>
    </contour>
    <contour>
      <point x="56" y="0" type="line"/>
      <point x="245" y="0" type="line"/>
      <point x="247" y="32" type="line"/>
      <point x="182" y="45" type="line"/>
      <point x="181" y="55"/>
      <point x="179" y="99"/>
      <point x="179" y="189" type="curve" smooth="yes"/>
      <point x="179" y="397" type="line" smooth="yes"/>
      <point x="179" y="501"/>
      <point x="181" y="536"/>
      <point x="184" y="542" type="curve"/>
      <point x="244" y="555" type="line"/>
      <point x="242" y="587" type="line"/>
      <point x="56" y="587" type="line"/>
      <point x="54" y="555" type="line"/>
      <point x="114" y="542" type="line"/>
      <point x="117" y="534"/>
      <point x="118" y="490"/>
      <point x="118" y="397" type="curve" smooth="yes"/>
      <point x="118" y="189" type="line" smooth="yes"/>
      <point x="118" y="99"/>
      <point x="116" y="55"/>
      <point x="114" y="45" type="curve"/>
      <point x="54" y="32" type="line"/>
    </contour>
    <contour>
      <point x="35" y="283" type="line"/>
      <point x="479" y="283" type="line"/>
      <point x="479" y="321" type="line"/>
      <point x="35" y="321" type="line"/>
    </contour>
  </outline>
</glyph>
<glyph name="peso" format="2">
  <advance width="560.0"/>
  <unicode hex="20B1"/>
  <outline>
    <contour>
      <point x="34.0" y="335.0" type="line"/>
      <point x="518.0" y="335.0" type="line"/>
      <point x="518.0" y="373.0" type="line"/>
      <point x="34.0" y="373.0" type="line"/>
    </contour>
    <contour>
      <point x="34.0" y="457.0" type="line"/>
      <point x="518.0" y="457.0" type="line"/>
      <point x="518.0" y="495.0" type="line"/>
      <point x="34.0" y="495.0" type="line"/>
    </contour>
    <contour>
      <point x="59.0" y="0.0" type="line"/>
      <point x="264.0" y="0.0" type="line"/>
      <point x="266.0" y="34.0" type="line"/>
      <point x="185.0" y="47.0" type="line"/>
      <point x="182.0" y="52.0"/>
      <point x="180.0" y="70.0"/>
      <point x="180.0" y="184.0" type="curve"/>
      <point x="179.0" y="407.0" type="line"/>
      <point x="179.0" y="466.0"/>
      <point x="181.0" y="537.0"/>
      <point x="182.0" y="549.0" type="curve"/>
      <point x="243.0" y="549.0" type="line" smooth="yes"/>
      <point x="315.0" y="549.0"/>
      <point x="379.0" y="507.0"/>
      <point x="379.0" y="403.0" type="curve" smooth="yes"/>
      <point x="379.0" y="314.0"/>
      <point x="330.0" y="273.0"/>
      <point x="245.0" y="273.0" type="curve" smooth="yes"/>
      <point x="223.0" y="273.0"/>
      <point x="201.0" y="278.0"/>
      <point x="166.0" y="286.0" type="curve"/>
      <point x="166.0" y="240.0" type="line"/>
      <point x="189.0" y="236.0"/>
      <point x="214.0" y="232.0"/>
      <point x="248.0" y="232.0" type="curve" smooth="yes"/>
      <point x="358.0" y="232.0"/>
      <point x="443.0" y="297.0"/>
      <point x="443.0" y="415.0" type="curve" smooth="yes"/>
      <point x="443.0" y="528.0"/>
      <point x="374.0" y="587.0"/>
      <point x="257.0" y="587.0" type="curve" smooth="yes"/>
      <point x="56.0" y="587.0" type="line"/>
      <point x="54.0" y="555.0" type="line"/>
      <point x="114.0" y="539.0" type="line"/>
      <point x="115.0" y="534.0"/>
      <point x="117.0" y="517.0"/>
      <point x="117.0" y="407.0" type="curve"/>
      <point x="116.0" y="184.0" type="line"/>
      <point x="116.0" y="70.0"/>
      <point x="114.0" y="52.0"/>
      <point x="113.0" y="45.0" type="curve"/>
      <point x="57.0" y="32.0" type="line"/>
    </contour>
  </outline>
</glyph>
<glyph name="guarani" format="2">
  <advance width="644.0"/>
  <unicode hex="20B2"/>
  <outline>
    <contour>
      <point x="377.0" y="-9.0" type="curve" smooth="yes"/>
      <point x="438.0" y="-9.0"/>
      <point x="518.0" y="13.0"/>
      <point x="562.0" y="46.0" type="curve"/>
      <point x="560.0" y="80.0"/>
      <point x="559.0" y="104.0"/>
      <point x="559.0" y="155.0" type="curve" smooth="yes"/>
      <point x="559.0" y="195.0"/>
      <point x="559.0" y="257.0"/>
      <point x="559.0" y="274.0" type="curve"/>
      <point x="493.0" y="274.0" type="line"/>
      <point x="494.0" y="237.0"/>
      <point x="498.0" y="178.0"/>
      <point x="498.0" y="123.0" type="curve" smooth="yes"/>
      <point x="498.0" y="23.0" type="line"/>
      <point x="530.0" y="80.0" type="line"/>
      <point x="487.0" y="47.0"/>
      <point x="428.0" y="36.0"/>
      <point x="381.0" y="36.0" type="curve" smooth="yes"/>
      <point x="239.0" y="36.0"/>
      <point x="133.0" y="126.0"/>
      <point x="133.0" y="307.0" type="curve" smooth="yes"/>
      <point x="133.0" y="432.0"/>
      <point x="197.0" y="553.0"/>
      <point x="370.0" y="553.0" type="curve" smooth="yes"/>
      <point x="413.0" y="553.0"/>
      <point x="467.0" y="543.0"/>
      <point x="491.0" y="524.0" type="curve"/>
      <point x="519.0" y="436.0" type="line"/>
      <point x="555.0" y="441.0" type="line"/>
      <point x="547.0" y="566.0" type="line"/>
      <point x="499.0" y="586.0"/>
      <point x="430.0" y="596.0"/>
      <point x="378.0" y="596.0" type="curve" smooth="yes"/>
      <point x="163.0" y="596.0"/>
      <point x="55.0" y="446.0"/>
      <point x="55.0" y="292.0" type="curve" smooth="yes"/>
      <point x="55.0" y="89.0"/>
      <point x="200.0" y="-9.0"/>
    </contour>
    <contour>
      <point x="321.0" y="-116.0" type="line"/>
      <point x="357.0" y="-116.0" type="line"/>
      <point x="357.0" y="703.0" type="line"/>
      <point x="321.0" y="703.0" type="line"/>
    </contour>
  </outline>
</glyph>
<glyph name="rupeeIndian" format="2">
  <advance width="469.0"/>
  <unicode hex="20B9"/>
  <outline>
    <contour>
      <point x="383.0" y="-9.0" type="curve" smooth="yes"/>
      <point x="393.0" y="-9.0"/>
      <point x="408.0" y="-7.0"/>
      <point x="417.0" y="-6.0" type="curve"/>
      <point x="418.0" y="25.0" type="line"/>
      <point x="366.0" y="31.0"/>
      <point x="343.0" y="41.0"/>
      <point x="256.0" y="151.0" type="curve" smooth="yes"/>
      <point x="144.0" y="307.0" type="line"/>
      <point x="86.0" y="294.0" type="line"/>
      <point x="167.0" y="170.0" type="line" smooth="yes"/>
      <point x="256.0" y="29.0"/>
      <point x="302.0" y="-9.0"/>
    </contour>
    <contour>
      <point x="168.0" y="573.0" type="curve"/>
      <point x="153.0" y="549.0" type="line"/>
      <point x="232.0" y="549.0"/>
      <point x="276.0" y="512.0"/>
      <point x="276.0" y="433.0" type="curve" smooth="yes"/>
      <point x="276.0" y="360.0"/>
      <point x="228.0" y="313.0"/>
      <point x="134.0" y="313.0" type="curve" smooth="yes"/>
      <point x="52.0" y="313.0" type="line"/>
      <point x="52.0" y="275.0" type="line"/>
      <point x="136.0" y="275.0" type="line" smooth="yes"/>
      <point x="255.0" y="275.0"/>
      <point x="341.0" y="343.0"/>
      <point x="341.0" y="439.0" type="curve" smooth="yes"/>
      <point x="341.0" y="523.0"/>
      <point x="285.0" y="573.0"/>
    </contour>
    <contour>
      <point x="52.0" y="427.0" type="line"/>
      <point x="416.0" y="427.0" type="line"/>
      <point x="416.0" y="465.0" type="line"/>
      <point x="52.0" y="465.0" type="line"/>
    </contour>
    <contour>
      <point x="52.0" y="549.0" type="line"/>
      <point x="416.0" y="549.0" type="line"/>
      <point x="416.0" y="587.0" type="line"/>
      <point x="52.0" y="587.0" type="line"/>
    </contour>
  </outline>
</glyph>
<glyph name="liraTurkish" format="2">
  <advance width="481.0"/>
  <unicode hex="20BA"/>
  <outline>
    <contour>
      <point x="266.0" y="-9.0" type="curve" smooth="yes"/>
      <point x="375.0" y="-9.0"/>
      <point x="438.0" y="37.0"/>
      <point x="476.0" y="117.0" type="curve"/>
      <point x="441.0" y="134.0" type="line"/>
      <point x="414.0" y="83.0"/>
      <point x="366.0" y="46.0"/>
      <point x="290.0" y="46.0" type="curve" smooth="yes"/>
      <point x="247.0" y="46.0"/>
      <point x="196.0" y="57.0"/>
      <point x="159.0" y="84.0" type="curve"/>
      <point x="158.0" y="397.0" type="line" smooth="yes"/>
      <point x="158.0" y="516.0"/>
      <point x="162.0" y="537.0"/>
      <point x="165.0" y="541.0" type="curve"/>
      <point x="225.0" y="555.0" type="line"/>
      <point x="223.0" y="587.0" type="line"/>
      <point x="31.0" y="587.0" type="line"/>
      <point x="29.0" y="555.0" type="line"/>
      <point x="89.0" y="541.0" type="line"/>
      <point x="92.0" y="540.0"/>
      <point x="96.0" y="519.0"/>
      <point x="96.0" y="397.0" type="curve" smooth="yes"/>
      <point x="96.0" y="39.0" type="line"/>
      <point x="140.0" y="10.0"/>
      <point x="216.0" y="-9.0"/>
    </contour>
    <contour>
      <point x="11.0" y="192.0" type="line"/>
      <point x="388.0" y="342.0" type="line"/>
      <point x="388.0" y="379.0" type="line"/>
      <point x="11.0" y="230.0" type="line"/>
    </contour>
    <contour>
      <point x="11.0" y="314.0" type="line"/>
      <point x="388.0" y="463.0" type="line"/>
      <point x="388.0" y="500.0" type="line"/>
      <point x="11.0" y="351.0" type="line"/>
    </contour>
  </outline>
</glyph>
<glyph name="trademark" format="2">
  <advance width="1023.0"/>
  <unicode hex="2122"/>
  <outline>
    <contour>
      <point x="811.0" y="298.0" type="line"/>
      <point x="966.0" y="298.0" type="line"/>
      <point x="968.0" y="328.0" type="line"/>
      <point x="918.0" y="338.0" type="line"/>
      <point x="916.0" y="648.0" type="line"/>
      <point x="966.0" y="658.0" type="line"/>
      <point x="964.0" y="688.0" type="line"/>
      <point x="841.0" y="688.0" type="line"/>
      <point x="695.0" y="377.0" type="line"/>
      <point x="707.0" y="377.0" type="line"/>
      <point x="561.0" y="688.0" type="line"/>
      <point x="434.0" y="688.0" type="line"/>
      <point x="433.0" y="658.0" type="line"/>
      <point x="483.0" y="650.0" type="line"/>
      <point x="476.0" y="338.0" type="line"/>
      <point x="424.0" y="328.0" type="line"/>
      <point x="426.0" y="298.0" type="line"/>
      <point x="572.0" y="298.0" type="line"/>
      <point x="574.0" y="328.0" type="line"/>
      <point x="523.0" y="338.0" type="line"/>
      <point x="520.0" y="668.0" type="line"/>
      <point x="506.0" y="668.0" type="line"/>
      <point x="677.0" y="298.0" type="line"/>
      <point x="700.0" y="298.0" type="line"/>
      <point x="869.0" y="668.0" type="line"/>
      <point x="853.0" y="668.0" type="line"/>
      <point x="854.0" y="338.0" type="line"/>
      <point x="809.0" y="328.0" type="line"/>
    </contour>
    <contour>
      <point x="119.0" y="298.0" type="line"/>
      <point x="291.0" y="298.0" type="line"/>
      <point x="293.0" y="328.0" type="line"/>
      <point x="236.0" y="338.0" type="line"/>
      <point x="236.0" y="351.0"/>
      <point x="234.0" y="395.0"/>
      <point x="234.0" y="449.0" type="curve" smooth="yes"/>
      <point x="234.0" y="532.0" type="line" smooth="yes"/>
      <point x="234.0" y="582.0"/>
      <point x="236.0" y="644.0"/>
      <point x="235.0" y="654.0" type="curve"/>
      <point x="248.0" y="655.0"/>
      <point x="268.0" y="655.0"/>
      <point x="276.0" y="655.0" type="curve" smooth="yes"/>
      <point x="302.0" y="655.0" type="line" smooth="yes"/>
      <point x="310.0" y="655.0"/>
      <point x="319.0" y="654.0"/>
      <point x="328.0" y="653.0" type="curve"/>
      <point x="356.0" y="578.0" type="line"/>
      <point x="386.0" y="581.0" type="line"/>
      <point x="371.0" y="691.0" type="line"/>
      <point x="348.0" y="689.0"/>
      <point x="328.0" y="688.0"/>
      <point x="305.0" y="688.0" type="curve" smooth="yes"/>
      <point x="103.0" y="688.0" type="line" smooth="yes"/>
      <point x="83.0" y="688.0"/>
      <point x="61.0" y="689.0"/>
      <point x="39.0" y="691.0" type="curve"/>
      <point x="23.0" y="581.0" type="line"/>
      <point x="53.0" y="577.0" type="line"/>
      <point x="82.0" y="653.0" type="line"/>
      <point x="90.0" y="654.0"/>
      <point x="100.0" y="655.0"/>
      <point x="108.0" y="655.0" type="curve" smooth="yes"/>
      <point x="135.0" y="655.0" type="line" smooth="yes"/>
      <point x="145.0" y="655.0"/>
      <point x="163.0" y="655.0"/>
      <point x="175.0" y="654.0" type="curve"/>
      <point x="176.0" y="644.0"/>
      <point x="177.0" y="582.0"/>
      <point x="177.0" y="532.0" type="curve" smooth="yes"/>
      <point x="177.0" y="449.0" type="line" smooth="yes"/>
      <point x="177.0" y="395.0"/>
      <point x="175.0" y="351.0"/>
      <point x="174.0" y="338.0" type="curve"/>
      <point x="117.0" y="328.0" type="line"/>
    </contour>
  </outline>
</glyph>
<glyph name="Ohm" format="2">
  <advance width="654.28571"/>
  <unicode hex="2126"/>
  <outline>
    <contour>
      <point x="51.0" y="-5.0" type="line"/>
      <point x="73.0" y="-2.0"/>
      <point x="80.0" y="0.0"/>
      <point x="120.0" y="0.0" type="curve" smooth="yes"/>
      <point x="268.0" y="0.0" type="line"/>
      <point x="271.0" y="37.0" type="line"/>
      <point x="188.0" y="104.0"/>
      <point x="136.0" y="211.0"/>
      <point x="136.0" y="315.0" type="curve" smooth="yes"/>
      <point x="136.0" y="460.0"/>
      <point x="211.0" y="554.0"/>
      <point x="327.0" y="554.0" type="curve" smooth="yes"/>
      <point x="442.0" y="554.0"/>
      <point x="517.0" y="460.0"/>
      <point x="517.0" y="315.0" type="curve" smooth="yes"/>
      <point x="517.0" y="211.0"/>
      <point x="466.0" y="104.0"/>
      <point x="383.0" y="37.0" type="curve"/>
      <point x="384.0" y="0.0" type="line"/>
      <point x="533.0" y="0.0" type="line" smooth="yes"/>
      <point x="575.0" y="0.0"/>
      <point x="581.0" y="-2.0"/>
      <point x="602.0" y="-5.0" type="curve"/>
      <point x="640.0" y="136.0" type="line"/>
      <point x="602.0" y="144.0" type="line"/>
      <point x="553.0" y="44.0" type="line"/>
      <point x="422.0" y="44.0" type="line"/>
      <point x="418.0" y="28.0" type="line"/>
      <point x="527.0" y="104.0"/>
      <point x="594.0" y="218.0"/>
      <point x="594.0" y="322.0" type="curve" smooth="yes"/>
      <point x="594.0" y="482.0"/>
      <point x="481.0" y="596.0"/>
      <point x="327.0" y="596.0" type="curve" smooth="yes"/>
      <point x="173.0" y="596.0"/>
      <point x="58.0" y="471.0"/>
      <point x="58.0" y="325.0" type="curve" smooth="yes"/>
      <point x="58.0" y="219.0"/>
      <point x="117.0" y="109.0"/>
      <point x="236.0" y="28.0" type="curve"/>
      <point x="232.0" y="44.0" type="line"/>
      <point x="100.0" y="44.0" type="line"/>
      <point x="53.0" y="144.0" type="line"/>
      <point x="14.0" y="136.0" type="line"/>
    </contour>
  </outline>
</glyph>
<glyph name="partialdiff" format="2">
  <advance width="510.0"/>
  <unicode hex="2202"/>
  <note>
    partialdiff
  </note>
  <outline>
    <contour>
      <point x="214.0" y="-7.0" type="curve" smooth="yes"/>
      <point x="394.0" y="-7.0"/>
      <point x="479.0" y="250.0"/>
      <point x="479.0" y="425.0" type="curve" smooth="yes"/>
      <point x="479.0" y="634.0"/>
      <point x="375.0" y="695.0"/>
      <point x="247.0" y="695.0" type="curve" smooth="yes"/>
      <point x="225.0" y="695.0"/>
      <point x="208.0" y="693.0"/>
      <point x="187.0" y="690.0" type="curve"/>
      <point x="187.0" y="650.0" type="line"/>
      <point x="228.0" y="650.0" type="line" smooth="yes"/>
      <point x="328.0" y="650.0"/>
      <point x="419.0" y="607.0"/>
      <point x="419.0" y="443.0" type="curve" smooth="yes"/>
      <point x="419.0" y="412.0"/>
      <point x="415.0" y="377.0"/>
      <point x="408.0" y="337.0" type="curve"/>
      <point x="415.0" y="321.0" type="line"/>
      <point x="398.0" y="395.0"/>
      <point x="341.0" y="435.0"/>
      <point x="275.0" y="435.0" type="curve" smooth="yes"/>
      <point x="137.0" y="435.0"/>
      <point x="53.0" y="295.0"/>
      <point x="53.0" y="166.0" type="curve" smooth="yes"/>
      <point x="53.0" y="66.0"/>
      <point x="109.0" y="-7.0"/>
    </contour>
    <contour>
      <point x="222.0" y="35.0" type="curve" smooth="yes"/>
      <point x="160.0" y="35.0"/>
      <point x="120.0" y="82.0"/>
      <point x="120.0" y="166.0" type="curve" smooth="yes"/>
      <point x="120.0" y="263.0"/>
      <point x="169.0" y="392.0"/>
      <point x="274.0" y="392.0" type="curve" smooth="yes"/>
      <point x="336.0" y="392.0"/>
      <point x="392.0" y="347.0"/>
      <point x="392.0" y="257.0" type="curve" smooth="yes"/>
      <point x="392.0" y="163.0"/>
      <point x="330.0" y="35.0"/>
    </contour>
  </outline>
</glyph>
<glyph name="emptyset" format="2">
  <advance width="540.0"/>
  <unicode hex="2205"/>
  <outline>
    <contour>
      <point x="30.0" y="6.0" type="line"/>
      <point x="72.0" y="-22.0" type="line"/>
      <point x="141.0" y="69.0" type="line"/>
      <point x="181.0" y="48.0"/>
      <point x="225.0" y="36.0"/>
      <point x="272.0" y="36.0" type="curve" smooth="yes"/>
      <point x="415.0" y="36.0"/>
      <point x="534.0" y="149.0"/>
      <point x="534.0" y="287.0" type="curve" smooth="yes"/>
      <point x="534.0" y="360.0"/>
      <point x="502.0" y="425.0"/>
      <point x="453.0" y="469.0" type="curve"/>
      <point x="521.0" y="559.0" type="line"/>
      <point x="480.0" y="590.0" type="line"/>
      <point x="411.0" y="500.0" type="line"/>
      <point x="371.0" y="525.0"/>
      <point x="322.0" y="540.0"/>
      <point x="272.0" y="540.0" type="curve" smooth="yes"/>
      <point x="120.0" y="540.0"/>
      <point x="7.0" y="420.0"/>
      <point x="7.0" y="287.0" type="curve" smooth="yes"/>
      <point x="7.0" y="209.0"/>
      <point x="45.0" y="143.0"/>
      <point x="98.0" y="97.0" type="curve"/>
    </contour>
    <contour>
      <point x="128.0" y="135.0" type="line"/>
      <point x="87.0" y="173.0"/>
      <point x="61.0" y="227.0"/>
      <point x="61.0" y="287.0" type="curve" smooth="yes"/>
      <point x="61.0" y="401.0"/>
      <point x="153.0" y="490.0"/>
      <point x="272.0" y="490.0" type="curve" smooth="yes"/>
      <point x="313.0" y="490.0"/>
      <point x="352.0" y="479.0"/>
      <point x="382.0" y="461.0" type="curve"/>
    </contour>
    <contour>
      <point x="272.0" y="82.0" type="curve" smooth="yes"/>
      <point x="233.0" y="82.0"/>
      <point x="198.0" y="91.0"/>
      <point x="169.0" y="108.0" type="curve"/>
      <point x="422.0" y="430.0" type="line"/>
      <point x="459.0" y="393.0"/>
      <point x="481.0" y="342.0"/>
      <point x="481.0" y="287.0" type="curve" smooth="yes"/>
      <point x="481.0" y="167.0"/>
      <point x="386.0" y="82.0"/>
    </contour>
  </outline>
</glyph>
<glyph name="summation" format="2">
  <advance width="484.0"/>
  <unicode hex="2211"/>
  <note>
    summation
  </note>
  <outline>
    <contour>
      <point x="413.0" y="71.0" type="line"/>
      <point x="401.0" y="-23.0" type="line"/>
      <point x="384.0" y="-25.0"/>
      <point x="366.0" y="-26.0"/>
      <point x="343.0" y="-26.0" type="curve" smooth="yes"/>
      <point x="65.0" y="-26.0" type="line"/>
      <point x="67.0" y="-77.0" type="line"/>
      <point x="312.0" y="270.0" type="line"/>
      <point x="92.0" y="572.0" type="line"/>
      <point x="84.0" y="544.0" type="line"/>
      <point x="341.0" y="544.0" type="line" smooth="yes"/>
      <point x="364.0" y="544.0"/>
      <point x="382.0" y="543.0"/>
      <point x="399.0" y="543.0" type="curve"/>
      <point x="410.0" y="441.0" type="line"/>
      <point x="443.0" y="441.0" type="line"/>
      <point x="444.0" y="588.0" type="line"/>
      <point x="414.0" y="587.0"/>
      <point x="393.0" y="587.0"/>
      <point x="368.0" y="587.0" type="curve" smooth="yes"/>
      <point x="88.0" y="587.0" type="line" smooth="yes"/>
      <point x="63.0" y="587.0"/>
      <point x="38.0" y="588.0"/>
      <point x="13.0" y="589.0" type="curve"/>
      <point x="13.0" y="561.0" type="line"/>
      <point x="259.0" y="220.0" type="line"/>
      <point x="257.0" y="272.0" type="line"/>
      <point x="18.0" y="-63.0" type="line"/>
      <point x="18.0" y="-92.0" type="line"/>
      <point x="43.0" y="-91.0"/>
      <point x="68.0" y="-90.0"/>
      <point x="94.0" y="-90.0" type="curve" smooth="yes"/>
      <point x="370.0" y="-90.0" type="line" smooth="yes"/>
      <point x="394.0" y="-90.0"/>
      <point x="416.0" y="-90.0"/>
      <point x="445.0" y="-91.0" type="curve"/>
      <point x="445.0" y="71.0" type="line"/>
    </contour>
  </outline>
</glyph>
<glyph name="minus" format="2">
  <advance width="540.0"/>
  <unicode hex="2212"/>
  <outline>
    <contour>
      <point x="487.0" y="280.0" type="line"/>
      <point x="53.0" y="280.0" type="line"/>
      <point x="53.0" y="226.0" type="line"/>
      <point x="487.0" y="226.0" type="line"/>
    </contour>
  </outline>
</glyph>
<glyph name="divisionslash" format="2">
  <advance width="540.0"/>
  <unicode hex="2215"/>
  <note>
    slash
  </note>
  <outline>
    <contour>
      <point x="148.0" y="0.0" type="line"/>
      <point x="197.0" y="0.0" type="line"/>
      <point x="392.0" y="587.0" type="line"/>
      <point x="342.0" y="587.0" type="line"/>
    </contour>
  </outline>
</glyph>
<glyph name="radical" format="2">
  <advance width="525.0"/>
  <unicode hex="221A"/>
  <note>
    radical
  </note>
  <outline>
    <contour>
      <point x="248.0" y="-94.0" type="line"/>
      <point x="274.0" y="-94.0" type="line"/>
      <point x="531.0" y="688.0" type="line"/>
      <point x="474.0" y="688.0" type="line"/>
      <point x="254.0" y="-44.0" type="line"/>
      <point x="288.0" y="-38.0" type="line"/>
      <point x="135.0" y="372.0" type="line" smooth="yes"/>
      <point x="126.0" y="397.0"/>
      <point x="123.0" y="411.0"/>
      <point x="119.0" y="427.0" type="curve"/>
      <point x="7.0" y="427.0" type="line"/>
      <point x="5.0" y="394.0" type="line"/>
      <point x="65.0" y="383.0" type="line"/>
    </contour>
  </outline>
</glyph>
<glyph name="infinity" format="2">
  <advance width="737.0"/>
  <unicode hex="221E"/>
  <outline>
    <contour>
      <point x="42.0" y="295.0" type="curve" smooth="yes"/>
      <point x="42.0" y="182.0"/>
      <point x="108.0" y="108.0"/>
      <point x="209.0" y="108.0" type="curve" smooth="yes"/>
      <point x="292.0" y="108.0"/>
      <point x="353.0" y="161.0"/>
      <point x="378.0" y="248.0" type="curve"/>
      <point x="362.0" y="287.0" type="line"/>
      <point x="330.0" y="191.0"/>
      <point x="278.0" y="158.0"/>
      <point x="218.0" y="158.0" type="curve" smooth="yes"/>
      <point x="154.0" y="158.0"/>
      <point x="90.0" y="205.0"/>
      <point x="90.0" y="308.0" type="curve" smooth="yes"/>
      <point x="90.0" y="393.0"/>
      <point x="133.0" y="440.0"/>
      <point x="203.0" y="440.0" type="curve" smooth="yes"/>
      <point x="262.0" y="440.0"/>
      <point x="301.0" y="380.0"/>
      <point x="348.0" y="281.0" type="curve" smooth="yes"/>
      <point x="401.0" y="170.0"/>
      <point x="452.0" y="108.0"/>
      <point x="525.0" y="108.0" type="curve" smooth="yes"/>
      <point x="610.0" y="108.0"/>
      <point x="695.0" y="173.0"/>
      <point x="695.0" y="303.0" type="curve" smooth="yes"/>
      <point x="695.0" y="416.0"/>
      <point x="630.0" y="490.0"/>
      <point x="529.0" y="490.0" type="curve" smooth="yes"/>
      <point x="446.0" y="490.0"/>
      <point x="385.0" y="437.0"/>
      <point x="359.0" y="350.0" type="curve"/>
      <point x="375.0" y="311.0" type="line"/>
      <point x="408.0" y="407.0"/>
      <point x="460.0" y="440.0"/>
      <point x="519.0" y="440.0" type="curve" smooth="yes"/>
      <point x="602.0" y="440.0"/>
      <point x="647.0" y="368.0"/>
      <point x="647.0" y="290.0" type="curve" smooth="yes"/>
      <point x="647.0" y="205.0"/>
      <point x="604.0" y="158.0"/>
      <point x="535.0" y="158.0" type="curve" smooth="yes"/>
      <point x="477.0" y="158.0"/>
      <point x="435.0" y="218.0"/>
      <point x="379.0" y="343.0" type="curve" smooth="yes"/>
      <point x="340.0" y="430.0"/>
      <point x="294.0" y="490.0"/>
      <point x="208.0" y="490.0" type="curve" smooth="yes"/>
      <point x="123.0" y="490.0"/>
      <point x="42.0" y="425.0"/>
    </contour>
  </outline>
</glyph>
<glyph name="integral" format="2">
  <advance width="361"/>
  <unicode hex="222B"/>
  <outline>
    <contour>
      <point x="73.86219224633192" y="-225.88992006308752" type="curve" smooth="yes"/>
      <point x="25.213403737586077" y="-225.88992006308752"/>
      <point x="-13.865131294029425" y="-198.8539539901942"/>
      <point x="-13.865131294029425" y="-165.83657949409462" type="curve" smooth="yes"/>
      <point x="-13.865131294029425" y="-141.83657949409385"/>
      <point x="5.762749679900139" y="-128.25450423650705"/>
      <point x="27.3622800970345" y="-128.25450423650705" type="curve" smooth="yes"/>
      <point x="33.362280097034386" y="-128.25450423650705"/>
      <point x="38.831076914419555" y="-129.72903217965018"/>
      <point x="41.20813292853086" y="-131.25443901666472" type="curve"/>
      <point x="45.20813292853086" y="-150.25443901666472"/>
      <point x="64.22996684655641" y="-195.58411738550808"/>
      <point x="84.22996684655641" y="-195.58411738550808" type="curve" smooth="yes"/>
      <point x="113.22996684655641" y="-195.58411738550808"/>
      <point x="150.107" y="-162.995"/>
      <point x="145" y="-52" type="curve" smooth="yes"/>
      <point x="115" y="600" type="line" smooth="yes"/>
      <point x="109" y="731"/>
      <point x="166" y="798"/>
      <point x="237" y="798" type="curve" smooth="yes"/>
      <point x="282" y="798"/>
      <point x="327" y="773"/>
      <point x="327" y="737" type="curve" smooth="yes"/>
      <point x="327" y="709"/>
      <point x="299.001" y="701"/>
      <point x="284" y="701" type="curve" smooth="yes"/>
      <point x="280" y="701"/>
      <point x="275" y="701"/>
      <point x="272" y="702" type="curve"/>
      <point x="268" y="721"/>
      <point x="251" y="768"/>
      <point x="226" y="768" type="curve" smooth="yes"/>
      <point x="195" y="768"/>
      <point x="162.232" y="734.01"/>
      <point x="167" y="623" type="curve" smooth="yes"/>
      <point x="197" y="-29" type="line" smooth="yes"/>
      <point x="202.626" y="-160.016"/>
      <point x="144.86219224633192" y="-225.88992006308752"/>
    </contour>
  </outline>
</glyph>
<glyph name="approxequal" format="2">
  <advance width="540.0"/>
  <unicode hex="2248"/>
  <outline>
    <contour>
      <point x="463.0" y="382.0" type="line"/>
      <point x="444.0" y="348.0"/>
      <point x="420.0" y="329.0"/>
      <point x="386.0" y="329.0" type="curve" smooth="yes"/>
      <point x="331.0" y="329.0"/>
      <point x="246.0" y="404.0"/>
      <point x="167.0" y="404.0" type="curve" smooth="yes"/>
      <point x="116.0" y="404.0"/>
      <point x="76.0" y="371.0"/>
      <point x="53.0" y="315.0" type="curve"/>
      <point x="77.0" y="299.0" type="line"/>
      <point x="94.0" y="333.0"/>
      <point x="121.0" y="352.0"/>
      <point x="154.0" y="352.0" type="curve" smooth="yes"/>
      <point x="209.0" y="352.0"/>
      <point x="294.0" y="277.0"/>
      <point x="373.0" y="277.0" type="curve" smooth="yes"/>
      <point x="424.0" y="277.0"/>
      <point x="464.0" y="309.0"/>
      <point x="487.0" y="365.0" type="curve"/>
    </contour>
    <contour>
      <point x="463.0" y="204.0" type="line"/>
      <point x="444.0" y="170.0"/>
      <point x="420.0" y="151.0"/>
      <point x="386.0" y="151.0" type="curve" smooth="yes"/>
      <point x="331.0" y="151.0"/>
      <point x="246.0" y="226.0"/>
      <point x="167.0" y="226.0" type="curve" smooth="yes"/>
      <point x="116.0" y="226.0"/>
      <point x="76.0" y="193.0"/>
      <point x="53.0" y="137.0" type="curve"/>
      <point x="77.0" y="121.0" type="line"/>
      <point x="94.0" y="155.0"/>
      <point x="121.0" y="174.0"/>
      <point x="154.0" y="174.0" type="curve" smooth="yes"/>
      <point x="209.0" y="174.0"/>
      <point x="294.0" y="99.0"/>
      <point x="373.0" y="99.0" type="curve" smooth="yes"/>
      <point x="424.0" y="99.0"/>
      <point x="464.0" y="131.0"/>
      <point x="487.0" y="187.0" type="curve"/>
    </contour>
  </outline>
</glyph>
<glyph name="lessequal" format="2">
  <advance width="540.0"/>
  <unicode hex="2264"/>
  <outline>
    <contour>
      <point x="53.0" y="263.0" type="line"/>
      <point x="487.0" y="103.0" type="line"/>
      <point x="487.0" y="161.0" type="line"/>
      <point x="84.0" y="307.0" type="line"/>
      <point x="84.0" y="273.0" type="line"/>
      <point x="487.0" y="419.0" type="line"/>
      <point x="487.0" y="478.0" type="line"/>
      <point x="53.0" y="317.0" type="line"/>
    </contour>
    <contour>
      <point x="487.0" y="53.0" type="line"/>
      <point x="53.0" y="53.0" type="line"/>
      <point x="53.0" y="0.0" type="line"/>
      <point x="487.0" y="0.0" type="line"/>
    </contour>
  </outline>
</glyph>
<glyph name="rotatedFloralHeartBullet" format="2">
  <advance width="950.0"/>
  <unicode hex="2767"/>
  <note>
    uni2767
  </note>
  <outline>
    <contour>
      <point x="564.0" y="33.0" type="curve" smooth="yes"/>
      <point x="746.0" y="33.0"/>
      <point x="896.0" y="119.0"/>
      <point x="896.0" y="231.0" type="curve" smooth="yes"/>
      <point x="896.0" y="303.0"/>
      <point x="847.0" y="357.0"/>
      <point x="789.0" y="357.0" type="curve" smooth="yes"/>
      <point x="753.0" y="357.0"/>
      <point x="743.0" y="334.0"/>
      <point x="742.0" y="293.0" type="curve"/>
      <point x="818.0" y="296.0"/>
      <point x="854.0" y="270.0"/>
      <point x="854.0" y="227.0" type="curve" smooth="yes"/>
      <point x="854.0" y="186.0"/>
      <point x="818.0" y="161.0"/>
      <point x="775.0" y="161.0" type="curve" smooth="yes"/>
      <point x="741.0" y="161.0"/>
      <point x="702.0" y="170.0"/>
      <point x="591.0" y="205.0" type="curve" smooth="yes"/>
      <point x="488.0" y="237.0"/>
      <point x="447.0" y="274.0"/>
      <point x="447.0" y="334.0" type="curve" smooth="yes"/>
      <point x="447.0" y="379.0"/>
      <point x="476.0" y="406.0"/>
      <point x="524.0" y="406.0" type="curve" smooth="yes"/>
      <point x="587.0" y="406.0"/>
      <point x="629.0" y="358.0"/>
      <point x="661.0" y="270.0" type="curve" smooth="yes"/>
      <point x="684.0" y="207.0"/>
      <point x="702.0" y="178.0"/>
      <point x="733.0" y="154.0" type="curve"/>
      <point x="790.0" y="155.0" type="line"/>
      <point x="752.0" y="174.0"/>
      <point x="729.0" y="209.0"/>
      <point x="691.0" y="309.0" type="curve" smooth="yes"/>
      <point x="660.0" y="391.0"/>
      <point x="601.0" y="447.0"/>
      <point x="520.0" y="447.0" type="curve" smooth="yes"/>
      <point x="447.0" y="447.0"/>
      <point x="402.0" y="405.0"/>
      <point x="402.0" y="336.0" type="curve" smooth="yes"/>
      <point x="402.0" y="305.0"/>
      <point x="426.0" y="271.0"/>
      <point x="437.0" y="251.0" type="curve"/>
      <point x="384.0" y="252.0"/>
      <point x="344.0" y="218.0"/>
      <point x="344.0" y="170.0" type="curve" smooth="yes"/>
      <point x="344.0" y="89.0"/>
      <point x="433.0" y="33.0"/>
    </contour>
    <contour>
      <point x="232.0" y="60.0" type="curve" smooth="yes"/>
      <point x="283.0" y="60.0"/>
      <point x="305.0" y="85.0"/>
      <point x="305.0" y="111.0" type="curve" smooth="yes"/>
      <point x="305.0" y="124.0"/>
      <point x="299.0" y="136.0"/>
      <point x="290.0" y="145.0" type="curve"/>
      <point x="269.0" y="127.0"/>
      <point x="245.0" y="117.0"/>
      <point x="225.0" y="117.0" type="curve" smooth="yes"/>
      <point x="177.0" y="117.0"/>
      <point x="146.0" y="156.0"/>
      <point x="146.0" y="216.0" type="curve" smooth="yes"/>
      <point x="146.0" y="285.0"/>
      <point x="195.0" y="332.0"/>
      <point x="264.0" y="332.0" type="curve" smooth="yes"/>
      <point x="333.0" y="332.0"/>
      <point x="396.0" y="287.0"/>
      <point x="448.0" y="222.0" type="curve"/>
      <point x="442.0" y="275.0" type="line"/>
      <point x="402.0" y="328.0"/>
      <point x="333.0" y="370.0"/>
      <point x="256.0" y="370.0" type="curve" smooth="yes"/>
      <point x="169.0" y="370.0"/>
      <point x="104.0" y="308.0"/>
      <point x="104.0" y="215.0" type="curve" smooth="yes"/>
      <point x="104.0" y="124.0"/>
      <point x="155.0" y="60.0"/>
    </contour>
    <contour>
      <point x="104.0" y="164.0" type="curve" smooth="yes"/>
      <point x="203.0" y="164.0"/>
      <point x="271.0" y="215.0"/>
      <point x="271.0" y="295.0" type="curve" smooth="yes"/>
      <point x="271.0" y="382.0"/>
      <point x="203.0" y="404.0"/>
      <point x="203.0" y="515.0" type="curve" smooth="yes"/>
      <point x="203.0" y="539.0"/>
      <point x="210.0" y="559.0"/>
      <point x="225.0" y="578.0" type="curve"/>
      <point x="217.0" y="586.0"/>
      <point x="201.0" y="592.0"/>
      <point x="187.0" y="592.0" type="curve" smooth="yes"/>
      <point x="155.0" y="592.0"/>
      <point x="135.0" y="572.0"/>
      <point x="135.0" y="532.0" type="curve" smooth="yes"/>
      <point x="135.0" y="437.0"/>
      <point x="231.0" y="373.0"/>
      <point x="231.0" y="297.0" type="curve" smooth="yes"/>
      <point x="231.0" y="241.0"/>
      <point x="189.0" y="210.0"/>
      <point x="115.0" y="210.0" type="curve" smooth="yes"/>
      <point x="93.0" y="210.0"/>
      <point x="69.0" y="213.0"/>
      <point x="43.0" y="220.0" type="curve"/>
      <point x="40.0" y="214.0"/>
      <point x="38.0" y="209.0"/>
      <point x="38.0" y="201.0" type="curve" smooth="yes"/>
      <point x="38.0" y="180.0"/>
      <point x="57.0" y="164.0"/>
    </contour>
  </outline>
</glyph>
<glyph name="leftanglebracket-math" format="2">
  <advance width="540.0"/>
  <unicode hex="27E8"/>
  <outline>
    <contour>
      <point x="180.0" y="244.0" type="line"/>
      <point x="312.0" y="-160.0" type="line"/>
      <point x="362.0" y="-160.0" type="line"/>
      <point x="228.0" y="244.0" type="line"/>
      <point x="362.0" y="648.0" type="line"/>
      <point x="312.0" y="648.0" type="line"/>
    </contour>
  </outline>
</glyph>
<glyph name="acutecomb.case" format="2">
  <note>
    acutecomb.cap
  </note>
  <anchor x="300.0" y="660.0" name="_top"/>
  <anchor x="300.0" y="882.0" name="top"/>
  <outline>
    <contour>
      <point x="316.0" y="716.0" type="line"/>
      <point x="406.0" y="834.0" type="line"/>
      <point x="345.0" y="857.0" type="line"/>
      <point x="284.0" y="727.0" type="line"/>
    </contour>
  </outline>
</glyph>
<glyph name="acutecomb_dotaccentcomb" format="2">
  <anchor x="300.0" y="425.0" name="_top"/>
  <outline>
    <contour>
      <point x="315.0" y="482.0" type="line"/>
      <point x="446.0" y="654.0" type="line"/>
      <point x="384.0" y="677.0" type="line"/>
      <point x="285.0" y="492.0" type="line"/>
    </contour>
    <contour>
      <point x="296.0" y="697.0" type="curve" smooth="yes"/>
      <point x="318.0" y="697.0"/>
      <point x="337.0" y="713.0"/>
      <point x="337.0" y="740.0" type="curve" smooth="yes"/>
      <point x="337.0" y="765.0"/>
      <point x="318.0" y="783.0"/>
      <point x="296.0" y="783.0" type="curve" smooth="yes"/>
      <point x="273.0" y="783.0"/>
      <point x="252.0" y="765.0"/>
      <point x="252.0" y="740.0" type="curve" smooth="yes"/>
      <point x="252.0" y="713.0"/>
      <point x="273.0" y="697.0"/>
    </contour>
  </outline>
</glyph>
<glyph name="brevecomb_gravecomb" format="2">
  <anchor x="300.0" y="425.0" name="_top"/>
  <outline>
    <contour>
      <point x="397.0" y="677.0" type="line"/>
      <point x="389.0" y="595.0"/>
      <point x="355.0" y="551.0"/>
      <point x="302.0" y="551.0" type="curve" smooth="yes"/>
      <point x="250.0" y="551.0"/>
      <point x="216.0" y="595.0"/>
      <point x="207.0" y="677.0" type="curve"/>
      <point x="174.0" y="666.0" type="line"/>
      <point x="176.0" y="556.0"/>
      <point x="225.0" y="495.0"/>
      <point x="301.0" y="495.0" type="curve" smooth="yes"/>
      <point x="377.0" y="495.0"/>
      <point x="424.0" y="556.0"/>
      <point x="426.0" y="666.0" type="curve"/>
    </contour>
    <contour>
      <point x="304.0" y="634.0" type="line"/>
      <point x="336.0" y="644.0" type="line"/>
      <point x="262.0" y="790.0" type="line"/>
      <point x="198.0" y="767.0" type="line"/>
    </contour>
  </outline>
</glyph>
<glyph name="breveinvertedcomb.case" format="2">
  <anchor x="300.0" y="660.0" name="_top"/>
  <anchor x="300.0" y="882.0" name="top"/>
  <outline>
    <contour>
      <point x="173.0" y="713.0" type="line"/>
      <point x="184.0" y="762.0"/>
      <point x="229.0" y="793.0"/>
      <point x="300.0" y="793.0" type="curve" smooth="yes"/>
      <point x="366.0" y="793.0"/>
      <point x="412.0" y="762.0"/>
      <point x="423.0" y="713.0" type="curve"/>
      <point x="456.0" y="724.0" type="line"/>
      <point x="443.0" y="801.0"/>
      <point x="382.0" y="845.0"/>
      <point x="299.0" y="845.0" type="curve" smooth="yes"/>
      <point x="215.0" y="845.0"/>
      <point x="157.0" y="801.0"/>
      <point x="144.0" y="724.0" type="curve"/>
    </contour>
  </outline>
</glyph>
<glyph name="caroncomb.alt" format="2">
  <anchor x="286.0" y="688.0" name="_topright"/>
  <outline>
    <contour>
      <point x="300.0" y="513.0" type="line"/>
      <point x="345.0" y="555.0"/>
      <point x="372.0" y="600.0"/>
      <point x="372.0" y="633.0" type="curve" smooth="yes"/>
      <point x="372.0" y="667.0"/>
      <point x="356.0" y="693.0"/>
      <point x="323.0" y="693.0" type="curve" smooth="yes"/>
      <point x="302.0" y="693.0"/>
      <point x="286.0" y="679.0"/>
      <point x="286.0" y="660.0" type="curve" smooth="yes"/>
      <point x="286.0" y="625.0"/>
      <point x="321.0" y="628.0"/>
      <point x="321.0" y="596.0" type="curve" smooth="yes"/>
      <point x="321.0" y="581.0"/>
      <point x="312.0" y="556.0"/>
      <point x="285.0" y="527.0" type="curve"/>
    </contour>
  </outline>
</glyph>
<glyph name="caroncomb_dotaccentcomb" format="2">
  <advance width="600.0"/>
  <anchor x="300.0" y="425.0" name="_top"/>
  <outline>
    <contour>
      <point x="430.0" y="666.0" type="line"/>
      <point x="399.0" y="677.0" type="line"/>
      <point x="274.0" y="520.0" type="line"/>
      <point x="332.0" y="520.0" type="line"/>
      <point x="201.0" y="677.0" type="line"/>
      <point x="170.0" y="666.0" type="line"/>
      <point x="271.0" y="497.0" type="line"/>
      <point x="329.0" y="497.0" type="line"/>
    </contour>
    <contour>
      <point x="301.0" y="697.0" type="curve" smooth="yes"/>
      <point x="324.0" y="697.0"/>
      <point x="343.0" y="713.0"/>
      <point x="343.0" y="740.0" type="curve" smooth="yes"/>
      <point x="343.0" y="765.0"/>
      <point x="324.0" y="783.0"/>
      <point x="301.0" y="783.0" type="curve" smooth="yes"/>
      <point x="278.0" y="783.0"/>
      <point x="257.0" y="765.0"/>
      <point x="257.0" y="740.0" type="curve" smooth="yes"/>
      <point x="257.0" y="713.0"/>
      <point x="278.0" y="697.0"/>
    </contour>
  </outline>
</glyph>
<glyph name="circumflexcomb.case" format="2">
  <note>
    uni0302.cap
  </note>
  <anchor x="300.0" y="660.0" name="_top"/>
  <anchor x="300.0" y="867.0" name="top"/>
  <outline>
    <contour>
      <point x="460.0" y="734.0" type="line"/>
      <point x="329.0" y="843.0" type="line"/>
      <point x="271.0" y="843.0" type="line"/>
      <point x="140.0" y="734.0" type="line"/>
      <point x="168.0" y="713.0" type="line"/>
      <point x="329.0" y="808.0" type="line"/>
      <point x="271.0" y="808.0" type="line"/>
      <point x="432.0" y="713.0" type="line"/>
    </contour>
  </outline>
</glyph>
<glyph name="circumflexcomb_tildecomb.case" format="2">
  <anchor x="300.0" y="660.0" name="_top"/>
  <outline>
    <contour>
      <point x="168.0" y="713.0" type="line"/>
      <point x="329.0" y="808.0" type="line"/>
      <point x="271.0" y="808.0" type="line"/>
      <point x="432.0" y="713.0" type="line"/>
      <point x="460.0" y="734.0" type="line"/>
      <point x="329.0" y="843.0" type="line"/>
      <point x="271.0" y="843.0" type="line"/>
      <point x="140.0" y="734.0" type="line"/>
    </contour>
    <contour>
      <point x="368.0" y="870.0" type="curve" smooth="yes"/>
      <point x="408.0" y="870.0"/>
      <point x="442.0" y="906.0"/>
      <point x="461.0" y="961.0" type="curve"/>
      <point x="431.0" y="976.0" type="line"/>
      <point x="415.0" y="946.0"/>
      <point x="400.0" y="928.0"/>
      <point x="372.0" y="928.0" type="curve" smooth="yes"/>
      <point x="328.0" y="928.0"/>
      <point x="280.0" y="976.0"/>
      <point x="230.0" y="976.0" type="curve" smooth="yes"/>
      <point x="189.0" y="976.0"/>
      <point x="155.0" y="940.0"/>
      <point x="136.0" y="885.0" type="curve"/>
      <point x="166.0" y="870.0" type="line"/>
      <point x="182.0" y="900.0"/>
      <point x="195.0" y="918.0"/>
      <point x="226.0" y="918.0" type="curve" smooth="yes"/>
      <point x="269.0" y="918.0"/>
      <point x="318.0" y="870.0"/>
    </contour>
  </outline>
</glyph>
<glyph name="dieresiscomb_macroncomb.case" format="2">
  <advance width="600.0"/>
  <anchor x="300.0" y="660.0" name="_top"/>
  <outline>
    <contour>
      <point x="146.0" y="949.0" type="line"/>
      <point x="146.0" y="902.0" type="line"/>
      <point x="454.0" y="902.0" type="line"/>
      <point x="454.0" y="949.0" type="line"/>
    </contour>
    <contour>
      <point x="208.0" y="741.0" type="curve" smooth="yes"/>
      <point x="230.0" y="741.0"/>
      <point x="249.0" y="757.0"/>
      <point x="249.0" y="783.0" type="curve" smooth="yes"/>
      <point x="249.0" y="808.0"/>
      <point x="230.0" y="825.0"/>
      <point x="208.0" y="825.0" type="curve" smooth="yes"/>
      <point x="185.0" y="825.0"/>
      <point x="165.0" y="808.0"/>
      <point x="165.0" y="783.0" type="curve" smooth="yes"/>
      <point x="165.0" y="757.0"/>
      <point x="185.0" y="741.0"/>
    </contour>
    <contour>
      <point x="394.0" y="741.0" type="curve" smooth="yes"/>
      <point x="416.0" y="741.0"/>
      <point x="435.0" y="757.0"/>
      <point x="435.0" y="783.0" type="curve" smooth="yes"/>
      <point x="435.0" y="808.0"/>
      <point x="416.0" y="825.0"/>
      <point x="394.0" y="825.0" type="curve" smooth="yes"/>
      <point x="371.0" y="825.0"/>
      <point x="351.0" y="808.0"/>
      <point x="351.0" y="783.0" type="curve" smooth="yes"/>
      <point x="351.0" y="757.0"/>
      <point x="371.0" y="741.0"/>
    </contour>
  </outline>
</glyph>
<glyph name="dotaccentcomb_macroncomb.case" format="2">
  <advance width="600.0"/>
  <anchor x="300.0" y="660.0" name="_top"/>
  <outline>
    <contour>
      <point x="146.0" y="902.0" type="line"/>
      <point x="454.0" y="902.0" type="line"/>
      <point x="454.0" y="949.0" type="line"/>
      <point x="146.0" y="949.0" type="line"/>
    </contour>
    <contour>
      <point x="301.0" y="741.0" type="curve" smooth="yes"/>
      <point x="323.0" y="741.0"/>
      <point x="342.0" y="757.0"/>
      <point x="342.0" y="783.0" type="curve" smooth="yes"/>
      <point x="342.0" y="808.0"/>
      <point x="323.0" y="825.0"/>
      <point x="301.0" y="825.0" type="curve" smooth="yes"/>
      <point x="278.0" y="825.0"/>
      <point x="258.0" y="808.0"/>
      <point x="258.0" y="783.0" type="curve" smooth="yes"/>
      <point x="258.0" y="757.0"/>
      <point x="278.0" y="741.0"/>
    </contour>
  </outline>
</glyph>
<glyph name="dotaccentcomb_macroncomb" format="2">
  <advance width="600.0"/>
  <anchor x="300.0" y="425.0" name="_top"/>
  <outline>
    <contour>
      <point x="301.0" y="536.0" type="curve" smooth="yes"/>
      <point x="323.0" y="536.0"/>
      <point x="342.0" y="552.0"/>
      <point x="342.0" y="578.0" type="curve" smooth="yes"/>
      <point x="342.0" y="603.0"/>
      <point x="323.0" y="620.0"/>
      <point x="301.0" y="620.0" type="curve" smooth="yes"/>
      <point x="278.0" y="620.0"/>
      <point x="258.0" y="603.0"/>
      <point x="258.0" y="578.0" type="curve" smooth="yes"/>
      <point x="258.0" y="552.0"/>
      <point x="278.0" y="536.0"/>
    </contour>
    <contour>
      <point x="162.0" y="738.0" type="line"/>
      <point x="162.0" y="691.0" type="line"/>
      <point x="438.0" y="691.0" type="line"/>
      <point x="438.0" y="738.0" type="line"/>
    </contour>
  </outline>
</glyph>
<glyph name="eight.osf" format="2">
  <advance width="536.0"/>
  <note>
    eight.onum
  </note>
  <outline>
    <contour>
      <point x="264.0" y="-10.0" type="curve" smooth="yes"/>
      <point x="383.0" y="-10.0"/>
      <point x="466.0" y="69.0"/>
      <point x="466.0" y="172.0" type="curve" smooth="yes"/>
      <point x="466.0" y="368.0"/>
      <point x="154.0" y="329.0"/>
      <point x="154.0" y="519.0" type="curve" smooth="yes"/>
      <point x="154.0" y="591.0"/>
      <point x="203.0" y="633.0"/>
      <point x="265.0" y="633.0" type="curve" smooth="yes"/>
      <point x="341.0" y="633.0"/>
      <point x="386.0" y="576.0"/>
      <point x="386.0" y="492.0" type="curve" smooth="yes"/>
      <point x="386.0" y="438.0"/>
      <point x="365.0" y="392.0"/>
      <point x="308.0" y="335.0" type="curve"/>
      <point x="334.0" y="320.0" type="line"/>
      <point x="404.0" y="370.0"/>
      <point x="446.0" y="429.0"/>
      <point x="446.0" y="498.0" type="curve" smooth="yes"/>
      <point x="446.0" y="599.0"/>
      <point x="370.0" y="670.0"/>
      <point x="273.0" y="670.0" type="curve" smooth="yes"/>
      <point x="172.0" y="670.0"/>
      <point x="92.0" y="598.0"/>
      <point x="92.0" y="499.0" type="curve" smooth="yes"/>
      <point x="92.0" y="294.0"/>
      <point x="404.0" y="335.0"/>
      <point x="404.0" y="148.0" type="curve" smooth="yes"/>
      <point x="404.0" y="73.0"/>
      <point x="355.0" y="29.0"/>
      <point x="277.0" y="29.0" type="curve" smooth="yes"/>
      <point x="180.0" y="29.0"/>
      <point x="131.0" y="96.0"/>
      <point x="131.0" y="166.0" type="curve" smooth="yes"/>
      <point x="131.0" y="230.0"/>
      <point x="167.0" y="287.0"/>
      <point x="257.0" y="324.0" type="curve"/>
      <point x="218.0" y="340.0" type="line"/>
      <point x="127.0" y="312.0"/>
      <point x="69.0" y="251.0"/>
      <point x="69.0" y="167.0" type="curve" smooth="yes"/>
      <point x="69.0" y="64.0"/>
      <point x="144.0" y="-10.0"/>
    </contour>
  </outline>
</glyph>
<glyph name="eight.tosf" format="2">
  <advance width="540.0"/>
  <note>
    eight.onum
  </note>
  <outline>
    <contour>
      <point x="264.0" y="-10.0" type="curve" smooth="yes"/>
      <point x="384.0" y="-10.0"/>
      <point x="466.0" y="69.0"/>
      <point x="466.0" y="172.0" type="curve" smooth="yes"/>
      <point x="466.0" y="368.0"/>
      <point x="159.0" y="329.0"/>
      <point x="159.0" y="519.0" type="curve" smooth="yes"/>
      <point x="159.0" y="591.0"/>
      <point x="206.0" y="633.0"/>
      <point x="267.0" y="633.0" type="curve" smooth="yes"/>
      <point x="341.0" y="633.0"/>
      <point x="385.0" y="576.0"/>
      <point x="385.0" y="489.0" type="curve" smooth="yes"/>
      <point x="385.0" y="438.0"/>
      <point x="360.0" y="389.0"/>
      <point x="310.0" y="337.0" type="curve"/>
      <point x="336.0" y="325.0" type="line"/>
      <point x="408.0" y="368.0"/>
      <point x="446.0" y="429.0"/>
      <point x="446.0" y="498.0" type="curve" smooth="yes"/>
      <point x="446.0" y="599.0"/>
      <point x="371.0" y="670.0"/>
      <point x="275.0" y="670.0" type="curve" smooth="yes"/>
      <point x="175.0" y="670.0"/>
      <point x="96.0" y="598.0"/>
      <point x="96.0" y="499.0" type="curve" smooth="yes"/>
      <point x="96.0" y="294.0"/>
      <point x="402.0" y="335.0"/>
      <point x="402.0" y="148.0" type="curve" smooth="yes"/>
      <point x="402.0" y="73.0"/>
      <point x="354.0" y="29.0"/>
      <point x="279.0" y="29.0" type="curve" smooth="yes"/>
      <point x="184.0" y="29.0"/>
      <point x="137.0" y="96.0"/>
      <point x="137.0" y="166.0" type="curve" smooth="yes"/>
      <point x="137.0" y="230.0"/>
      <point x="171.0" y="287.0"/>
      <point x="259.0" y="324.0" type="curve"/>
      <point x="218.0" y="340.0" type="line"/>
      <point x="133.0" y="312.0"/>
      <point x="74.0" y="251.0"/>
      <point x="74.0" y="167.0" type="curve" smooth="yes"/>
      <point x="74.0" y="64.0"/>
      <point x="148.0" y="-10.0"/>
    </contour>
  </outline>
</glyph>
<glyph name="f_i" format="2">
  <advance width="523.0"/>
  <note>
    f_i
  </note>
  <outline>
    <contour>
      <point x="39.0" y="0.0" type="line"/>
      <point x="220.0" y="0.0" type="line"/>
      <point x="222.0" y="31.0" type="line"/>
      <point x="155.0" y="45.0" type="line"/>
      <point x="152.0" y="100.0"/>
      <point x="152.0" y="157.0"/>
      <point x="152.0" y="193.0" type="curve" smooth="yes"/>
      <point x="152.0" y="423.0" type="line"/>
      <point x="152.0" y="485.0" type="line"/>
      <point x="152.0" y="622.0"/>
      <point x="239.26707227613497" y="658.467983239615"/>
      <point x="294.2889269993623" y="658.467983239615" type="curve"/>
      <point x="326.35464365925645" y="658.467983239615"/>
      <point x="349.3836583513621" y="626.985279609901"/>
      <point x="349.3836583513621" y="594.6280564349165" type="curve"/>
      <point x="355.68242586318456" y="590.5287460664647"/>
      <point x="362.8520016104776" y="587.1548280677384"/>
      <point x="376.13680373046213" y="587.1548280677384" type="curve" smooth="yes"/>
      <point x="402.13680373046213" y="587.1548280677384"/>
      <point x="422.4060403813937" y="604.7989807467261"/>
      <point x="422.4060403813937" y="624.7989807467261" type="curve" smooth="yes"/>
      <point x="422.4060403813937" y="662.7989807467261"/>
      <point x="383.0" y="698.0"/>
      <point x="306.0" y="698.0" type="curve" smooth="yes"/>
      <point x="205.0" y="698.0"/>
      <point x="100.0" y="631.0"/>
      <point x="100.0" y="469.0" type="curve" smooth="yes"/>
      <point x="100.0" y="197.0" type="line" smooth="yes"/>
      <point x="100.0" y="106.0"/>
      <point x="101.0" y="75.0"/>
      <point x="99.0" y="45.0" type="curve"/>
      <point x="37.0" y="31.0" type="line"/>
    </contour>
    <contour>
      <point x="301.0" y="0.0" type="line"/>
      <point x="491.0" y="0.0" type="line"/>
      <point x="493.0" y="32.0" type="line"/>
      <point x="426.0" y="45.0" type="line"/>
      <point x="423.0" y="64.0"/>
      <point x="421.0" y="93.0"/>
      <point x="421.0" y="165.0" type="curve" smooth="yes"/>
      <point x="421.0" y="291.0" type="line" smooth="yes"/>
      <point x="421.0" y="353.0"/>
      <point x="421.8230273512138" y="387.65843072105486"/>
      <point x="426.1956250775629" y="427.7405765459225" type="curve"/>
      <point x="416.3572801932771" y="439.0364540056578" type="line"/>
      <point x="364.5738008523779" y="423.73236196343555" type="line"/>
      <point x="142.0" y="423.0" type="line"/>
      <point x="100.0" y="423.0" type="line"/>
      <point x="29.0" y="406.0" type="line"/>
      <point x="29.0" y="380.0" type="line"/>
      <point x="365.0" y="380.0" type="line"/>
      <point x="366.0" y="361.0"/>
      <point x="369.0" y="317.0"/>
      <point x="369.0" y="234.0" type="curve" smooth="yes"/>
      <point x="369.0" y="155.0" type="line" smooth="yes"/>
      <point x="369.0" y="74.0"/>
      <point x="367.0" y="66.0"/>
      <point x="366.0" y="45.0" type="curve"/>
      <point x="299.0" y="32.0" type="line"/>
    </contour>
  </outline>
</glyph>
<glyph name="f_j" format="2">
  <advance width="513.0"/>
  <note>
    f_j
  </note>
  <outline>
    <contour>
      <point x="275.0" y="-231.0" type="line"/>
      <point x="386.0" y="-173.0"/>
      <point x="415.0" y="-106.0"/>
      <point x="415.0" y="-30.0" type="curve"/>
      <point x="415.0" y="291.0" type="line"/>
      <point x="415.0" y="349.37795710750584"/>
      <point x="415.56582861265656" y="386.553691221367"/>
      <point x="420.1893397018939" y="427.70722036614757" type="curve"/>
      <point x="410.2022205020596" y="439.0257959293515" type="line"/>
      <point x="356.82275471579055" y="423.0" type="line"/>
      <point x="138.0" y="423.0" type="line"/>
      <point x="100.0" y="423.0" type="line"/>
      <point x="29.0" y="406.0" type="line"/>
      <point x="29.0" y="380.0" type="line"/>
      <point x="358.0" y="380.0" type="line"/>
      <point x="360.0" y="361.0"/>
      <point x="366.0" y="317.0"/>
      <point x="366.0" y="234.0" type="curve" smooth="yes"/>
      <point x="365.0" y="-20.0" type="line" smooth="yes"/>
      <point x="365.0" y="-115.0"/>
      <point x="330.0" y="-163.0"/>
      <point x="259.0" y="-203.0" type="curve"/>
    </contour>
    <contour>
      <point x="39.0" y="0.0" type="line"/>
      <point x="220.0" y="0.0" type="line"/>
      <point x="222.0" y="31.0" type="line"/>
      <point x="155.0" y="45.0" type="line"/>
      <point x="152.0" y="100.0"/>
      <point x="152.0" y="157.0"/>
      <point x="152.0" y="193.0" type="curve" smooth="yes"/>
      <point x="152.0" y="423.0" type="line"/>
      <point x="152.0" y="485.0" type="line" smooth="yes"/>
      <point x="152.0" y="622.0"/>
      <point x="239.26707227613497" y="658.467983239615"/>
      <point x="294.2889269993623" y="658.467983239615" type="curve"/>
      <point x="326.35464365925645" y="658.467983239615"/>
      <point x="349.3836583513621" y="626.985279609901"/>
      <point x="349.3836583513621" y="594.6280564349165" type="curve"/>
      <point x="355.68242586318456" y="590.5287460664647"/>
      <point x="362.8520016104776" y="587.1548280677384"/>
      <point x="376.13680373046213" y="587.1548280677384" type="curve" smooth="yes"/>
      <point x="402.13680373046213" y="587.1548280677384"/>
      <point x="422.4060403813937" y="604.7989807467261"/>
      <point x="422.4060403813937" y="624.7989807467261" type="curve" smooth="yes"/>
      <point x="422.4060403813937" y="662.7989807467261"/>
      <point x="383.0" y="698.0"/>
      <point x="306.0" y="698.0" type="curve" smooth="yes"/>
      <point x="205.0" y="698.0"/>
      <point x="100.0" y="631.0"/>
      <point x="100.0" y="469.0" type="curve" smooth="yes"/>
      <point x="100.0" y="197.0" type="line" smooth="yes"/>
      <point x="100.0" y="106.0"/>
      <point x="101.0" y="75.0"/>
      <point x="99.0" y="45.0" type="curve"/>
      <point x="37.0" y="31.0" type="line"/>
    </contour>
  </outline>
</glyph>
<glyph name="four.tosf" format="2">
  <advance width="540.0"/>
  <note>
    four.onum
  </note>
  <outline>
    <contour>
      <point x="392.0" y="-205.0" type="line"/>
      <point x="393.0" y="278.0" type="line"/>
      <point x="393.0" y="327.0"/>
      <point x="393.0" y="375.0"/>
      <point x="395.0" y="429.0" type="curve"/>
      <point x="373.0" y="429.0" type="line"/>
      <point x="45.0" y="47.0" type="line"/>
      <point x="55.0" y="18.0" type="line"/>
      <point x="480.0" y="18.0" type="line"/>
      <point x="480.0" y="69.0" type="line"/>
      <point x="106.0" y="69.0" type="line"/>
      <point x="106.0" y="49.0" type="line"/>
      <point x="359.0" y="351.0" type="line"/>
      <point x="335.0" y="350.0" type="line"/>
      <point x="335.0" y="-205.0" type="line"/>
    </contour>
  </outline>
</glyph>
<glyph name="hookabovecomb.case" format="2">
  <note>
    hookabovecomb.cap
  </note>
  <anchor x="300.0" y="660.0" name="_top"/>
  <anchor x="300.0" y="882.0" name="top"/>
  <outline>
    <contour>
      <point x="304.0" y="901.0" type="curve" smooth="yes"/>
      <point x="252.0" y="901.0"/>
      <point x="217.0" y="878.0"/>
      <point x="217.0" y="854.0" type="curve" smooth="yes"/>
      <point x="217.0" y="840.0"/>
      <point x="226.0" y="830.0"/>
      <point x="240.0" y="830.0" type="curve" smooth="yes"/>
      <point x="254.0" y="830.0"/>
      <point x="258.0" y="835.0"/>
      <point x="276.0" y="851.0" type="curve" smooth="yes"/>
      <point x="308.0" y="881.0" type="line"/>
      <point x="275.0" y="875.0" type="line"/>
      <point x="304.0" y="882.0"/>
      <point x="333.0" y="880.0"/>
      <point x="333.0" y="843.0" type="curve" smooth="yes"/>
      <point x="333.0" y="815.0"/>
      <point x="287.0" y="800.0"/>
      <point x="287.0" y="742.0" type="curve" smooth="yes"/>
      <point x="287.0" y="725.0" type="line"/>
      <point x="314.0" y="725.0" type="line"/>
      <point x="314.0" y="790.0"/>
      <point x="390.0" y="773.0"/>
      <point x="390.0" y="840.0" type="curve" smooth="yes"/>
      <point x="390.0" y="878.0"/>
      <point x="354.0" y="901.0"/>
    </contour>
  </outline>
</glyph>
<glyph name="hungarumlautcomb.case" format="2">
  <note>
    uni030B.cap
  </note>
  <anchor x="300.0" y="660.0" name="_top"/>
  <anchor x="300.0" y="882.0" name="top"/>
  <outline>
    <contour>
      <point x="368.0" y="713.0" type="line"/>
      <point x="451.0" y="832.0" type="line"/>
      <point x="390.0" y="845.0" type="line"/>
      <point x="344.0" y="723.0" type="line"/>
    </contour>
    <contour>
      <point x="256.0" y="713.0" type="line"/>
      <point x="339.0" y="832.0" type="line"/>
      <point x="278.0" y="845.0" type="line"/>
      <point x="232.0" y="723.0" type="line"/>
    </contour>
  </outline>
</glyph>
<glyph name="macroncomb_dieresiscomb.case" format="2">
  <advance width="600.0"/>
  <anchor x="300.0" y="660.0" name="_top"/>
  <outline>
    <contour>
      <point x="146.0" y="768.0" type="line"/>
      <point x="454.0" y="768.0" type="line"/>
      <point x="454.0" y="815.0" type="line"/>
      <point x="146.0" y="815.0" type="line"/>
    </contour>
    <contour>
      <point x="208.0" y="976.0" type="curve" smooth="yes"/>
      <point x="185.0" y="976.0"/>
      <point x="165.0" y="960.0"/>
      <point x="165.0" y="934.0" type="curve" smooth="yes"/>
      <point x="165.0" y="909.0"/>
      <point x="185.0" y="892.0"/>
      <point x="208.0" y="892.0" type="curve" smooth="yes"/>
      <point x="230.0" y="892.0"/>
      <point x="249.0" y="909.0"/>
      <point x="249.0" y="934.0" type="curve" smooth="yes"/>
      <point x="249.0" y="960.0"/>
      <point x="230.0" y="976.0"/>
    </contour>
    <contour>
      <point x="394.0" y="976.0" type="curve" smooth="yes"/>
      <point x="371.0" y="976.0"/>
      <point x="351.0" y="960.0"/>
      <point x="351.0" y="934.0" type="curve" smooth="yes"/>
      <point x="351.0" y="909.0"/>
      <point x="371.0" y="892.0"/>
      <point x="394.0" y="892.0" type="curve" smooth="yes"/>
      <point x="416.0" y="892.0"/>
      <point x="435.0" y="909.0"/>
      <point x="435.0" y="934.0" type="curve" smooth="yes"/>
      <point x="435.0" y="960.0"/>
      <point x="416.0" y="976.0"/>
    </contour>
  </outline>
</glyph>
